<svg width="283" height="112" viewBox="0 0 283 112" fill="none" xmlns="http://www.w3.org/2000/svg">
<rect opacity="0.1" x="0.5" y="1.08594" width="40" height="40" rx="8" fill="#A38FC7"/>
<path d="M32.4596 24.3298C30.8627 30.7354 24.3749 34.6336 17.9686 33.0363C11.565 31.4394 7.66671 24.9512 9.26434 18.5462C10.8606 12.1399 17.3483 8.24133 23.7527 9.83826C30.1585 11.4352 34.0566 17.9241 32.4595 24.3299L32.4596 24.3298H32.4596Z" fill="#855BE1" fill-opacity="0.21"/>
<path d="M25.548 26.628H23.9647L22.9365 22.803L20.7257 26.6284H18.9581L22.3751 20.7071L21.8251 18.6514L17.2176 26.6297H15.4492L21.2883 16.5156H22.8365L23.5143 19.0285H25.1116L24.0211 20.9248L25.548 26.628Z" fill="black"/>
<path d="M9.392 69.5299H4.154L3.254 72.0859H1.112L5.594 59.5579H7.97L12.452 72.0859H10.292L9.392 69.5299ZM8.816 67.8559L6.782 62.0419L4.73 67.8559H8.816ZM16.4528 70.4299H20.6828V72.0859H14.4008V59.5759H16.4528V70.4299ZM31.4528 63.1759C31.1288 62.5519 30.6788 62.0839 30.1028 61.7719C29.5268 61.4479 28.8608 61.2859 28.1048 61.2859C27.2768 61.2859 26.5388 61.4719 25.8908 61.8439C25.2428 62.2159 24.7328 62.7439 24.3608 63.4279C24.0008 64.1119 23.8208 64.9039 23.8208 65.8039C23.8208 66.7039 24.0008 67.5019 24.3608 68.1979C24.7328 68.8819 25.2428 69.4099 25.8908 69.7819C26.5388 70.1539 27.2768 70.3399 28.1048 70.3399C29.2208 70.3399 30.1268 70.0279 30.8228 69.4039C31.5188 68.7799 31.9448 67.9339 32.1008 66.8659H27.4028V65.2279H34.2968V66.8299C34.1648 67.8019 33.8168 68.6959 33.2528 69.5119C32.7008 70.3279 31.9748 70.9819 31.0748 71.4739C30.1868 71.9539 29.1968 72.1939 28.1048 72.1939C26.9288 72.1939 25.8548 71.9239 24.8828 71.3839C23.9108 70.8319 23.1368 70.0699 22.5608 69.0979C21.9968 68.1259 21.7148 67.0279 21.7148 65.8039C21.7148 64.5799 21.9968 63.4819 22.5608 62.5099C23.1368 61.5379 23.9108 60.7819 24.8828 60.2419C25.8668 59.6899 26.9408 59.4139 28.1048 59.4139C29.4368 59.4139 30.6188 59.7439 31.6508 60.4039C32.6948 61.0519 33.4508 61.9759 33.9188 63.1759H31.4528ZM42.0267 72.2119C40.8627 72.2119 39.7887 71.9419 38.8047 71.4019C37.8327 70.8499 37.0587 70.0879 36.4827 69.1159C35.9187 68.1319 35.6367 67.0279 35.6367 65.8039C35.6367 64.5799 35.9187 63.4819 36.4827 62.5099C37.0587 61.5379 37.8327 60.7819 38.8047 60.2419C39.7887 59.6899 40.8627 59.4139 42.0267 59.4139C43.2027 59.4139 44.2767 59.6899 45.2487 60.2419C46.2327 60.7819 47.0067 61.5379 47.5707 62.5099C48.1347 63.4819 48.4167 64.5799 48.4167 65.8039C48.4167 67.0279 48.1347 68.1319 47.5707 69.1159C47.0067 70.0879 46.2327 70.8499 45.2487 71.4019C44.2767 71.9419 43.2027 72.2119 42.0267 72.2119ZM42.0267 70.4299C42.8547 70.4299 43.5927 70.2439 44.2407 69.8719C44.8887 69.4879 45.3927 68.9479 45.7527 68.2519C46.1247 67.5439 46.3107 66.7279 46.3107 65.8039C46.3107 64.8799 46.1247 64.0699 45.7527 63.3739C45.3927 62.6779 44.8887 62.1439 44.2407 61.7719C43.5927 61.3999 42.8547 61.2139 42.0267 61.2139C41.1987 61.2139 40.4607 61.3999 39.8127 61.7719C39.1647 62.1439 38.6547 62.6779 38.2827 63.3739C37.9227 64.0699 37.7427 64.8799 37.7427 65.8039C37.7427 66.7279 37.9227 67.5439 38.2827 68.2519C38.6547 68.9479 39.1647 69.4879 39.8127 69.8719C40.4607 70.2439 41.1987 70.4299 42.0267 70.4299Z" fill="#1A1B2F"/>
<path d="M7.346 102.916H3.09L2.306 105.086H0.962L4.49 95.3839H5.96L9.474 105.086H8.13L7.346 102.916ZM6.982 101.88L5.218 96.9519L3.454 101.88H6.982ZM12.2856 94.7259V105.086H11.0116V94.7259H12.2856ZM17.6209 97.2879C18.2836 97.2879 18.8622 97.4326 19.3569 97.7219C19.8609 98.0113 20.2342 98.3753 20.4769 98.8139V97.4139H21.7649V105.254C21.7649 105.954 21.6156 106.575 21.3169 107.116C21.0182 107.667 20.5889 108.096 20.0289 108.404C19.4782 108.712 18.8342 108.866 18.0969 108.866C17.0889 108.866 16.2489 108.628 15.5769 108.152C14.9049 107.676 14.5082 107.027 14.3869 106.206H15.6469C15.7869 106.673 16.0762 107.046 16.5149 107.326C16.9536 107.615 17.4809 107.76 18.0969 107.76C18.7969 107.76 19.3662 107.541 19.8049 107.102C20.2529 106.663 20.4769 106.047 20.4769 105.254V103.644C20.2249 104.092 19.8516 104.465 19.3569 104.764C18.8622 105.063 18.2836 105.212 17.6209 105.212C16.9396 105.212 16.3189 105.044 15.7589 104.708C15.2082 104.372 14.7742 103.901 14.4569 103.294C14.1396 102.687 13.9809 101.997 13.9809 101.222C13.9809 100.438 14.1396 99.7519 14.4569 99.1639C14.7742 98.5666 15.2082 98.1046 15.7589 97.7779C16.3189 97.4513 16.9396 97.2879 17.6209 97.2879ZM20.4769 101.236C20.4769 100.657 20.3602 100.153 20.1269 99.7239C19.8936 99.2946 19.5762 98.9679 19.1749 98.7439C18.7829 98.5106 18.3489 98.3939 17.8729 98.3939C17.3969 98.3939 16.9629 98.5059 16.5709 98.7299C16.1789 98.9539 15.8662 99.2806 15.6329 99.7099C15.3996 100.139 15.2829 100.643 15.2829 101.222C15.2829 101.81 15.3996 102.323 15.6329 102.762C15.8662 103.191 16.1789 103.523 16.5709 103.756C16.9629 103.98 17.3969 104.092 17.8729 104.092C18.3489 104.092 18.7829 103.98 19.1749 103.756C19.5762 103.523 19.8936 103.191 20.1269 102.762C20.3602 102.323 20.4769 101.815 20.4769 101.236ZM27.2638 105.212C26.5452 105.212 25.8918 105.049 25.3038 104.722C24.7252 104.395 24.2678 103.933 23.9318 103.336C23.6052 102.729 23.4418 102.029 23.4418 101.236C23.4418 100.452 23.6098 99.7613 23.9458 99.1639C24.2912 98.5573 24.7578 98.0953 25.3458 97.7779C25.9338 97.4513 26.5918 97.2879 27.3198 97.2879C28.0478 97.2879 28.7058 97.4513 29.2938 97.7779C29.8818 98.0953 30.3438 98.5526 30.6798 99.1499C31.0252 99.7473 31.1978 100.443 31.1978 101.236C31.1978 102.029 31.0205 102.729 30.6658 103.336C30.3205 103.933 29.8492 104.395 29.2518 104.722C28.6545 105.049 27.9918 105.212 27.2638 105.212ZM27.2638 104.092C27.7212 104.092 28.1505 103.985 28.5518 103.77C28.9532 103.555 29.2752 103.233 29.5178 102.804C29.7698 102.375 29.8958 101.852 29.8958 101.236C29.8958 100.62 29.7745 100.097 29.5318 99.6679C29.2892 99.2386 28.9718 98.9213 28.5798 98.7159C28.1878 98.5013 27.7632 98.3939 27.3058 98.3939C26.8392 98.3939 26.4098 98.5013 26.0178 98.7159C25.6352 98.9213 25.3272 99.2386 25.0938 99.6679C24.8605 100.097 24.7438 100.62 24.7438 101.236C24.7438 101.861 24.8558 102.389 25.0798 102.818C25.3132 103.247 25.6212 103.569 26.0038 103.784C26.3865 103.989 26.8065 104.092 27.2638 104.092ZM34.1469 98.6599C34.3709 98.2213 34.6883 97.8806 35.0989 97.6379C35.5189 97.3953 36.0276 97.2739 36.6249 97.2739V98.5899H36.2889C34.8609 98.5899 34.1469 99.3646 34.1469 100.914V105.086H32.8729V97.4139H34.1469V98.6599ZM37.6196 101.222C37.6196 100.438 37.7782 99.7519 38.0956 99.1639C38.4129 98.5666 38.8469 98.1046 39.3976 97.7779C39.9576 97.4513 40.5782 97.2879 41.2596 97.2879C41.9316 97.2879 42.5149 97.4326 43.0096 97.7219C43.5042 98.0113 43.8729 98.3753 44.1156 98.8139V97.4139H45.4036V105.086H44.1156V103.658C43.8636 104.106 43.4856 104.479 42.9816 104.778C42.4869 105.067 41.9082 105.212 41.2456 105.212C40.5642 105.212 39.9482 105.044 39.3976 104.708C38.8469 104.372 38.4129 103.901 38.0956 103.294C37.7782 102.687 37.6196 101.997 37.6196 101.222ZM44.1156 101.236C44.1156 100.657 43.9989 100.153 43.7656 99.7239C43.5322 99.2946 43.2149 98.9679 42.8136 98.7439C42.4216 98.5106 41.9876 98.3939 41.5116 98.3939C41.0356 98.3939 40.6016 98.5059 40.2096 98.7299C39.8176 98.9539 39.5049 99.2806 39.2716 99.7099C39.0382 100.139 38.9216 100.643 38.9216 101.222C38.9216 101.81 39.0382 102.323 39.2716 102.762C39.5049 103.191 39.8176 103.523 40.2096 103.756C40.6016 103.98 41.0356 104.092 41.5116 104.092C41.9876 104.092 42.4216 103.98 42.8136 103.756C43.2149 103.523 43.5322 103.191 43.7656 102.762C43.9989 102.323 44.1156 101.815 44.1156 101.236ZM51.2945 97.2739C52.2278 97.2739 52.9838 97.5586 53.5625 98.1279C54.1412 98.6879 54.4305 99.4999 54.4305 100.564V105.086H53.1705V100.746C53.1705 99.9806 52.9792 99.3973 52.5965 98.9959C52.2138 98.5853 51.6912 98.3799 51.0285 98.3799C50.3565 98.3799 49.8198 98.5899 49.4185 99.0099C49.0265 99.4299 48.8305 100.041 48.8305 100.844V105.086H47.5565V97.4139H48.8305V98.5059C49.0825 98.1139 49.4232 97.8106 49.8525 97.5959C50.2912 97.3813 50.7718 97.2739 51.2945 97.2739ZM56.0356 101.222C56.0356 100.438 56.1943 99.7519 56.5116 99.1639C56.8289 98.5666 57.2629 98.1046 57.8136 97.7779C58.3736 97.4513 58.9989 97.2879 59.6896 97.2879C60.2869 97.2879 60.8423 97.4279 61.3556 97.7079C61.8689 97.9786 62.2609 98.3379 62.5316 98.7859V94.7259H63.8196V105.086H62.5316V103.644C62.2796 104.101 61.9063 104.479 61.4116 104.778C60.9169 105.067 60.3383 105.212 59.6756 105.212C58.9943 105.212 58.3736 105.044 57.8136 104.708C57.2629 104.372 56.8289 103.901 56.5116 103.294C56.1943 102.687 56.0356 101.997 56.0356 101.222ZM62.5316 101.236C62.5316 100.657 62.4149 100.153 62.1816 99.7239C61.9483 99.2946 61.6309 98.9679 61.2296 98.7439C60.8376 98.5106 60.4036 98.3939 59.9276 98.3939C59.4516 98.3939 59.0176 98.5059 58.6256 98.7299C58.2336 98.9539 57.9209 99.2806 57.6876 99.7099C57.4543 100.139 57.3376 100.643 57.3376 101.222C57.3376 101.81 57.4543 102.323 57.6876 102.762C57.9209 103.191 58.2336 103.523 58.6256 103.756C59.0176 103.98 59.4516 104.092 59.9276 104.092C60.4036 104.092 60.8376 103.98 61.2296 103.756C61.6309 103.523 61.9483 103.191 62.1816 102.762C62.4149 102.323 62.5316 101.815 62.5316 101.236Z" fill="#969696"/>
<path d="M184.105 32.2548C179.392 32.2548 179.644 28.6184 173.5 28.6184V41.0859H282.5V17.1729C274.841 17.1729 276.861 8.87815 270.885 8.87815C264.909 8.87815 266.592 1.08594 260.784 1.08594C254.976 1.08594 254.135 24.5896 250.936 24.5896C247.738 24.5896 247.149 17.1729 241.593 17.1729C236.038 17.1729 236.543 3.61891 232.251 3.61891C227.958 3.61891 227.958 17.1729 223.581 17.1729C219.204 17.1729 218.194 14.9792 212.807 14.9792C207.42 14.9792 207.505 25.7387 204.138 25.7387C200.771 25.7387 198.751 21.3457 194.795 21.3457C190.839 21.3457 188.819 32.2548 184.105 32.2548Z" fill="url(#paint0_linear_416_32519)"/>
<path d="M173.5 28.6184C179.644 28.6184 179.392 32.2548 184.105 32.2548C188.819 32.2548 190.839 21.3457 194.795 21.3457C198.751 21.3457 200.771 25.7387 204.138 25.7387C207.505 25.7387 207.42 14.9792 212.807 14.9792C218.194 14.9792 219.204 17.1729 223.581 17.1729C227.958 17.1729 227.958 3.61891 232.251 3.61891C236.543 3.61891 236.038 17.1729 241.593 17.1729C247.149 17.1729 247.738 24.5896 250.936 24.5896C254.135 24.5896 254.976 1.08594 260.784 1.08594C266.592 1.08594 264.908 8.87815 270.885 8.87815C276.861 8.87815 274.841 17.1729 282.5 17.1729" stroke="#A38FC7" stroke-width="2"/>
<path d="M159.974 61.0859V59.4219H163.302V71.0859H161.462V61.0859H159.974ZM165.264 68.6539V67.2779L170.64 59.5659H172.848V67.0699H174.336V68.6539H172.848V71.0859H171.056V68.6539H165.264ZM171.136 61.4219L167.36 67.0699H171.136V61.4219ZM176.503 71.1979C176.172 71.1979 175.895 71.0859 175.671 70.8619C175.447 70.6379 175.335 70.3606 175.335 70.0299C175.335 69.6993 175.447 69.4219 175.671 69.1979C175.895 68.9739 176.172 68.8619 176.503 68.8619C176.823 68.8619 177.095 68.9739 177.319 69.1979C177.543 69.4219 177.655 69.6993 177.655 70.0299C177.655 70.3606 177.543 70.6379 177.319 70.8619C177.095 71.0859 176.823 71.1979 176.503 71.1979ZM181.034 64.9899C179.925 64.4353 179.37 63.5606 179.37 62.3659C179.37 61.7899 179.514 61.2619 179.802 60.7819C180.09 60.3019 180.522 59.9233 181.098 59.6459C181.674 59.3579 182.378 59.2139 183.21 59.2139C184.032 59.2139 184.73 59.3579 185.306 59.6459C185.893 59.9233 186.33 60.3019 186.618 60.7819C186.906 61.2619 187.05 61.7899 187.05 62.3659C187.05 62.9633 186.896 63.4913 186.586 63.9499C186.288 64.3979 185.888 64.7446 185.386 64.9899C185.994 65.2139 186.474 65.5819 186.826 66.0939C187.178 66.5953 187.354 67.1873 187.354 67.8699C187.354 68.5633 187.178 69.1766 186.826 69.7099C186.474 70.2433 185.984 70.6539 185.354 70.9419C184.725 71.2299 184.01 71.3739 183.21 71.3739C182.41 71.3739 181.696 71.2299 181.066 70.9419C180.448 70.6539 179.962 70.2433 179.61 69.7099C179.258 69.1766 179.082 68.5633 179.082 67.8699C179.082 67.1766 179.258 66.5793 179.61 66.0779C179.962 65.5766 180.437 65.2139 181.034 64.9899ZM185.306 62.5899C185.306 61.9926 185.12 61.5339 184.746 61.2139C184.373 60.8939 183.861 60.7339 183.21 60.7339C182.57 60.7339 182.064 60.8939 181.69 61.2139C181.317 61.5339 181.13 61.9979 181.13 62.6059C181.13 63.1393 181.322 63.5766 181.706 63.9179C182.101 64.2486 182.602 64.4139 183.21 64.4139C183.818 64.4139 184.32 64.2433 184.714 63.9019C185.109 63.5606 185.306 63.1233 185.306 62.5899ZM183.21 65.7899C182.506 65.7899 181.93 65.9659 181.482 66.3179C181.045 66.6593 180.826 67.1553 180.826 67.8059C180.826 68.4139 181.04 68.9099 181.466 69.2939C181.893 69.6673 182.474 69.8539 183.21 69.8539C183.936 69.8539 184.506 69.6619 184.922 69.2779C185.349 68.8939 185.562 68.4033 185.562 67.8059C185.562 67.1659 185.344 66.6699 184.906 66.3179C184.48 65.9659 183.914 65.7899 183.21 65.7899ZM188.725 68.6539V67.2779L194.101 59.5659H196.309V67.0699H197.797V68.6539H196.309V71.0859H194.517V68.6539H188.725ZM194.597 61.4219L190.821 67.0699H194.597V61.4219ZM206.381 60.8299L201.933 71.0859H200.093L204.589 61.0219H198.669V59.4699H206.381V60.8299ZM215.142 60.9899H209.782V64.1739C210.006 63.8753 210.337 63.6246 210.774 63.4219C211.222 63.2193 211.697 63.1179 212.198 63.1179C213.094 63.1179 213.819 63.3099 214.374 63.6939C214.939 64.0779 215.339 64.5633 215.574 65.1499C215.819 65.7366 215.942 66.3553 215.942 67.0059C215.942 67.7953 215.787 68.4993 215.478 69.1179C215.179 69.7259 214.726 70.2059 214.118 70.5579C213.521 70.9099 212.785 71.0859 211.91 71.0859C210.747 71.0859 209.814 70.7979 209.11 70.2219C208.406 69.6459 207.985 68.8833 207.846 67.9339H209.622C209.739 68.4353 210.001 68.8353 210.406 69.1339C210.811 69.4219 211.318 69.5659 211.926 69.5659C212.683 69.5659 213.249 69.3366 213.622 68.8779C214.006 68.4193 214.198 67.8113 214.198 67.0539C214.198 66.2859 214.006 65.6993 213.622 65.2939C213.238 64.8779 212.673 64.6699 211.926 64.6699C211.403 64.6699 210.961 64.8033 210.598 65.0699C210.246 65.3259 209.99 65.6779 209.83 66.1259H208.102V59.3899H215.142V60.9899ZM223.793 62.1259C223.675 61.6353 223.462 61.2673 223.153 61.0219C222.843 60.7766 222.411 60.6539 221.857 60.6539C221.014 60.6539 220.385 60.9793 219.969 61.6299C219.553 62.2699 219.334 63.3366 219.313 64.8299C219.59 64.3606 219.995 63.9979 220.529 63.7419C221.062 63.4859 221.638 63.3579 222.257 63.3579C222.961 63.3579 223.579 63.5126 224.113 63.8219C224.657 64.1206 225.078 64.5579 225.377 65.1339C225.686 65.7099 225.841 66.3979 225.841 67.1979C225.841 67.9446 225.691 68.6113 225.393 69.1979C225.105 69.7846 224.673 70.2486 224.097 70.5899C223.521 70.9206 222.827 71.0859 222.017 71.0859C220.918 71.0859 220.054 70.8459 219.425 70.3659C218.806 69.8753 218.369 69.1873 218.113 68.3019C217.867 67.4166 217.745 66.3126 217.745 64.9899C217.745 61.0859 219.121 59.1339 221.873 59.1339C222.939 59.1339 223.777 59.4219 224.385 59.9979C225.003 60.5739 225.366 61.2833 225.473 62.1259H223.793ZM221.857 64.8939C221.206 64.8939 220.651 65.0913 220.193 65.4859C219.745 65.8699 219.521 66.4299 219.521 67.1659C219.521 67.9019 219.729 68.4886 220.145 68.9259C220.571 69.3526 221.163 69.5659 221.921 69.5659C222.593 69.5659 223.121 69.3579 223.505 68.9419C223.899 68.5259 224.097 67.9713 224.097 67.2779C224.097 66.5526 223.905 65.9766 223.521 65.5499C223.147 65.1126 222.593 64.8939 221.857 64.8939ZM227.466 65.1019C227.466 63.2566 227.776 61.8166 228.394 60.7819C229.024 59.7366 230.101 59.2139 231.626 59.2139C233.152 59.2139 234.224 59.7366 234.842 60.7819C235.472 61.8166 235.786 63.2566 235.786 65.1019C235.786 66.9686 235.472 68.4299 234.842 69.4859C234.224 70.5313 233.152 71.0539 231.626 71.0539C230.101 71.0539 229.024 70.5313 228.394 69.4859C227.776 68.4299 227.466 66.9686 227.466 65.1019ZM233.994 65.1019C233.994 64.2379 233.936 63.5073 233.818 62.9099C233.712 62.3126 233.488 61.8273 233.146 61.4539C232.805 61.0699 232.298 60.8779 231.626 60.8779C230.954 60.8779 230.448 61.0699 230.106 61.4539C229.765 61.8273 229.536 62.3126 229.418 62.9099C229.312 63.5073 229.258 64.2379 229.258 65.1019C229.258 65.9979 229.312 66.7499 229.418 67.3579C229.525 67.9659 229.749 68.4566 230.09 68.8299C230.442 69.2033 230.954 69.3899 231.626 69.3899C232.298 69.3899 232.805 69.2033 233.146 68.8299C233.498 68.4566 233.728 67.9659 233.834 67.3579C233.941 66.7499 233.994 65.9979 233.994 65.1019ZM248.177 68.8139H243.521L242.721 71.0859H240.817L244.801 59.9499H246.913L250.897 71.0859H248.977L248.177 68.8139ZM247.665 67.3259L245.857 62.1579L244.033 67.3259H247.665ZM254.133 69.6139H257.893V71.0859H252.309V59.9659H254.133V69.6139ZM267.146 63.1659C266.858 62.6113 266.458 62.1953 265.946 61.9179C265.434 61.6299 264.842 61.4859 264.17 61.4859C263.434 61.4859 262.778 61.6513 262.202 61.9819C261.626 62.3126 261.173 62.7819 260.842 63.3899C260.522 63.9979 260.362 64.7019 260.362 65.5019C260.362 66.3019 260.522 67.0113 260.842 67.6299C261.173 68.2379 261.626 68.7073 262.202 69.0379C262.778 69.3686 263.434 69.5339 264.17 69.5339C265.162 69.5339 265.967 69.2566 266.586 68.7019C267.205 68.1473 267.583 67.3953 267.722 66.4459H263.546V64.9899H269.674V66.4139C269.557 67.2779 269.247 68.0726 268.746 68.7979C268.255 69.5233 267.61 70.1046 266.81 70.5419C266.021 70.9686 265.141 71.1819 264.17 71.1819C263.125 71.1819 262.17 70.9419 261.306 70.4619C260.442 69.9713 259.754 69.2939 259.242 68.4299C258.741 67.5659 258.49 66.5899 258.49 65.5019C258.49 64.4139 258.741 63.4379 259.242 62.5739C259.754 61.7099 260.442 61.0379 261.306 60.5579C262.181 60.0673 263.135 59.8219 264.17 59.8219C265.354 59.8219 266.405 60.1153 267.322 60.7019C268.25 61.2779 268.922 62.0993 269.338 63.1659H267.146ZM276.225 71.1979C275.19 71.1979 274.236 70.9579 273.361 70.4779C272.497 69.9873 271.809 69.3099 271.297 68.4459C270.796 67.5713 270.545 66.5899 270.545 65.5019C270.545 64.4139 270.796 63.4379 271.297 62.5739C271.809 61.7099 272.497 61.0379 273.361 60.5579C274.236 60.0673 275.19 59.8219 276.225 59.8219C277.27 59.8219 278.225 60.0673 279.089 60.5579C279.964 61.0379 280.652 61.7099 281.153 62.5739C281.654 63.4379 281.905 64.4139 281.905 65.5019C281.905 66.5899 281.654 67.5713 281.153 68.4459C280.652 69.3099 279.964 69.9873 279.089 70.4779C278.225 70.9579 277.27 71.1979 276.225 71.1979ZM276.225 69.6139C276.961 69.6139 277.617 69.4486 278.193 69.1179C278.769 68.7766 279.217 68.2966 279.537 67.6779C279.868 67.0486 280.033 66.3233 280.033 65.5019C280.033 64.6806 279.868 63.9606 279.537 63.3419C279.217 62.7233 278.769 62.2486 278.193 61.9179C277.617 61.5873 276.961 61.4219 276.225 61.4219C275.489 61.4219 274.833 61.5873 274.257 61.9179C273.681 62.2486 273.228 62.7233 272.897 63.3419C272.577 63.9606 272.417 64.6806 272.417 65.5019C272.417 66.3233 272.577 67.0486 272.897 67.6779C273.228 68.2966 273.681 68.7766 274.257 69.1179C274.833 69.4486 275.489 69.6139 276.225 69.6139Z" fill="#1A1B2F"/>
<path d="M221.96 101.412C221.96 101.86 221.848 102.289 221.624 102.7C221.4 103.101 221.069 103.437 220.63 103.708C220.201 103.979 219.683 104.133 219.076 104.17V105.304H218.32V104.17C217.471 104.095 216.78 103.825 216.248 103.358C215.716 102.882 215.446 102.28 215.436 101.552H216.794C216.832 101.944 216.976 102.285 217.228 102.574C217.49 102.863 217.854 103.045 218.32 103.12V99.6199C217.695 99.4613 217.191 99.2979 216.808 99.1299C216.426 98.9619 216.099 98.7006 215.828 98.3459C215.558 97.9913 215.422 97.5153 215.422 96.9179C215.422 96.1619 215.684 95.5366 216.206 95.0419C216.738 94.5473 217.443 94.2719 218.32 94.2159V93.0539H219.076V94.2159C219.87 94.2813 220.509 94.5379 220.994 94.9859C221.48 95.4246 221.76 95.9986 221.834 96.7079H220.476C220.43 96.3813 220.285 96.0873 220.042 95.8259C219.8 95.5553 219.478 95.3779 219.076 95.2939V98.7099C219.692 98.8686 220.192 99.0319 220.574 99.1999C220.966 99.3586 221.293 99.6153 221.554 99.9699C221.825 100.325 221.96 100.805 221.96 101.412ZM216.724 96.8479C216.724 97.3053 216.86 97.6553 217.13 97.8979C217.401 98.1406 217.798 98.3413 218.32 98.4999V95.2659C217.835 95.3126 217.448 95.4713 217.158 95.7419C216.869 96.0033 216.724 96.3719 216.724 96.8479ZM219.076 103.134C219.58 103.078 219.972 102.896 220.252 102.588C220.542 102.28 220.686 101.911 220.686 101.482C220.686 101.025 220.546 100.675 220.266 100.432C219.986 100.18 219.59 99.9793 219.076 99.8299V103.134ZM223.851 96.5119C223.917 95.6533 224.248 94.9813 224.845 94.4959C225.443 94.0106 226.217 93.7679 227.169 93.7679C227.804 93.7679 228.35 93.8846 228.807 94.1179C229.274 94.3419 229.624 94.6499 229.857 95.0419C230.1 95.4339 230.221 95.8773 230.221 96.3719C230.221 96.9506 230.053 97.4499 229.717 97.8699C229.391 98.2899 228.961 98.5606 228.429 98.6819V98.7519C229.036 98.9013 229.517 99.1953 229.871 99.6339C230.226 100.073 230.403 100.647 230.403 101.356C230.403 101.888 230.282 102.369 230.039 102.798C229.797 103.218 229.433 103.549 228.947 103.792C228.462 104.035 227.879 104.156 227.197 104.156C226.208 104.156 225.396 103.899 224.761 103.386C224.127 102.863 223.772 102.126 223.697 101.174H224.929C224.995 101.734 225.223 102.191 225.615 102.546C226.007 102.901 226.53 103.078 227.183 103.078C227.837 103.078 228.331 102.91 228.667 102.574C229.013 102.229 229.185 101.785 229.185 101.244C229.185 100.544 228.952 100.04 228.485 99.7319C228.019 99.4239 227.314 99.2699 226.371 99.2699H226.049V98.2059H226.385C227.244 98.1966 227.893 98.0566 228.331 97.7859C228.77 97.5059 228.989 97.0766 228.989 96.4979C228.989 96.0033 228.826 95.6066 228.499 95.3079C228.182 95.0093 227.725 94.8599 227.127 94.8599C226.549 94.8599 226.082 95.0093 225.727 95.3079C225.373 95.6066 225.163 96.0079 225.097 96.5119H223.851ZM233.692 98.8219C233.169 98.6166 232.768 98.3179 232.488 97.9259C232.208 97.5339 232.068 97.0579 232.068 96.4979C232.068 95.9939 232.194 95.5413 232.446 95.1399C232.698 94.7293 233.071 94.4073 233.566 94.1739C234.07 93.9313 234.676 93.8099 235.386 93.8099C236.095 93.8099 236.697 93.9313 237.192 94.1739C237.696 94.4073 238.074 94.7293 238.326 95.1399C238.587 95.5413 238.718 95.9939 238.718 96.4979C238.718 97.0393 238.573 97.5153 238.284 97.9259C237.994 98.3273 237.598 98.6259 237.094 98.8219C237.672 98.9993 238.13 99.3119 238.466 99.7599C238.811 100.199 238.984 100.731 238.984 101.356C238.984 101.963 238.834 102.495 238.536 102.952C238.237 103.4 237.812 103.75 237.262 104.002C236.72 104.245 236.095 104.366 235.386 104.366C234.676 104.366 234.051 104.245 233.51 104.002C232.978 103.75 232.562 103.4 232.264 102.952C231.965 102.495 231.816 101.963 231.816 101.356C231.816 100.731 231.984 100.194 232.32 99.7459C232.656 99.2979 233.113 98.9899 233.692 98.8219ZM237.486 96.6519C237.486 96.0826 237.299 95.6439 236.926 95.3359C236.552 95.0279 236.039 94.8739 235.386 94.8739C234.742 94.8739 234.233 95.0279 233.86 95.3359C233.486 95.6439 233.3 96.0873 233.3 96.6659C233.3 97.1886 233.491 97.6086 233.874 97.9259C234.266 98.2433 234.77 98.4019 235.386 98.4019C236.011 98.4019 236.515 98.2433 236.898 97.9259C237.29 97.5993 237.486 97.1746 237.486 96.6519ZM235.386 99.3819C234.695 99.3819 234.13 99.5453 233.692 99.8719C233.253 100.189 233.034 100.67 233.034 101.314C233.034 101.911 233.244 102.392 233.664 102.756C234.093 103.12 234.667 103.302 235.386 103.302C236.104 103.302 236.674 103.12 237.094 102.756C237.514 102.392 237.724 101.911 237.724 101.314C237.724 100.689 237.509 100.213 237.08 99.8859C236.65 99.5499 236.086 99.3819 235.386 99.3819ZM241.922 102.322L240.354 106.088H239.5L240.522 102.322H241.922ZM242.737 103.064C243.922 102.112 244.851 101.333 245.523 100.726C246.195 100.11 246.76 99.4706 247.217 98.8079C247.684 98.1359 247.917 97.4779 247.917 96.8339C247.917 96.2273 247.768 95.7513 247.469 95.4059C247.18 95.0513 246.708 94.8739 246.055 94.8739C245.42 94.8739 244.926 95.0746 244.571 95.4759C244.226 95.8679 244.039 96.3953 244.011 97.0579H242.779C242.816 96.0126 243.134 95.2053 243.731 94.6359C244.328 94.0666 245.098 93.7819 246.041 93.7819C247.002 93.7819 247.763 94.0479 248.323 94.5799C248.892 95.1119 249.177 95.8446 249.177 96.7779C249.177 97.5526 248.944 98.3086 248.477 99.0459C248.02 99.7739 247.497 100.418 246.909 100.978C246.321 101.529 245.57 102.173 244.655 102.91H249.471V103.974H242.737V103.064ZM252.302 101.37C252.395 101.902 252.61 102.313 252.946 102.602C253.291 102.891 253.753 103.036 254.332 103.036C255.106 103.036 255.676 102.733 256.04 102.126C256.413 101.519 256.59 100.497 256.572 99.0599C256.376 99.4799 256.049 99.8113 255.592 100.054C255.134 100.287 254.626 100.404 254.066 100.404C253.44 100.404 252.88 100.278 252.386 100.026C251.9 99.7646 251.518 99.3866 251.238 98.8919C250.958 98.3973 250.818 97.7999 250.818 97.0999C250.818 96.1013 251.107 95.2986 251.686 94.6919C252.264 94.0759 253.086 93.7679 254.15 93.7679C255.456 93.7679 256.371 94.1926 256.894 95.0419C257.426 95.8913 257.692 97.1559 257.692 98.8359C257.692 100.012 257.584 100.983 257.37 101.748C257.164 102.513 256.81 103.097 256.306 103.498C255.811 103.899 255.13 104.1 254.262 104.1C253.31 104.1 252.568 103.843 252.036 103.33C251.504 102.817 251.2 102.163 251.126 101.37H252.302ZM254.276 99.3259C254.901 99.3259 255.414 99.1346 255.816 98.7519C256.217 98.3599 256.418 97.8326 256.418 97.1699C256.418 96.4699 256.222 95.9053 255.83 95.4759C255.438 95.0466 254.887 94.8319 254.178 94.8319C253.524 94.8319 253.002 95.0373 252.61 95.4479C252.227 95.8586 252.036 96.3999 252.036 97.0719C252.036 97.7533 252.227 98.2993 252.61 98.7099C252.992 99.1206 253.548 99.3259 254.276 99.3259ZM258.866 95.1259V93.9639H261.498V104.086H260.21V95.1259H258.866ZM264.023 104.17C263.78 104.17 263.575 104.086 263.407 103.918C263.239 103.75 263.155 103.545 263.155 103.302C263.155 103.059 263.239 102.854 263.407 102.686C263.575 102.518 263.78 102.434 264.023 102.434C264.256 102.434 264.452 102.518 264.611 102.686C264.779 102.854 264.863 103.059 264.863 103.302C264.863 103.545 264.779 103.75 264.611 103.918C264.452 104.086 264.256 104.17 264.023 104.17ZM266.066 98.9199C266.066 97.3146 266.327 96.0639 266.85 95.1679C267.373 94.2626 268.287 93.8099 269.594 93.8099C270.891 93.8099 271.801 94.2626 272.324 95.1679C272.847 96.0639 273.108 97.3146 273.108 98.9199C273.108 100.553 272.847 101.823 272.324 102.728C271.801 103.633 270.891 104.086 269.594 104.086C268.287 104.086 267.373 103.633 266.85 102.728C266.327 101.823 266.066 100.553 266.066 98.9199ZM271.848 98.9199C271.848 98.1079 271.792 97.4219 271.68 96.8619C271.577 96.2926 271.358 95.8353 271.022 95.4899C270.695 95.1446 270.219 94.9719 269.594 94.9719C268.959 94.9719 268.474 95.1446 268.138 95.4899C267.811 95.8353 267.592 96.2926 267.48 96.8619C267.377 97.4219 267.326 98.1079 267.326 98.9199C267.326 99.7599 267.377 100.465 267.48 101.034C267.592 101.603 267.811 102.061 268.138 102.406C268.474 102.751 268.959 102.924 269.594 102.924C270.219 102.924 270.695 102.751 271.022 102.406C271.358 102.061 271.577 101.603 271.68 101.034C271.792 100.465 271.848 99.7599 271.848 98.9199ZM281.031 95.0699H276.117V98.2619C276.332 97.9633 276.649 97.7206 277.069 97.5339C277.489 97.3379 277.942 97.2399 278.427 97.2399C279.202 97.2399 279.832 97.4033 280.317 97.7299C280.802 98.0473 281.148 98.4626 281.353 98.9759C281.568 99.4799 281.675 100.017 281.675 100.586C281.675 101.258 281.549 101.86 281.297 102.392C281.045 102.924 280.658 103.344 280.135 103.652C279.622 103.96 278.982 104.114 278.217 104.114C277.237 104.114 276.444 103.862 275.837 103.358C275.23 102.854 274.862 102.182 274.731 101.342H275.977C276.098 101.874 276.355 102.289 276.747 102.588C277.139 102.887 277.634 103.036 278.231 103.036C278.968 103.036 279.524 102.817 279.897 102.378C280.27 101.93 280.457 101.342 280.457 100.614C280.457 99.8859 280.27 99.3259 279.897 98.9339C279.524 98.5326 278.973 98.3319 278.245 98.3319C277.75 98.3319 277.316 98.4533 276.943 98.6959C276.579 98.9293 276.313 99.2513 276.145 99.6619H274.941V93.9499H281.031V95.0699Z" fill="#969696"/>
<defs>
<linearGradient id="paint0_linear_416_32519" x1="228" y1="1.08594" x2="228" y2="41.0859" gradientUnits="userSpaceOnUse">
<stop stop-color="#A38FC7" stop-opacity="0.2"/>
<stop offset="1" stop-color="#A38FC7" stop-opacity="0.02"/>
</linearGradient>
</defs>
</svg>
