<svg width="283" height="112" viewBox="0 0 283 112" fill="none" xmlns="http://www.w3.org/2000/svg">
<rect opacity="0.1" x="0.5" y="1.58203" width="40" height="40" rx="8" fill="#A38FC7"/>
<path d="M32.4596 24.8259C30.8627 31.2314 24.3749 35.1297 17.9686 33.5324C11.565 31.9355 7.66671 25.4473 9.26434 19.0423C10.8606 12.636 17.3483 8.73742 23.7527 10.3344C30.1585 11.9313 34.0566 18.4202 32.4595 24.826L32.4596 24.8259H32.4596Z" fill="#855BE1" fill-opacity="0.21"/>
<path d="M25.548 27.1241H23.9647L22.9365 23.2991L20.7257 27.1245H18.9581L22.3751 21.2032L21.8251 19.1475L17.2176 27.1258H15.4492L21.2883 17.0117H22.8365L23.5143 19.5246H25.1116L24.0211 21.4209L25.548 27.1241Z" fill="black"/>
<path d="M9.392 70.026H4.154L3.254 72.582H1.112L5.594 60.054H7.97L12.452 72.582H10.292L9.392 70.026ZM8.816 68.352L6.782 62.538L4.73 68.352H8.816ZM16.4528 70.926H20.6828V72.582H14.4008V60.072H16.4528V70.926ZM31.4528 63.672C31.1288 63.048 30.6788 62.58 30.1028 62.268C29.5268 61.944 28.8608 61.782 28.1048 61.782C27.2768 61.782 26.5388 61.968 25.8908 62.34C25.2428 62.712 24.7328 63.24 24.3608 63.924C24.0008 64.608 23.8208 65.4 23.8208 66.3C23.8208 67.2 24.0008 67.998 24.3608 68.694C24.7328 69.378 25.2428 69.906 25.8908 70.278C26.5388 70.65 27.2768 70.836 28.1048 70.836C29.2208 70.836 30.1268 70.524 30.8228 69.9C31.5188 69.276 31.9448 68.43 32.1008 67.362H27.4028V65.724H34.2968V67.326C34.1648 68.298 33.8168 69.192 33.2528 70.008C32.7008 70.824 31.9748 71.478 31.0748 71.97C30.1868 72.45 29.1968 72.69 28.1048 72.69C26.9288 72.69 25.8548 72.42 24.8828 71.88C23.9108 71.328 23.1368 70.566 22.5608 69.594C21.9968 68.622 21.7148 67.524 21.7148 66.3C21.7148 65.076 21.9968 63.978 22.5608 63.006C23.1368 62.034 23.9108 61.278 24.8828 60.738C25.8668 60.186 26.9408 59.91 28.1048 59.91C29.4368 59.91 30.6188 60.24 31.6508 60.9C32.6948 61.548 33.4508 62.472 33.9188 63.672H31.4528ZM42.0267 72.708C40.8627 72.708 39.7887 72.438 38.8047 71.898C37.8327 71.346 37.0587 70.584 36.4827 69.612C35.9187 68.628 35.6367 67.524 35.6367 66.3C35.6367 65.076 35.9187 63.978 36.4827 63.006C37.0587 62.034 37.8327 61.278 38.8047 60.738C39.7887 60.186 40.8627 59.91 42.0267 59.91C43.2027 59.91 44.2767 60.186 45.2487 60.738C46.2327 61.278 47.0067 62.034 47.5707 63.006C48.1347 63.978 48.4167 65.076 48.4167 66.3C48.4167 67.524 48.1347 68.628 47.5707 69.612C47.0067 70.584 46.2327 71.346 45.2487 71.898C44.2767 72.438 43.2027 72.708 42.0267 72.708ZM42.0267 70.926C42.8547 70.926 43.5927 70.74 44.2407 70.368C44.8887 69.984 45.3927 69.444 45.7527 68.748C46.1247 68.04 46.3107 67.224 46.3107 66.3C46.3107 65.376 46.1247 64.566 45.7527 63.87C45.3927 63.174 44.8887 62.64 44.2407 62.268C43.5927 61.896 42.8547 61.71 42.0267 61.71C41.1987 61.71 40.4607 61.896 39.8127 62.268C39.1647 62.64 38.6547 63.174 38.2827 63.87C37.9227 64.566 37.7427 65.376 37.7427 66.3C37.7427 67.224 37.9227 68.04 38.2827 68.748C38.6547 69.444 39.1647 69.984 39.8127 70.368C40.4607 70.74 41.1987 70.926 42.0267 70.926Z" fill="#1A1B2F"/>
<path d="M7.346 103.412H3.09L2.306 105.582H0.962L4.49 95.88H5.96L9.474 105.582H8.13L7.346 103.412ZM6.982 102.376L5.218 97.448L3.454 102.376H6.982ZM12.2856 95.222V105.582H11.0116V95.222H12.2856ZM17.6209 97.784C18.2836 97.784 18.8622 97.9287 19.3569 98.218C19.8609 98.5074 20.2342 98.8714 20.4769 99.31V97.91H21.7649V105.75C21.7649 106.45 21.6156 107.071 21.3169 107.612C21.0182 108.163 20.5889 108.592 20.0289 108.9C19.4782 109.208 18.8342 109.362 18.0969 109.362C17.0889 109.362 16.2489 109.124 15.5769 108.648C14.9049 108.172 14.5082 107.523 14.3869 106.702H15.6469C15.7869 107.169 16.0762 107.542 16.5149 107.822C16.9536 108.111 17.4809 108.256 18.0969 108.256C18.7969 108.256 19.3662 108.037 19.8049 107.598C20.2529 107.159 20.4769 106.543 20.4769 105.75V104.14C20.2249 104.588 19.8516 104.961 19.3569 105.26C18.8622 105.559 18.2836 105.708 17.6209 105.708C16.9396 105.708 16.3189 105.54 15.7589 105.204C15.2082 104.868 14.7742 104.397 14.4569 103.79C14.1396 103.183 13.9809 102.493 13.9809 101.718C13.9809 100.934 14.1396 100.248 14.4569 99.66C14.7742 99.0627 15.2082 98.6007 15.7589 98.274C16.3189 97.9474 16.9396 97.784 17.6209 97.784ZM20.4769 101.732C20.4769 101.153 20.3602 100.649 20.1269 100.22C19.8936 99.7907 19.5762 99.464 19.1749 99.24C18.7829 99.0067 18.3489 98.89 17.8729 98.89C17.3969 98.89 16.9629 99.002 16.5709 99.226C16.1789 99.45 15.8662 99.7767 15.6329 100.206C15.3996 100.635 15.2829 101.139 15.2829 101.718C15.2829 102.306 15.3996 102.819 15.6329 103.258C15.8662 103.687 16.1789 104.019 16.5709 104.252C16.9629 104.476 17.3969 104.588 17.8729 104.588C18.3489 104.588 18.7829 104.476 19.1749 104.252C19.5762 104.019 19.8936 103.687 20.1269 103.258C20.3602 102.819 20.4769 102.311 20.4769 101.732ZM27.2638 105.708C26.5452 105.708 25.8918 105.545 25.3038 105.218C24.7252 104.891 24.2678 104.429 23.9318 103.832C23.6052 103.225 23.4418 102.525 23.4418 101.732C23.4418 100.948 23.6098 100.257 23.9458 99.66C24.2912 99.0534 24.7578 98.5914 25.3458 98.274C25.9338 97.9474 26.5918 97.784 27.3198 97.784C28.0478 97.784 28.7058 97.9474 29.2938 98.274C29.8818 98.5914 30.3438 99.0487 30.6798 99.646C31.0252 100.243 31.1978 100.939 31.1978 101.732C31.1978 102.525 31.0205 103.225 30.6658 103.832C30.3205 104.429 29.8492 104.891 29.2518 105.218C28.6545 105.545 27.9918 105.708 27.2638 105.708ZM27.2638 104.588C27.7212 104.588 28.1505 104.481 28.5518 104.266C28.9532 104.051 29.2752 103.729 29.5178 103.3C29.7698 102.871 29.8958 102.348 29.8958 101.732C29.8958 101.116 29.7745 100.593 29.5318 100.164C29.2892 99.7347 28.9718 99.4174 28.5798 99.212C28.1878 98.9974 27.7632 98.89 27.3058 98.89C26.8392 98.89 26.4098 98.9974 26.0178 99.212C25.6352 99.4174 25.3272 99.7347 25.0938 100.164C24.8605 100.593 24.7438 101.116 24.7438 101.732C24.7438 102.357 24.8558 102.885 25.0798 103.314C25.3132 103.743 25.6212 104.065 26.0038 104.28C26.3865 104.485 26.8065 104.588 27.2638 104.588ZM34.1469 99.156C34.3709 98.7174 34.6883 98.3767 35.0989 98.134C35.5189 97.8914 36.0276 97.77 36.6249 97.77V99.086H36.2889C34.8609 99.086 34.1469 99.8607 34.1469 101.41V105.582H32.8729V97.91H34.1469V99.156ZM37.6196 101.718C37.6196 100.934 37.7782 100.248 38.0956 99.66C38.4129 99.0627 38.8469 98.6007 39.3976 98.274C39.9576 97.9474 40.5782 97.784 41.2596 97.784C41.9316 97.784 42.5149 97.9287 43.0096 98.218C43.5042 98.5074 43.8729 98.8714 44.1156 99.31V97.91H45.4036V105.582H44.1156V104.154C43.8636 104.602 43.4856 104.975 42.9816 105.274C42.4869 105.563 41.9082 105.708 41.2456 105.708C40.5642 105.708 39.9482 105.54 39.3976 105.204C38.8469 104.868 38.4129 104.397 38.0956 103.79C37.7782 103.183 37.6196 102.493 37.6196 101.718ZM44.1156 101.732C44.1156 101.153 43.9989 100.649 43.7656 100.22C43.5322 99.7907 43.2149 99.464 42.8136 99.24C42.4216 99.0067 41.9876 98.89 41.5116 98.89C41.0356 98.89 40.6016 99.002 40.2096 99.226C39.8176 99.45 39.5049 99.7767 39.2716 100.206C39.0382 100.635 38.9216 101.139 38.9216 101.718C38.9216 102.306 39.0382 102.819 39.2716 103.258C39.5049 103.687 39.8176 104.019 40.2096 104.252C40.6016 104.476 41.0356 104.588 41.5116 104.588C41.9876 104.588 42.4216 104.476 42.8136 104.252C43.2149 104.019 43.5322 103.687 43.7656 103.258C43.9989 102.819 44.1156 102.311 44.1156 101.732ZM51.2945 97.77C52.2278 97.77 52.9838 98.0547 53.5625 98.624C54.1412 99.184 54.4305 99.996 54.4305 101.06V105.582H53.1705V101.242C53.1705 100.477 52.9792 99.8934 52.5965 99.492C52.2138 99.0814 51.6912 98.876 51.0285 98.876C50.3565 98.876 49.8198 99.086 49.4185 99.506C49.0265 99.926 48.8305 100.537 48.8305 101.34V105.582H47.5565V97.91H48.8305V99.002C49.0825 98.61 49.4232 98.3067 49.8525 98.092C50.2912 97.8774 50.7718 97.77 51.2945 97.77ZM56.0356 101.718C56.0356 100.934 56.1943 100.248 56.5116 99.66C56.8289 99.0627 57.2629 98.6007 57.8136 98.274C58.3736 97.9474 58.9989 97.784 59.6896 97.784C60.2869 97.784 60.8423 97.924 61.3556 98.204C61.8689 98.4747 62.2609 98.834 62.5316 99.282V95.222H63.8196V105.582H62.5316V104.14C62.2796 104.597 61.9063 104.975 61.4116 105.274C60.9169 105.563 60.3383 105.708 59.6756 105.708C58.9943 105.708 58.3736 105.54 57.8136 105.204C57.2629 104.868 56.8289 104.397 56.5116 103.79C56.1943 103.183 56.0356 102.493 56.0356 101.718ZM62.5316 101.732C62.5316 101.153 62.4149 100.649 62.1816 100.22C61.9483 99.7907 61.6309 99.464 61.2296 99.24C60.8376 99.0067 60.4036 98.89 59.9276 98.89C59.4516 98.89 59.0176 99.002 58.6256 99.226C58.2336 99.45 57.9209 99.7767 57.6876 100.206C57.4543 100.635 57.3376 101.139 57.3376 101.718C57.3376 102.306 57.4543 102.819 57.6876 103.258C57.9209 103.687 58.2336 104.019 58.6256 104.252C59.0176 104.476 59.4516 104.588 59.9276 104.588C60.4036 104.588 60.8376 104.476 61.2296 104.252C61.6309 104.019 61.9483 103.687 62.1816 103.258C62.4149 102.819 62.5316 102.311 62.5316 101.732Z" fill="#969696"/>
<path d="M184.105 32.7509C179.392 32.7509 179.644 29.1145 173.5 29.1145V41.582H282.5V17.669C274.841 17.669 276.861 9.37424 270.885 9.37424C264.909 9.37424 266.592 1.58203 260.784 1.58203C254.976 1.58203 254.135 25.0857 250.936 25.0857C247.738 25.0857 247.149 17.669 241.593 17.669C236.038 17.669 236.543 4.115 232.251 4.115C227.958 4.115 227.958 17.669 223.581 17.669C219.204 17.669 218.194 15.4753 212.807 15.4753C207.42 15.4753 207.505 26.2348 204.138 26.2348C200.771 26.2348 198.751 21.8418 194.795 21.8418C190.839 21.8418 188.819 32.7509 184.105 32.7509Z" fill="url(#paint0_linear_1079_11097)"/>
<path d="M173.5 29.1145C179.644 29.1145 179.392 32.7509 184.105 32.7509C188.819 32.7509 190.839 21.8418 194.795 21.8418C198.751 21.8418 200.771 26.2348 204.138 26.2348C207.505 26.2348 207.42 15.4753 212.807 15.4753C218.194 15.4753 219.204 17.669 223.581 17.669C227.958 17.669 227.958 4.115 232.251 4.115C236.543 4.115 236.038 17.669 241.593 17.669C247.149 17.669 247.738 25.0857 250.936 25.0857C254.135 25.0857 254.976 1.58203 260.784 1.58203C266.592 1.58203 264.908 9.37424 270.885 9.37424C276.861 9.37424 274.841 17.669 282.5 17.669" stroke="#A38FC7" stroke-width="2"/>
<path d="M159.974 61.582V59.918H163.302V71.582H161.462V61.582H159.974ZM165.264 69.15V67.774L170.64 60.062H172.848V67.566H174.336V69.15H172.848V71.582H171.056V69.15H165.264ZM171.136 61.918L167.36 67.566H171.136V61.918ZM176.503 71.694C176.172 71.694 175.895 71.582 175.671 71.358C175.447 71.134 175.335 70.8567 175.335 70.526C175.335 70.1954 175.447 69.918 175.671 69.694C175.895 69.47 176.172 69.358 176.503 69.358C176.823 69.358 177.095 69.47 177.319 69.694C177.543 69.918 177.655 70.1954 177.655 70.526C177.655 70.8567 177.543 71.134 177.319 71.358C177.095 71.582 176.823 71.694 176.503 71.694ZM181.034 65.486C179.925 64.9314 179.37 64.0567 179.37 62.862C179.37 62.286 179.514 61.758 179.802 61.278C180.09 60.798 180.522 60.4194 181.098 60.142C181.674 59.854 182.378 59.71 183.21 59.71C184.032 59.71 184.73 59.854 185.306 60.142C185.893 60.4194 186.33 60.798 186.618 61.278C186.906 61.758 187.05 62.286 187.05 62.862C187.05 63.4594 186.896 63.9874 186.586 64.446C186.288 64.894 185.888 65.2407 185.386 65.486C185.994 65.71 186.474 66.078 186.826 66.59C187.178 67.0914 187.354 67.6834 187.354 68.366C187.354 69.0594 187.178 69.6727 186.826 70.206C186.474 70.7394 185.984 71.15 185.354 71.438C184.725 71.726 184.01 71.87 183.21 71.87C182.41 71.87 181.696 71.726 181.066 71.438C180.448 71.15 179.962 70.7394 179.61 70.206C179.258 69.6727 179.082 69.0594 179.082 68.366C179.082 67.6727 179.258 67.0754 179.61 66.574C179.962 66.0727 180.437 65.71 181.034 65.486ZM185.306 63.086C185.306 62.4887 185.12 62.03 184.746 61.71C184.373 61.39 183.861 61.23 183.21 61.23C182.57 61.23 182.064 61.39 181.69 61.71C181.317 62.03 181.13 62.494 181.13 63.102C181.13 63.6354 181.322 64.0727 181.706 64.414C182.101 64.7447 182.602 64.91 183.21 64.91C183.818 64.91 184.32 64.7394 184.714 64.398C185.109 64.0567 185.306 63.6194 185.306 63.086ZM183.21 66.286C182.506 66.286 181.93 66.462 181.482 66.814C181.045 67.1554 180.826 67.6514 180.826 68.302C180.826 68.91 181.04 69.406 181.466 69.79C181.893 70.1634 182.474 70.35 183.21 70.35C183.936 70.35 184.506 70.158 184.922 69.774C185.349 69.39 185.562 68.8994 185.562 68.302C185.562 67.662 185.344 67.166 184.906 66.814C184.48 66.462 183.914 66.286 183.21 66.286ZM188.725 69.15V67.774L194.101 60.062H196.309V67.566H197.797V69.15H196.309V71.582H194.517V69.15H188.725ZM194.597 61.918L190.821 67.566H194.597V61.918ZM206.381 61.326L201.933 71.582H200.093L204.589 61.518H198.669V59.966H206.381V61.326ZM215.142 61.486H209.782V64.67C210.006 64.3714 210.337 64.1207 210.774 63.918C211.222 63.7154 211.697 63.614 212.198 63.614C213.094 63.614 213.819 63.806 214.374 64.19C214.939 64.574 215.339 65.0594 215.574 65.646C215.819 66.2327 215.942 66.8514 215.942 67.502C215.942 68.2914 215.787 68.9954 215.478 69.614C215.179 70.222 214.726 70.702 214.118 71.054C213.521 71.406 212.785 71.582 211.91 71.582C210.747 71.582 209.814 71.294 209.11 70.718C208.406 70.142 207.985 69.3794 207.846 68.43H209.622C209.739 68.9314 210.001 69.3314 210.406 69.63C210.811 69.918 211.318 70.062 211.926 70.062C212.683 70.062 213.249 69.8327 213.622 69.374C214.006 68.9154 214.198 68.3074 214.198 67.55C214.198 66.782 214.006 66.1954 213.622 65.79C213.238 65.374 212.673 65.166 211.926 65.166C211.403 65.166 210.961 65.2994 210.598 65.566C210.246 65.822 209.99 66.174 209.83 66.622H208.102V59.886H215.142V61.486ZM223.793 62.622C223.675 62.1314 223.462 61.7634 223.153 61.518C222.843 61.2727 222.411 61.15 221.857 61.15C221.014 61.15 220.385 61.4754 219.969 62.126C219.553 62.766 219.334 63.8327 219.313 65.326C219.59 64.8567 219.995 64.494 220.529 64.238C221.062 63.982 221.638 63.854 222.257 63.854C222.961 63.854 223.579 64.0087 224.113 64.318C224.657 64.6167 225.078 65.054 225.377 65.63C225.686 66.206 225.841 66.894 225.841 67.694C225.841 68.4407 225.691 69.1074 225.393 69.694C225.105 70.2807 224.673 70.7447 224.097 71.086C223.521 71.4167 222.827 71.582 222.017 71.582C220.918 71.582 220.054 71.342 219.425 70.862C218.806 70.3714 218.369 69.6834 218.113 68.798C217.867 67.9127 217.745 66.8087 217.745 65.486C217.745 61.582 219.121 59.63 221.873 59.63C222.939 59.63 223.777 59.918 224.385 60.494C225.003 61.07 225.366 61.7794 225.473 62.622H223.793ZM221.857 65.39C221.206 65.39 220.651 65.5874 220.193 65.982C219.745 66.366 219.521 66.926 219.521 67.662C219.521 68.398 219.729 68.9847 220.145 69.422C220.571 69.8487 221.163 70.062 221.921 70.062C222.593 70.062 223.121 69.854 223.505 69.438C223.899 69.022 224.097 68.4674 224.097 67.774C224.097 67.0487 223.905 66.4727 223.521 66.046C223.147 65.6087 222.593 65.39 221.857 65.39ZM227.466 65.598C227.466 63.7527 227.776 62.3127 228.394 61.278C229.024 60.2327 230.101 59.71 231.626 59.71C233.152 59.71 234.224 60.2327 234.842 61.278C235.472 62.3127 235.786 63.7527 235.786 65.598C235.786 67.4647 235.472 68.926 234.842 69.982C234.224 71.0274 233.152 71.55 231.626 71.55C230.101 71.55 229.024 71.0274 228.394 69.982C227.776 68.926 227.466 67.4647 227.466 65.598ZM233.994 65.598C233.994 64.734 233.936 64.0034 233.818 63.406C233.712 62.8087 233.488 62.3234 233.146 61.95C232.805 61.566 232.298 61.374 231.626 61.374C230.954 61.374 230.448 61.566 230.106 61.95C229.765 62.3234 229.536 62.8087 229.418 63.406C229.312 64.0034 229.258 64.734 229.258 65.598C229.258 66.494 229.312 67.246 229.418 67.854C229.525 68.462 229.749 68.9527 230.09 69.326C230.442 69.6994 230.954 69.886 231.626 69.886C232.298 69.886 232.805 69.6994 233.146 69.326C233.498 68.9527 233.728 68.462 233.834 67.854C233.941 67.246 233.994 66.494 233.994 65.598ZM248.177 69.31H243.521L242.721 71.582H240.817L244.801 60.446H246.913L250.897 71.582H248.977L248.177 69.31ZM247.665 67.822L245.857 62.654L244.033 67.822H247.665ZM254.133 70.11H257.893V71.582H252.309V60.462H254.133V70.11ZM267.146 63.662C266.858 63.1074 266.458 62.6914 265.946 62.414C265.434 62.126 264.842 61.982 264.17 61.982C263.434 61.982 262.778 62.1474 262.202 62.478C261.626 62.8087 261.173 63.278 260.842 63.886C260.522 64.494 260.362 65.198 260.362 65.998C260.362 66.798 260.522 67.5074 260.842 68.126C261.173 68.734 261.626 69.2034 262.202 69.534C262.778 69.8647 263.434 70.03 264.17 70.03C265.162 70.03 265.967 69.7527 266.586 69.198C267.205 68.6434 267.583 67.8914 267.722 66.942H263.546V65.486H269.674V66.91C269.557 67.774 269.247 68.5687 268.746 69.294C268.255 70.0194 267.61 70.6007 266.81 71.038C266.021 71.4647 265.141 71.678 264.17 71.678C263.125 71.678 262.17 71.438 261.306 70.958C260.442 70.4674 259.754 69.79 259.242 68.926C258.741 68.062 258.49 67.086 258.49 65.998C258.49 64.91 258.741 63.934 259.242 63.07C259.754 62.206 260.442 61.534 261.306 61.054C262.181 60.5634 263.135 60.318 264.17 60.318C265.354 60.318 266.405 60.6114 267.322 61.198C268.25 61.774 268.922 62.5954 269.338 63.662H267.146ZM276.225 71.694C275.19 71.694 274.236 71.454 273.361 70.974C272.497 70.4834 271.809 69.806 271.297 68.942C270.796 68.0674 270.545 67.086 270.545 65.998C270.545 64.91 270.796 63.934 271.297 63.07C271.809 62.206 272.497 61.534 273.361 61.054C274.236 60.5634 275.19 60.318 276.225 60.318C277.27 60.318 278.225 60.5634 279.089 61.054C279.964 61.534 280.652 62.206 281.153 63.07C281.654 63.934 281.905 64.91 281.905 65.998C281.905 67.086 281.654 68.0674 281.153 68.942C280.652 69.806 279.964 70.4834 279.089 70.974C278.225 71.454 277.27 71.694 276.225 71.694ZM276.225 70.11C276.961 70.11 277.617 69.9447 278.193 69.614C278.769 69.2727 279.217 68.7927 279.537 68.174C279.868 67.5447 280.033 66.8194 280.033 65.998C280.033 65.1767 279.868 64.4567 279.537 63.838C279.217 63.2194 278.769 62.7447 278.193 62.414C277.617 62.0834 276.961 61.918 276.225 61.918C275.489 61.918 274.833 62.0834 274.257 62.414C273.681 62.7447 273.228 63.2194 272.897 63.838C272.577 64.4567 272.417 65.1767 272.417 65.998C272.417 66.8194 272.577 67.5447 272.897 68.174C273.228 68.7927 273.681 69.2727 274.257 69.614C274.833 69.9447 275.489 70.11 276.225 70.11Z" fill="#1A1B2F"/>
<path d="M235.124 95.622V94.46H237.756V104.582H236.468V95.622H235.124ZM249.333 94.824V95.86H246.673V104.582H245.399V95.86H242.725V94.824H249.333ZM253.967 104.708C253.248 104.708 252.595 104.545 252.007 104.218C251.428 103.891 250.971 103.429 250.635 102.832C250.308 102.225 250.145 101.525 250.145 100.732C250.145 99.948 250.313 99.2574 250.649 98.66C250.994 98.0534 251.461 97.5914 252.049 97.274C252.637 96.9474 253.295 96.784 254.023 96.784C254.751 96.784 255.409 96.9474 255.997 97.274C256.585 97.5914 257.047 98.0487 257.383 98.646C257.728 99.2434 257.901 99.9387 257.901 100.732C257.901 101.525 257.724 102.225 257.369 102.832C257.024 103.429 256.552 103.891 255.955 104.218C255.358 104.545 254.695 104.708 253.967 104.708ZM253.967 103.588C254.424 103.588 254.854 103.481 255.255 103.266C255.656 103.051 255.978 102.729 256.221 102.3C256.473 101.871 256.599 101.348 256.599 100.732C256.599 100.116 256.478 99.5934 256.235 99.164C255.992 98.7347 255.675 98.4174 255.283 98.212C254.891 97.9974 254.466 97.89 254.009 97.89C253.542 97.89 253.113 97.9974 252.721 98.212C252.338 98.4174 252.03 98.7347 251.797 99.164C251.564 99.5934 251.447 100.116 251.447 100.732C251.447 101.357 251.559 101.885 251.783 102.314C252.016 102.743 252.324 103.065 252.707 103.28C253.09 103.485 253.51 103.588 253.967 103.588ZM263.58 104.582L260.57 101.194V104.582H259.296V94.222H260.57V100.312L263.524 96.91H265.302L261.69 100.732L265.316 104.582H263.58ZM273.221 100.452C273.221 100.695 273.207 100.951 273.179 101.222H267.047C267.094 101.978 267.351 102.571 267.817 103C268.293 103.42 268.867 103.63 269.539 103.63C270.09 103.63 270.547 103.504 270.911 103.252C271.285 102.991 271.546 102.645 271.695 102.216H273.067C272.862 102.953 272.451 103.555 271.835 104.022C271.219 104.479 270.454 104.708 269.539 104.708C268.811 104.708 268.158 104.545 267.579 104.218C267.01 103.891 266.562 103.429 266.235 102.832C265.909 102.225 265.745 101.525 265.745 100.732C265.745 99.9387 265.904 99.2434 266.221 98.646C266.539 98.0487 266.982 97.5914 267.551 97.274C268.13 96.9474 268.793 96.784 269.539 96.784C270.267 96.784 270.911 96.9427 271.471 97.26C272.031 97.5774 272.461 98.016 272.759 98.576C273.067 99.1267 273.221 99.752 273.221 100.452ZM271.905 100.186C271.905 99.7007 271.798 99.2854 271.583 98.94C271.369 98.5854 271.075 98.3194 270.701 98.142C270.337 97.9554 269.931 97.862 269.483 97.862C268.839 97.862 268.289 98.0674 267.831 98.478C267.383 98.8887 267.127 99.458 267.061 100.186H271.905ZM278.361 96.77C279.294 96.77 280.05 97.0547 280.629 97.624C281.208 98.184 281.497 98.996 281.497 100.06V104.582H280.237V100.242C280.237 99.4767 280.046 98.8934 279.663 98.492C279.28 98.0814 278.758 97.876 278.095 97.876C277.423 97.876 276.886 98.086 276.485 98.506C276.093 98.926 275.897 99.5374 275.897 100.34V104.582H274.623V96.91H275.897V98.002C276.149 97.61 276.49 97.3067 276.919 97.092C277.358 96.8774 277.838 96.77 278.361 96.77Z" fill="#969696"/>
<defs>
<linearGradient id="paint0_linear_1079_11097" x1="228" y1="1.58203" x2="228" y2="41.582" gradientUnits="userSpaceOnUse">
<stop stop-color="#A38FC7" stop-opacity="0.2"/>
<stop offset="1" stop-color="#A38FC7" stop-opacity="0.02"/>
</linearGradient>
</defs>
</svg>
