<svg width="176" height="137" viewBox="0 0 176 137" fill="none" xmlns="http://www.w3.org/2000/svg">
<g filter="url(#filter0_bd_416_32455)">
<rect x="41" y="21" width="94" height="55" rx="12" fill="#0F172A" fill-opacity="0.7"/>
<rect x="40.5" y="20.5" width="95" height="56" rx="12.5" stroke="#0F172A" stroke-opacity="0.2"/>
<path d="M52.9403 34.6719V33.7273H58.5689V34.6719H56.2997V41H55.206V34.6719H52.9403ZM61.234 41.1101C60.7227 41.1101 60.2764 40.9929 59.8952 40.7585C59.5141 40.5241 59.2182 40.1963 59.0075 39.7749C58.7968 39.3535 58.6914 38.861 58.6914 38.2976C58.6914 37.7318 58.7968 37.237 59.0075 36.8132C59.2182 36.3894 59.5141 36.0604 59.8952 35.826C60.2764 35.5916 60.7227 35.4744 61.234 35.4744C61.7454 35.4744 62.1916 35.5916 62.5728 35.826C62.954 36.0604 63.2499 36.3894 63.4606 36.8132C63.6713 37.237 63.7766 37.7318 63.7766 38.2976C63.7766 38.861 63.6713 39.3535 63.4606 39.7749C63.2499 40.1963 62.954 40.5241 62.5728 40.7585C62.1916 40.9929 61.7454 41.1101 61.234 41.1101ZM61.2376 40.2188C61.569 40.2188 61.8436 40.1312 62.0614 39.956C62.2792 39.7808 62.4402 39.5476 62.5444 39.2564C62.6509 38.9652 62.7042 38.6444 62.7042 38.294C62.7042 37.946 62.6509 37.6264 62.5444 37.3352C62.4402 37.0417 62.2792 36.8061 62.0614 36.6286C61.8436 36.451 61.569 36.3622 61.2376 36.3622C60.9038 36.3622 60.6268 36.451 60.4066 36.6286C60.1888 36.8061 60.0266 37.0417 59.9201 37.3352C59.8159 37.6264 59.7638 37.946 59.7638 38.294C59.7638 38.6444 59.8159 38.9652 59.9201 39.2564C60.0266 39.5476 60.1888 39.7808 60.4066 39.956C60.6268 40.1312 60.9038 40.2188 61.2376 40.2188ZM65.9384 39.1499L65.9313 37.8537H66.1159L68.2892 35.5455H69.5605L67.0819 38.1733H66.915L65.9384 39.1499ZM64.9618 41V33.7273H66.0236V41H64.9618ZM68.4064 41L66.4533 38.4077L67.1848 37.6655L69.7097 41H68.4064ZM72.6545 41.1101C72.1171 41.1101 71.6542 40.9953 71.266 40.7656C70.8801 40.5336 70.5818 40.2081 70.3711 39.7891C70.1628 39.3677 70.0586 38.8741 70.0586 38.3082C70.0586 37.7495 70.1628 37.2571 70.3711 36.831C70.5818 36.4048 70.8754 36.0722 71.2518 35.8331C71.6306 35.594 72.0733 35.4744 72.5799 35.4744C72.8877 35.4744 73.186 35.5253 73.4748 35.6271C73.7636 35.7289 74.0228 35.8887 74.2525 36.1065C74.4821 36.3243 74.6632 36.6072 74.7958 36.9553C74.9284 37.3009 74.9947 37.7211 74.9947 38.2159V38.5923H70.6587V37.7969H73.9542C73.9542 37.5175 73.8974 37.2701 73.7837 37.0547C73.6701 36.8369 73.5103 36.6652 73.3043 36.5398C73.1007 36.4143 72.8616 36.3516 72.587 36.3516C72.2887 36.3516 72.0283 36.425 71.8058 36.5717C71.5856 36.7161 71.4151 36.9055 71.2944 37.1399C71.176 37.3719 71.1168 37.6241 71.1168 37.8963V38.5178C71.1168 38.8823 71.1808 39.1925 71.3086 39.4482C71.4388 39.7038 71.6199 39.8991 71.8519 40.0341C72.0839 40.1667 72.355 40.233 72.6651 40.233C72.8664 40.233 73.0498 40.2045 73.2156 40.1477C73.3813 40.0885 73.5245 40.0009 73.6452 39.8849C73.766 39.7689 73.8583 39.6257 73.9222 39.4553L74.9272 39.6364C74.8467 39.9323 74.7023 40.1915 74.494 40.4141C74.288 40.6342 74.0288 40.8059 73.7163 40.929C73.4061 41.0497 73.0522 41.1101 72.6545 41.1101ZM77.2346 37.7614V41H76.1728V35.5455H77.1919V36.4332H77.2594C77.3849 36.1444 77.5814 35.9124 77.8489 35.7372C78.1188 35.562 78.4585 35.4744 78.8681 35.4744C79.2398 35.4744 79.5653 35.5526 79.8446 35.7088C80.124 35.8627 80.3406 36.0923 80.4945 36.3977C80.6484 36.7031 80.7253 37.0807 80.7253 37.5305V41H79.6635V37.6584C79.6635 37.263 79.5605 36.9541 79.3546 36.7315C79.1486 36.5066 78.8657 36.3942 78.5059 36.3942C78.2596 36.3942 78.0407 36.4474 77.8489 36.554C77.6595 36.6605 77.5092 36.8168 77.3979 37.0227C77.289 37.2263 77.2346 37.4725 77.2346 37.7614ZM86.2367 36.8771L85.2743 37.0476C85.2341 36.9245 85.1702 36.8073 85.0826 36.696C84.9973 36.5848 84.8813 36.4936 84.7346 36.4226C84.5878 36.3516 84.4043 36.3161 84.1841 36.3161C83.8835 36.3161 83.6325 36.3835 83.4313 36.5185C83.2301 36.651 83.1294 36.8227 83.1294 37.0334C83.1294 37.2157 83.1969 37.3625 83.3319 37.4737C83.4668 37.585 83.6846 37.6761 83.9853 37.7472L84.8517 37.946C85.3536 38.062 85.7277 38.2408 85.9739 38.4822C86.2201 38.7237 86.3432 39.0374 86.3432 39.4233C86.3432 39.75 86.2485 40.0412 86.0591 40.2969C85.8721 40.5502 85.6105 40.7491 85.2743 40.8935C84.9405 41.0379 84.5534 41.1101 84.1131 41.1101C83.5023 41.1101 83.004 40.9799 82.6181 40.7195C82.2322 40.4567 81.9954 40.0838 81.9078 39.6009L82.9341 39.4446C82.998 39.7121 83.1294 39.9145 83.3283 40.0518C83.5272 40.1868 83.7864 40.2543 84.106 40.2543C84.454 40.2543 84.7322 40.1821 84.9405 40.0376C85.1489 39.8909 85.253 39.7121 85.253 39.5014C85.253 39.331 85.1891 39.1877 85.0613 39.0717C84.9358 38.9557 84.7428 38.8681 84.4824 38.8089L83.5591 38.6065C83.0501 38.4905 82.6737 38.3059 82.4299 38.0526C82.1884 37.7992 82.0676 37.4785 82.0676 37.0902C82.0676 36.7682 82.1576 36.4865 82.3375 36.245C82.5175 36.0036 82.766 35.8153 83.0833 35.6804C83.4005 35.5431 83.7639 35.4744 84.1735 35.4744C84.763 35.4744 85.227 35.6023 85.5655 35.858C85.9041 36.1113 86.1278 36.451 86.2367 36.8771ZM90.2424 41V33.7273H94.802V34.6719H91.3397V36.8878H94.5641V37.8288H91.3397V40.0554H94.8446V41H90.2424ZM97.7699 41.1207C97.4242 41.1207 97.1117 41.0568 96.8324 40.929C96.553 40.7988 96.3317 40.6106 96.1683 40.3643C96.0073 40.1181 95.9268 39.8163 95.9268 39.4588C95.9268 39.151 95.986 38.8977 96.1044 38.6989C96.2228 38.5 96.3826 38.3426 96.5838 38.2266C96.785 38.1106 97.0099 38.023 97.2585 37.9638C97.5071 37.9046 97.7604 37.8596 98.0185 37.8288C98.3452 37.791 98.6103 37.7602 98.8139 37.7365C99.0175 37.7105 99.1655 37.669 99.2578 37.6122C99.3501 37.5554 99.3963 37.4631 99.3963 37.3352V37.3104C99.3963 37.0002 99.3087 36.7599 99.1335 36.5895C98.9607 36.419 98.7027 36.3338 98.3594 36.3338C98.0019 36.3338 97.7202 36.4131 97.5142 36.5717C97.3106 36.728 97.1697 36.902 97.0916 37.0938L96.0938 36.8665C96.2121 36.535 96.3849 36.2675 96.6122 36.0639C96.8419 35.858 97.1058 35.7088 97.4041 35.6165C97.7024 35.5218 98.0161 35.4744 98.3452 35.4744C98.563 35.4744 98.7938 35.5005 99.0376 35.5526C99.2839 35.6023 99.5135 35.6946 99.7266 35.8295C99.942 35.9645 100.118 36.1574 100.256 36.4084C100.393 36.657 100.462 36.9801 100.462 37.3778V41H99.4247V40.2543H99.3821C99.3134 40.3916 99.2105 40.5265 99.0732 40.6591C98.9358 40.7917 98.7595 40.9018 98.544 40.9893C98.3286 41.0769 98.0705 41.1207 97.7699 41.1207ZM98.0007 40.2685C98.2943 40.2685 98.5452 40.2105 98.7536 40.0945C98.9643 39.9785 99.1241 39.8269 99.233 39.6399C99.3442 39.4505 99.3999 39.2481 99.3999 39.0327V38.3295C99.362 38.3674 99.2886 38.4029 99.1797 38.4361C99.0732 38.4669 98.9512 38.4941 98.8139 38.5178C98.6766 38.5391 98.5429 38.5592 98.4126 38.5781C98.2824 38.5947 98.1735 38.6089 98.0859 38.6207C97.88 38.6468 97.6918 38.6906 97.5213 38.7521C97.3532 38.8137 97.2183 38.9025 97.1165 39.0185C97.017 39.1321 96.9673 39.2836 96.9673 39.473C96.9673 39.7358 97.0644 39.9347 97.2585 40.0696C97.4527 40.2022 97.7 40.2685 98.0007 40.2685ZM101.876 41V35.5455H102.902V36.4119H102.959C103.058 36.1184 103.234 35.8875 103.485 35.7195C103.738 35.549 104.024 35.4638 104.344 35.4638C104.41 35.4638 104.488 35.4661 104.578 35.4709C104.671 35.4756 104.743 35.4815 104.795 35.4886V36.5043C104.752 36.4924 104.677 36.4794 104.568 36.4652C104.459 36.4486 104.35 36.4403 104.241 36.4403C103.99 36.4403 103.766 36.4936 103.57 36.6001C103.376 36.7043 103.222 36.8499 103.108 37.0369C102.994 37.2216 102.938 37.4323 102.938 37.669V41H101.876ZM106.776 37.7614V41H105.714V35.5455H106.733V36.4332H106.8C106.926 36.1444 107.122 35.9124 107.39 35.7372C107.66 35.562 108 35.4744 108.409 35.4744C108.781 35.4744 109.106 35.5526 109.386 35.7088C109.665 35.8627 109.882 36.0923 110.036 36.3977C110.189 36.7031 110.266 37.0807 110.266 37.5305V41H109.205V37.6584C109.205 37.263 109.102 36.9541 108.896 36.7315C108.69 36.5066 108.407 36.3942 108.047 36.3942C107.801 36.3942 107.582 36.4474 107.39 36.554C107.201 36.6605 107.05 36.8168 106.939 37.0227C106.83 37.2263 106.776 37.4725 106.776 37.7614ZM114.041 41.1101C113.504 41.1101 113.041 40.9953 112.653 40.7656C112.267 40.5336 111.969 40.2081 111.758 39.7891C111.549 39.3677 111.445 38.8741 111.445 38.3082C111.445 37.7495 111.549 37.2571 111.758 36.831C111.969 36.4048 112.262 36.0722 112.638 35.8331C113.017 35.594 113.46 35.4744 113.967 35.4744C114.274 35.4744 114.573 35.5253 114.862 35.6271C115.15 35.7289 115.41 35.8887 115.639 36.1065C115.869 36.3243 116.05 36.6072 116.183 36.9553C116.315 37.3009 116.381 37.7211 116.381 38.2159V38.5923H112.045V37.7969H115.341C115.341 37.5175 115.284 37.2701 115.17 37.0547C115.057 36.8369 114.897 36.6652 114.691 36.5398C114.487 36.4143 114.248 36.3516 113.974 36.3516C113.675 36.3516 113.415 36.425 113.192 36.5717C112.972 36.7161 112.802 36.9055 112.681 37.1399C112.563 37.3719 112.504 37.6241 112.504 37.8963V38.5178C112.504 38.8823 112.567 39.1925 112.695 39.4482C112.826 39.7038 113.007 39.8991 113.239 40.0341C113.471 40.1667 113.742 40.233 114.052 40.233C114.253 40.233 114.437 40.2045 114.602 40.1477C114.768 40.0885 114.911 40.0009 115.032 39.8849C115.153 39.7689 115.245 39.6257 115.309 39.4553L116.314 39.6364C116.233 39.9323 116.089 40.1915 115.881 40.4141C115.675 40.6342 115.415 40.8059 115.103 40.929C114.793 41.0497 114.439 41.1101 114.041 41.1101ZM119.601 41.1065C119.161 41.1065 118.768 40.9941 118.422 40.7692C118.079 40.5419 117.809 40.2187 117.613 39.7997C117.419 39.3783 117.322 38.8729 117.322 38.2834C117.322 37.6939 117.42 37.1896 117.616 36.7706C117.815 36.3516 118.087 36.0308 118.433 35.8082C118.779 35.5857 119.171 35.4744 119.608 35.4744C119.947 35.4744 120.219 35.5312 120.425 35.6449C120.634 35.7562 120.795 35.8864 120.908 36.0355C121.024 36.1847 121.114 36.3161 121.178 36.4297H121.242V33.7273H122.304V41H121.267V40.1513H121.178C121.114 40.2673 121.022 40.3999 120.901 40.549C120.783 40.6982 120.619 40.8284 120.411 40.9396C120.203 41.0509 119.933 41.1065 119.601 41.1065ZM119.836 40.201C120.141 40.201 120.399 40.1205 120.61 39.9595C120.823 39.7962 120.984 39.5701 121.093 39.2812C121.204 38.9924 121.26 38.6562 121.26 38.2727C121.26 37.8939 121.205 37.5625 121.096 37.2784C120.988 36.9943 120.828 36.773 120.617 36.6143C120.406 36.4557 120.146 36.3764 119.836 36.3764C119.516 36.3764 119.25 36.4593 119.037 36.625C118.824 36.7907 118.663 37.0168 118.554 37.3033C118.447 37.5897 118.394 37.9129 118.394 38.2727C118.394 38.6373 118.448 38.9652 118.557 39.2564C118.666 39.5476 118.827 39.7784 119.04 39.9489C119.256 40.117 119.521 40.201 119.836 40.201Z" fill="#E2E8F0"/>
<path d="M74.8949 63.1193C74.2926 63.1193 73.7557 63.0085 73.2841 62.7869C72.8153 62.5653 72.4432 62.2599 72.1676 61.8707C71.892 61.4815 71.7486 61.0355 71.7372 60.5327H73.527C73.5469 60.8707 73.6889 61.1449 73.9531 61.3551C74.2173 61.5653 74.5312 61.6705 74.8949 61.6705C75.1847 61.6705 75.4403 61.6065 75.6619 61.4787C75.8864 61.348 76.0611 61.1676 76.1861 60.9375C76.3139 60.7045 76.3778 60.4375 76.3778 60.1364C76.3778 59.8295 76.3125 59.5597 76.1818 59.3267C76.054 59.0937 75.8764 58.9119 75.6491 58.7812C75.4219 58.6506 75.1619 58.5838 74.8693 58.581C74.6136 58.581 74.3651 58.6335 74.1236 58.7386C73.8849 58.8437 73.6989 58.9872 73.5653 59.169L71.9247 58.875L72.3381 54.2727H77.6733V55.7812H73.8594L73.6335 57.9673H73.6847C73.8381 57.7514 74.0696 57.5724 74.3793 57.4304C74.6889 57.2884 75.0355 57.2173 75.419 57.2173C75.9446 57.2173 76.4134 57.3409 76.8253 57.5881C77.2372 57.8352 77.5625 58.1747 77.8011 58.6065C78.0398 59.0355 78.1577 59.5298 78.1548 60.0895C78.1577 60.6776 78.0213 61.2003 77.7457 61.6577C77.473 62.1122 77.0909 62.4702 76.5994 62.7315C76.1108 62.9901 75.5426 63.1193 74.8949 63.1193ZM81.1506 61.8068L81.1037 62.2756C81.0668 62.6506 80.9957 63.0241 80.8906 63.3963C80.7884 63.7713 80.6804 64.1108 80.5668 64.4148C80.456 64.7188 80.3665 64.9574 80.2983 65.1307H79.1222C79.1648 64.9631 79.223 64.7287 79.2969 64.4276C79.3707 64.1293 79.4403 63.794 79.5057 63.4219C79.571 63.0497 79.6122 62.6705 79.6293 62.2841L79.6506 61.8068H81.1506ZM82.7933 63V61.6705L85.8999 58.794C86.1641 58.5384 86.3857 58.3082 86.5646 58.1037C86.7464 57.8991 86.8842 57.6989 86.978 57.5028C87.0717 57.304 87.1186 57.0895 87.1186 56.8594C87.1186 56.6037 87.0604 56.3835 86.9439 56.1989C86.8274 56.0114 86.6683 55.8679 86.4666 55.7685C86.2649 55.6662 86.0362 55.6151 85.7805 55.6151C85.5135 55.6151 85.2805 55.669 85.0817 55.777C84.8828 55.8849 84.7294 56.0398 84.6214 56.2415C84.5135 56.4432 84.4595 56.6832 84.4595 56.9616H82.7081C82.7081 56.3906 82.8374 55.8949 83.0959 55.4744C83.3544 55.054 83.7166 54.7287 84.1825 54.4986C84.6484 54.2685 85.1854 54.1534 85.7933 54.1534C86.4183 54.1534 86.9624 54.2642 87.4254 54.4858C87.8913 54.7045 88.2536 55.0085 88.5121 55.3977C88.7706 55.7869 88.8999 56.233 88.8999 56.7358C88.8999 57.0653 88.8345 57.3906 88.7038 57.7116C88.576 58.0327 88.3473 58.3892 88.0178 58.7812C87.6882 59.1705 87.2237 59.6378 86.6243 60.1832L85.3501 61.4318V61.4915H89.0149V63H82.7933ZM90.6971 63L94.315 55.8409V55.7812H90.1005V54.2727H96.2241V55.8026L92.6019 63H90.6971ZM100.559 63.1193C99.9567 63.1193 99.4197 63.0085 98.9482 62.7869C98.4794 62.5653 98.1072 62.2599 97.8317 61.8707C97.5561 61.4815 97.4126 61.0355 97.4013 60.5327H99.1911C99.2109 60.8707 99.353 61.1449 99.6172 61.3551C99.8814 61.5653 100.195 61.6705 100.559 61.6705C100.849 61.6705 101.104 61.6065 101.326 61.4787C101.55 61.348 101.725 61.1676 101.85 60.9375C101.978 60.7045 102.042 60.4375 102.042 60.1364C102.042 59.8295 101.977 59.5597 101.846 59.3267C101.718 59.0937 101.54 58.9119 101.313 58.7812C101.086 58.6506 100.826 58.5838 100.533 58.581C100.278 58.581 100.029 58.6335 99.7876 58.7386C99.549 58.8437 99.3629 58.9872 99.2294 59.169L97.5888 58.875L98.0021 54.2727H103.337V55.7812H99.5234L99.2976 57.9673H99.3487C99.5021 57.7514 99.7337 57.5724 100.043 57.4304C100.353 57.2884 100.7 57.2173 101.083 57.2173C101.609 57.2173 102.077 57.3409 102.489 57.5881C102.901 57.8352 103.227 58.1747 103.465 58.6065C103.704 59.0355 103.822 59.5298 103.819 60.0895C103.822 60.6776 103.685 61.2003 103.41 61.6577C103.137 62.1122 102.755 62.4702 102.263 62.7315C101.775 62.9901 101.207 63.1193 100.559 63.1193Z" fill="white"/>
</g>
<defs>
<filter id="filter0_bd_416_32455" x="0" y="0" width="176" height="137" filterUnits="userSpaceOnUse" color-interpolation-filters="sRGB">
<feFlood flood-opacity="0" result="BackgroundImageFix"/>
<feGaussianBlur in="BackgroundImageFix" stdDeviation="4"/>
<feComposite in2="SourceAlpha" operator="in" result="effect1_backgroundBlur_416_32455"/>
<feColorMatrix in="SourceAlpha" type="matrix" values="0 0 0 0 0 0 0 0 0 0 0 0 0 0 0 0 0 0 127 0" result="hardAlpha"/>
<feOffset dy="20"/>
<feGaussianBlur stdDeviation="20"/>
<feColorMatrix type="matrix" values="0 0 0 0 0.0588235 0 0 0 0 0.0901962 0 0 0 0 0.164706 0 0 0 0.15 0"/>
<feBlend mode="normal" in2="effect1_backgroundBlur_416_32455" result="effect2_dropShadow_416_32455"/>
<feBlend mode="normal" in="SourceGraphic" in2="effect2_dropShadow_416_32455" result="shape"/>
</filter>
</defs>
</svg>
