<svg width="646" height="198" viewBox="0 0 646 198" fill="none" xmlns="http://www.w3.org/2000/svg">
<path d="M1.51282 89.4684C13.8552 89.4684 17.9693 67 29.8546 67C44.696 67 91.279 106 106.652 106C119.908 106 126.151 84.7526 145.507 84.7526C170.578 84.7526 177.506 20.5 193.048 20.5C210.419 20.5 220.933 124 237.846 124C254.76 124 266.952 55 283.559 55C298.749 55 314.186 88.5 326.529 88.5C347.099 88.5 396.926 1.5 409.725 1.5C427.845 1.5 429.839 55 458.638 55C483.322 55 495.593 88.5 508.921 88.5C524.007 88.5 566.062 32 581.538 32C599.309 32 618.141 65 644.688 65V197.5L1.51282 197.5V89.4684Z" fill="url(#paint0_linear_416_32446)"/>
<path d="M644.688 65C618.141 65 599.309 32 581.538 32C566.062 32 524.007 88.5 508.921 88.5C495.593 88.5 483.322 55 458.638 55C429.839 55 427.845 1.5 409.725 1.5C396.926 1.5 347.099 88.5 326.529 88.5C314.186 88.5 298.749 55 283.559 55C266.952 55 254.76 124 237.846 124C220.933 124 210.419 20.5 193.048 20.5C177.506 20.5 170.578 84.7526 145.507 84.7526C126.151 84.7526 119.908 106 106.652 106C91.279 106 44.696 67 29.8546 67C17.9693 67 13.8552 89.4684 1.51282 89.4684" stroke="#4C7317" stroke-width="2" stroke-linecap="round"/>
<defs>
<linearGradient id="paint0_linear_416_32446" x1="323.1" y1="197.5" x2="323.1" y2="-163.5" gradientUnits="userSpaceOnUse">
<stop stop-color="#A2C41A" stop-opacity="0"/>
<stop offset="1" stop-color="#A2C41A" stop-opacity="0.12"/>
</linearGradient>
</defs>
</svg>
