<svg width="329" height="212" viewBox="0 0 329 212" fill="none" xmlns="http://www.w3.org/2000/svg">
<path opacity="0.7" d="M203.52 182.976C203.92 178.451 206.298 174.215 208.751 170.191C214.065 161.478 220.072 152.968 228.065 146.055C230.062 144.203 232.389 142.693 234.94 141.592C236.216 141.048 237.594 140.747 238.995 140.708C240.396 140.669 241.792 140.893 243.1 141.365C246.57 142.822 248.214 146.298 250.383 149.116C250.98 150.043 251.899 150.748 252.986 151.112C255.648 151.77 257.784 149.014 258.96 146.72C259.928 144.815 260.898 142.913 261.872 141.013C263.073 138.664 264.792 135.94 267.645 135.682C270.065 135.462 272.192 137.326 272.651 139.447C273.11 141.569 272.318 143.8 271.149 145.71C269.981 147.621 268.455 149.406 267.328 151.371C267.018 151.811 266.863 152.331 266.886 152.858C267.061 154.087 268.83 154.463 270.223 154.33C273.33 154.004 276.185 152.572 278.199 150.329C280.11 148.169 281.003 145.468 282.304 142.978C283.606 140.489 285.6 138.007 288.528 137.247C291.457 136.488 294.369 137.451 296.788 138.813C300.309 140.794 301.794 147.683 296.112 150.478C292.975 152.044 289.796 153.492 286.634 155.003C284.59 155.974 282.179 157.704 282.947 159.622C283.564 161.188 285.842 161.462 287.686 161.298C294.936 160.656 301.285 156.6 308.177 154.338C318.806 150.831 322.944 166.762 311.13 172.117C308.002 173.514 304.582 174.239 301.118 174.239C297.138 174.239 293.142 173.307 289.229 174.067C287.79 174.271 286.463 174.918 285.458 175.906C284.985 176.386 284.707 177.008 284.675 177.661C284.643 178.315 284.858 178.958 285.283 179.476C286.251 180.439 287.928 180.408 289.379 180.604C293.618 181.183 296.888 184.33 298.482 187.892C299.399 189.959 299.775 192.488 298.323 194.359C296.571 196.614 292.892 196.904 290.097 195.98C287.302 195.056 285.041 193.208 282.488 191.846C279.935 190.484 276.689 189.607 273.936 190.789C273.474 190.951 273.081 191.25 272.818 191.643C272.656 191.981 272.598 192.355 272.651 192.723C272.893 195.314 275.087 197.295 276.648 199.456C278.208 201.617 278.992 204.834 276.814 206.611C275.021 208.06 272.159 207.653 270.223 206.478C268.288 205.304 266.886 203.542 265.117 202.172C259.736 198.031 250.642 198.501 245.519 203.182C244.076 204.498 242.933 206.087 241.348 207.23C238.644 209.156 234.94 209.579 231.628 209.007C228.316 208.435 225.304 206.987 222.45 205.468C215.008 201.554 207.307 196.128 206.423 188.339" fill="url(#paint0_linear_416_32542)" fill-opacity="0.5"/>
<g opacity="0.4">
<path d="M306.716 158.666L305.84 159.339C306.149 159.135 306.457 158.932 306.783 158.76C306.849 158.72 306.774 158.626 306.716 158.666Z" fill="#444472"/>
<path d="M303.246 161.54C304.08 160.757 304.915 160.068 305.841 159.355C304.888 159.986 304.017 160.719 303.246 161.54Z" fill="#444472"/>
<path opacity="0.47" d="M267.012 198.093C253.663 195.04 239.964 191.595 229.968 182.788C238.153 181.872 246.321 180.713 254.422 179.241C265.002 183.821 276.59 185.927 288.104 188.033C288.125 188.034 288.146 188.028 288.163 188.016C288.18 188.004 288.192 187.986 288.197 187.967C288.202 187.947 288.199 187.927 288.19 187.909C288.181 187.891 288.165 187.877 288.146 187.869C277.241 185.52 266.495 182.905 256.233 178.912C268.578 176.634 280.72 173.472 292.551 169.455C292.56 169.497 292.584 169.536 292.618 169.564C292.653 169.592 292.697 169.609 292.743 169.612C298.805 170.156 304.921 169.682 310.806 168.21C310.864 168.21 310.806 168.116 310.806 168.124C305.118 169.414 299.235 169.766 293.418 169.165C295.387 168.476 297.348 167.756 299.259 167.02C299.367 167.114 299.542 167.13 299.609 166.981C299.676 166.832 299.651 166.903 299.668 166.872C302.938 165.627 306.192 164.311 309.396 162.894C309.446 162.894 309.396 162.793 309.396 162.816C306.231 164.163 303.044 165.421 299.834 166.59C300.699 164.747 301.858 163.039 303.272 161.524C301.602 163.041 300.235 164.825 299.234 166.793C288.823 170.533 278.135 173.553 267.254 175.828C269.473 164.703 279.61 157.508 286.919 148.896C286.919 148.857 286.919 148.802 286.852 148.842C279.302 157.336 268.622 164.499 266.42 175.734C266.403 175.824 266.424 175.916 266.478 175.992C262.524 176.822 258.544 177.558 254.548 178.231C254.454 178.195 254.351 178.185 254.252 178.203C254.152 178.222 254.061 178.267 253.989 178.333C250.585 178.902 247.164 179.424 243.726 179.899C246.847 168.703 252.12 158.401 260.413 149.366C260.413 149.327 260.413 149.272 260.338 149.311C251.686 158.103 245.453 168.492 243.017 179.961C235.959 180.924 228.834 181.692 221.759 182.31C223.661 170.747 227.165 159.019 238.078 151.472C238.128 151.433 238.078 151.362 238.028 151.402C226.84 158.847 223.06 170.7 220.908 182.381C218.705 182.576 216.494 182.756 214.292 182.929C213.391 182.999 213.457 184.259 214.292 184.189C219.192 183.813 224.089 183.359 228.984 182.827C239.088 192.221 253.037 195.353 266.962 198.187C266.966 198.205 266.975 198.221 266.989 198.233C267.003 198.246 267.021 198.254 267.04 198.256C267.059 198.258 267.078 198.255 267.095 198.247C267.112 198.238 267.126 198.225 267.134 198.209C267.143 198.193 267.146 198.175 267.143 198.157C267.14 198.139 267.131 198.123 267.118 198.11C267.104 198.097 267.087 198.089 267.068 198.086C267.049 198.083 267.029 198.085 267.012 198.093Z" fill="#444472"/>
</g>
<path d="M200.469 179.796C200.469 175.521 203.456 171.787 204.707 167.645C215.553 131.687 233.032 155.174 230.571 134.521C228.552 117.65 254.299 109.273 256.485 116.609C258.22 122.433 266.43 125.557 270.343 120.586C275.257 114.323 273.213 105.452 277.593 98.8919C278.956 96.9501 280.765 95.3197 282.887 94.1206C285.01 92.9215 287.392 92.1844 289.858 91.9633C294.397 91.5406 299.102 92.8167 303.474 91.6658C311.267 89.6225 315.154 80.7054 323.222 79.6641C323.905 79.5425 324.609 79.5883 325.266 79.7972C326.568 80.2904 327.052 81.6448 327.394 82.8427C328.303 86.0212 329.146 89.6225 327.119 92.3782C325.291 94.8522 321.62 95.9169 319.852 98.4221C318.083 100.927 318.709 104.2 319.852 106.987C320.995 109.774 322.505 112.538 322.396 115.489C322.246 119.709 318.6 123.381 314.253 125.22C309.907 127.06 304.951 127.381 300.128 127.452C298.847 127.401 297.565 127.544 296.332 127.874C292.544 129.119 291.71 134.004 294.138 136.823C295.089 137.927 296.399 138.796 297.108 140.025C298.96 143.227 295.715 147.204 291.793 148.292C287.872 149.38 283.676 148.558 279.604 148.12C275.533 147.681 270.944 147.791 267.924 150.249C264.102 153.381 264.586 158.752 262.4 162.924C260.064 167.41 254.741 170.221 249.293 171.45C243.845 172.679 238.155 172.593 232.548 172.891C220.76 173.532 208.896 176.022 198.809 181.408" fill="url(#paint1_linear_416_32542)"/>
<g style="mix-blend-mode:multiply" opacity="0.2">
<path d="M316.745 92.0904C313.733 102.096 304.147 110.668 295.504 117.346C286.393 124.392 276.189 130.272 265.894 135.877C244.326 147.621 221.725 158.542 205.113 175.805C204.646 176.29 203.87 175.625 204.279 175.131C218.921 158.691 239.763 148.255 259.77 137.647C269.923 132.268 280.052 126.788 289.388 120.345C299.884 113.103 312.482 103.591 316.312 92.0121C316.387 91.7851 316.787 91.8712 316.72 92.0982L316.745 92.0904Z" fill="#444472"/>
</g>
<path opacity="0.5" d="M91.0884 148.889C86.4329 151.058 81.0766 151.395 75.8788 151.551C64.6405 151.896 53.2353 151.551 42.4226 148.623C39.6132 147.97 36.9552 146.84 34.58 145.288C33.3836 144.512 32.3741 143.509 31.6167 142.344C30.8593 141.179 30.3709 139.877 30.1831 138.524C29.8577 134.797 32.4525 131.478 34.1294 128.088C34.7387 127.088 34.9681 125.923 34.7802 124.784C34.0877 122.177 30.2999 121.895 27.4549 122.177L20.3799 122.882C17.443 123.171 13.9139 123.226 12.2202 120.964C10.7935 119.046 11.5528 116.204 13.3883 114.622C15.2238 113.041 17.8352 112.485 20.3298 112.399C22.8244 112.313 25.3357 112.634 27.8387 112.493C28.43 112.505 29.0115 112.349 29.5073 112.047C30.6336 111.217 30.108 109.51 29.2737 108.414C28.3389 107.201 27.1543 106.176 25.79 105.4C24.4257 104.624 22.9095 104.113 21.331 103.897C18.244 103.49 15.1403 104.226 12.0367 104.507C8.93299 104.789 5.48725 104.507 3.26797 102.433C1.04868 100.358 0.531395 97.3987 0.6482 94.6038C0.823407 90.5328 6.84719 85.4753 12.4538 88.7087C15.5575 90.5015 18.6028 92.3726 21.6313 94.1889C23.617 95.3789 26.5371 96.4514 28.0389 94.7447C29.2487 93.3668 28.381 91.2844 27.2964 89.8125C23.0747 84.0348 15.9079 80.9033 10.2012 76.3782C1.39075 69.3322 14.9735 57.0252 26.1867 64.032C29.1423 65.9013 31.5863 68.3985 33.3201 71.3207C35.3309 74.6715 36.4238 78.5624 39.1604 81.4513C40.0907 82.5515 41.4006 83.3128 42.8648 83.6042C43.5959 83.7301 44.351 83.618 45.005 83.2862C45.6589 82.9545 46.1725 82.4231 46.4607 81.7801C46.9279 80.4257 46.0519 79.0322 45.5096 77.6934C43.9494 73.779 45.3761 69.2774 48.0876 65.9501C49.6645 64.032 51.9588 62.3097 54.5285 62.4976C57.6239 62.7324 59.7681 65.6761 60.2603 68.5493C60.7526 71.4225 60.0851 74.3505 60.035 77.2628C59.985 80.1752 60.7526 83.3929 63.2972 85.0917C63.6967 85.3951 64.1934 85.5633 64.7072 85.5693C65.1252 85.5133 65.5197 85.3538 65.8503 85.1074C68.2781 83.4711 69.1208 80.5197 70.4557 78.0066C71.7906 75.4935 74.5605 73.0431 77.4056 73.9042C79.7333 74.6088 80.7428 77.2472 80.601 79.5332C80.4592 81.8193 79.3829 83.9722 78.9324 86.2269C77.5724 93.0694 82.6201 100.491 89.7785 102.221C91.7976 102.707 93.9501 102.793 95.8691 103.521C99.1229 104.727 101.401 107.623 102.544 110.739C103.687 113.855 103.745 117.19 103.703 120.478C103.603 128.926 102.151 138.43 94.9346 143.495" fill="url(#paint2_linear_416_32542)" fill-opacity="0.7"/>
<g opacity="0.41">
<path d="M15.1648 75.2402L16.2578 75.6081C15.9074 75.4594 15.5569 75.3106 15.2232 75.1306C15.1648 75.0993 15.1064 75.2089 15.1648 75.2402Z" fill="#4C7317"/>
<path d="M19.7359 76.588C18.5647 76.3173 17.4091 75.9906 16.2734 75.6094C17.3821 76.0633 18.5444 76.3919 19.7359 76.588Z" fill="#4C7317"/>
<path opacity="0.47" d="M73.9423 86.9055C77.6717 99.8937 81.1758 113.352 77.5549 126.661C72.549 120.257 67.2677 114.009 61.7028 107.989C60.8685 96.5194 57.1141 85.5668 53.3596 74.6846C53.3596 74.5672 53.1427 74.622 53.1761 74.7394C56.3465 85.2536 59.1999 95.76 60.443 106.634C51.9862 97.4837 42.7595 88.9855 32.8521 81.2218C32.889 81.1931 32.9148 81.1537 32.9254 81.1098C32.9359 81.0658 32.9307 81.0199 32.9105 80.9791C30.4109 75.5824 26.8567 70.6726 22.4314 66.5035C22.3897 66.4565 22.3229 66.5035 22.3647 66.5661C26.5072 70.6686 29.8205 75.4435 32.1429 80.6581C30.4742 79.3741 28.8056 78.1215 27.0786 76.8846C27.0786 76.7436 27.0786 76.5792 26.8533 76.6106H26.7198C23.8498 74.5359 20.8796 72.516 17.9094 70.598C17.8677 70.598 17.8093 70.6449 17.8593 70.6763C20.7683 72.5969 23.6078 74.5881 26.3777 76.6497C24.1607 76.9359 21.9101 76.9042 19.7032 76.5557C22.055 77.125 24.4968 77.2921 26.9117 77.049C35.8269 83.7646 44.1781 91.1142 51.8912 99.0325C39.8437 103.323 27.696 98.7585 15.5149 97.3571C15.5016 97.3571 15.4889 97.362 15.4795 97.3709C15.4701 97.3797 15.4648 97.3916 15.4648 97.4041C15.4648 97.4165 15.4701 97.4285 15.4795 97.4373C15.4889 97.4461 15.5016 97.4511 15.5149 97.4511C27.6626 99.1108 40.1023 104.145 52.2249 99.7997C52.3212 99.7638 52.4009 99.6973 52.4502 99.6118C55.2535 102.493 57.9818 105.444 60.6599 108.435C60.6688 108.532 60.7098 108.624 60.7771 108.699C60.8443 108.773 60.9346 108.826 61.0354 108.85C63.3103 111.418 65.5351 114.027 67.7099 116.679C55.1284 120.257 42.3383 121.509 29.3312 119.505C29.2728 119.505 29.2561 119.583 29.3312 119.591C42.3299 122.026 55.6874 121.533 68.1855 117.242C72.6908 122.668 77.0209 128.203 81.2259 133.879C68.903 138.678 55.6123 142.224 42.6887 137.19C42.6303 137.19 42.5886 137.245 42.6887 137.269C55.6457 142.592 69.2034 139.21 81.7682 134.56C83.0697 136.314 84.3602 138.073 85.6394 139.837C86.1651 140.565 87.3915 139.837 86.8659 139.109C84.0292 135.189 81.1174 131.308 78.1306 127.467C82.3022 113.719 78.3308 100.215 74.1008 86.8899C74.0925 86.7411 73.9089 86.7959 73.9423 86.9055Z" fill="#4C7317"/>
</g>
<path d="M159.603 197.599C155.774 196.339 152.653 193.685 149.733 191.07C143.409 185.355 137.402 179.186 133.264 171.921C132.123 170.09 131.348 168.079 130.978 165.986C130.803 164.939 130.861 163.869 131.148 162.843C131.435 161.818 131.945 160.86 132.646 160.028C134.699 157.829 138.086 157.39 140.99 156.419C141.918 156.192 142.737 155.68 143.317 154.963C144.485 153.178 142.6 151.049 140.881 149.694L136.61 146.367C134.832 144.989 132.88 143.165 133.314 141.043C133.673 139.251 135.817 138.1 137.727 138.202C139.679 138.424 141.485 139.286 142.825 140.636C144.235 141.897 145.403 143.384 146.847 144.613C147.161 144.937 147.575 145.161 148.031 145.255C149.141 145.396 149.867 144.191 150.067 143.157C150.276 142.003 150.236 140.822 149.949 139.683C149.663 138.544 149.135 137.47 148.398 136.526C146.963 134.686 144.836 133.457 142.975 131.985C141.115 130.514 139.43 128.533 139.438 126.255C139.446 123.976 140.948 122.074 142.692 120.602C145.195 118.481 151.502 118.888 152.628 123.593C153.254 126.192 153.788 128.815 154.372 131.422C154.748 133.113 155.699 135.234 157.526 135.086C159.011 134.968 159.787 133.379 160.029 132.009C161.139 126.623 159.086 121.158 158.694 115.686C158.093 107.238 172.827 107.661 174.755 117.361C175.25 119.93 175.093 122.572 174.296 125.072C173.395 127.954 171.668 130.647 171.434 133.637C171.277 134.729 171.534 135.837 172.16 136.769C172.484 137.22 172.962 137.554 173.516 137.716C174.069 137.879 174.665 137.859 175.205 137.661C176.273 137.168 176.623 135.947 177.124 134.937C178.601 131.993 182.072 130.287 185.517 129.911C187.511 129.692 189.789 129.958 191.082 131.414C192.626 133.16 192.042 135.892 190.598 137.716C189.155 139.54 187.044 140.777 185.275 142.335C183.507 143.893 182.013 146.054 182.405 148.293C182.409 148.641 182.555 148.974 182.812 149.225C183.07 149.475 183.42 149.624 183.79 149.64C186.085 150.023 188.304 148.857 190.523 148.191C192.743 147.526 195.721 147.643 196.756 149.608C197.59 151.213 196.597 153.194 195.137 154.353C193.677 155.511 191.8 156.13 190.24 157.124C187.88 158.707 186.213 161.04 185.549 163.69C184.884 166.339 185.267 169.125 186.627 171.529C187.461 172.852 188.546 174.019 189.172 175.444C189.631 176.653 189.808 177.941 189.69 179.22C189.572 180.5 189.162 181.74 188.487 182.857C187.125 185.084 185.377 187.081 183.315 188.768C178.217 193.317 171.768 197.725 164.818 196.699" fill="url(#paint3_linear_416_32542)"/>
<g opacity="0.41">
<path d="M162.188 117.696C162.304 117.954 162.438 118.213 162.563 118.479C162.453 118.223 162.358 117.962 162.279 117.696C162.263 117.602 162.163 117.633 162.188 117.696Z" fill="#444472"/>
<path d="M163.856 120.829C163.388 120.046 162.963 119.263 162.562 118.48C162.896 119.307 163.33 120.095 163.856 120.829Z" fill="#444472"/>
</g>
<path opacity="0.6" d="M149.917 182.613C152.62 178.018 152.028 172.514 153.396 167.441C165.335 123.364 133.706 140.165 148.999 119.097C161.514 101.874 141.749 80.2738 135.041 87.1241C129.718 92.5652 119.798 91.9232 119.114 84.6502C118.28 75.4982 125.789 66.9334 125.622 57.7188C125.579 55.0738 124.872 52.4755 123.557 50.1356C122.242 47.7956 120.356 45.7801 118.054 44.2531C113.883 41.5913 108.552 40.6597 105.022 37.2933C98.74 31.2807 100.509 19.7566 93.3419 14.7148C92.7526 14.2503 92.0353 13.9518 91.2728 13.8536C89.7043 13.7518 88.3861 14.9809 87.3014 16.1005C84.4397 19.0833 81.3694 22.5593 81.6197 26.5207C81.845 30.0829 84.7401 33.0265 84.8903 36.5965C85.0404 40.1665 82.3873 43.3763 79.5756 45.8424C76.764 48.3085 73.5352 50.5397 71.7914 53.7731C69.2885 58.3999 70.54 64.1385 73.6103 68.2409C76.6806 72.3432 81.2943 75.1068 85.9248 77.5416C87.1692 78.1143 88.2984 78.8851 89.2621 79.8198C92.1488 83.014 89.9129 88.6899 85.7997 90.5454C84.1894 91.2734 82.3706 91.5709 80.9106 92.5574C77.1144 95.1018 77.7819 100.973 80.9106 104.058C84.0393 107.143 88.628 108.309 92.8497 109.828C97.0713 111.347 101.46 113.695 102.861 117.813C104.622 123.051 100.809 128.625 100.308 134.184C99.7662 140.157 103.187 145.786 107.701 149.771C112.214 153.756 117.796 156.441 123.052 159.502C134.098 165.945 143.493 171.848 149.892 182.613" fill="url(#paint4_linear_416_32542)" fill-opacity="0.6"/>
<path opacity="0.41" d="M91.8729 31.2653C88.5357 43.5253 92.4903 57.4608 96.7037 68.844C101.151 80.8848 107.375 92.2054 113.866 103.291C127.457 126.48 142.575 149.286 147.914 176.006C148.064 176.789 149.232 176.413 149.116 175.677C145.161 150.836 131.478 129.369 118.68 108.168C112.189 97.4116 105.781 86.5529 100.75 75.0444C95.0934 62.1189 88.8027 45.7096 92.3151 31.3514C92.3228 31.3242 92.3247 31.2958 92.3207 31.2679C92.3166 31.2399 92.3068 31.213 92.2917 31.1887C92.2766 31.1643 92.2565 31.143 92.2326 31.1259C92.2087 31.1088 92.1815 31.0963 92.1524 31.0892C92.1234 31.082 92.0931 31.0802 92.0634 31.084C92.0336 31.0877 92.0049 31.097 91.979 31.1112C91.953 31.1253 91.9303 31.1442 91.9121 31.1666C91.8939 31.189 91.8806 31.2146 91.8729 31.2418V31.2653Z" fill="#444472"/>
<path opacity="0.7" d="M169.665 181.112C182.747 177.808 195.929 174.465 208.093 168.852C227.707 159.74 243.81 145.123 254.165 127.03C255.274 125.081 256.092 122.223 254.106 121.025C253.17 120.583 252.101 120.456 251.078 120.665C248.473 120.95 245.915 121.531 243.46 122.395C241.792 122.982 239.706 123.663 238.296 122.607C237.866 122.199 237.539 121.706 237.34 121.164C237.14 120.622 237.074 120.045 237.144 119.475C237.361 113.917 242.334 109.47 247.674 107.058C253.013 104.647 258.97 103.614 264.301 101.171C269.633 98.7285 274.547 94.2034 274.647 88.6449C274.647 87.2826 274.288 85.756 273.054 85.0436C272.479 84.7482 271.839 84.582 271.185 84.5582C263.959 83.9162 257.836 89.0285 251.753 92.7472C251.133 93.234 250.332 93.4704 249.526 93.4048C248.424 93.1778 247.932 91.9408 247.857 90.8839C247.54 85.114 253.697 81.1996 258.837 78.0132C265.828 73.6682 272.578 68.0001 274.689 60.3904C275.156 58.715 275.373 56.8596 274.53 55.3173C272.586 51.7317 266.512 52.5067 263.584 55.4426C260.656 58.3784 259.588 62.4886 257.327 65.9333C257.099 66.3751 256.78 66.7698 256.387 67.0938C255.995 67.4179 255.537 67.6648 255.041 67.82C253.372 68.1488 251.862 66.3873 251.929 64.7668C251.995 63.1462 253.063 61.7292 254.089 60.4296C262.249 50.0954 270.776 38.3599 269.207 25.5832C269.153 24.2617 268.667 22.9878 267.814 21.9349C266.004 20.0638 262.7 20.4631 260.305 21.6766C254.14 24.8081 251.403 31.8072 250.393 38.3365C249.384 44.8657 249.559 51.6456 247.056 57.8147C246.296 60.0059 244.862 61.9372 242.935 63.3654C240.891 64.6807 237.929 64.9782 235.968 63.5846C233.373 61.7527 233.465 58.1435 233.749 55.1059C234.007 52.6868 234.258 50.2598 234.516 47.8329C234.658 46.408 234.666 44.7013 233.398 43.9184C231.73 42.885 229.585 44.396 228.534 45.9853C225.481 50.5808 225.372 56.4368 226.607 61.737C227.842 67.0371 230.286 72.0007 232.088 77.1521C232.649 78.4917 232.908 79.9259 232.848 81.364C232.542 83.2391 231.54 84.9527 230.019 86.2023C228.606 87.4598 226.941 88.4427 225.121 89.0943C223.301 89.7459 221.362 90.0535 219.415 89.9993C216.52 89.9053 213.658 89.005 210.78 89.3103C208.38 89.6331 206.181 90.75 204.581 92.4597C202.981 94.1694 202.084 96.3593 202.053 98.6345C202.145 102.651 204.998 106.158 208.227 108.812C211.456 111.466 215.185 113.58 218.022 116.586C219.411 117.858 220.294 119.538 220.525 121.346C220.65 123.875 218.698 126.114 216.47 127.547C213.067 129.705 208.929 130.596 204.865 130.044C201.185 129.535 197.806 127.86 194.21 126.967C190.614 126.075 186.334 126.137 183.69 128.604C179.835 132.189 181.679 138.374 184.524 142.695C187.369 147.017 191.198 151.456 190.631 156.521C190.222 160.005 187.753 162.933 185.225 165.509C179.797 171.046 173.66 175.932 166.953 180.055" fill="url(#paint5_linear_416_32542)"/>
<path style="mix-blend-mode:multiply" opacity="0.3" d="M259.905 31.2647C246.005 58.9085 242.384 89.9813 229.377 118.079C222.911 132.022 215.402 146.075 204.556 157.56C192.45 170.454 176.665 176.35 159.662 181.571C158.402 181.963 158.827 183.873 160.079 183.49C174.721 179.011 189.28 174.181 200.793 164.152C212.082 154.303 219.724 141.448 226.274 128.523C234.026 113.037 240.173 96.8875 244.629 80.297C249.142 63.7624 252.972 47.079 260.597 31.4839C260.789 31.0768 260.105 30.8732 259.905 31.2647Z" fill="url(#paint6_linear_416_32542)"/>
<path opacity="0.7" d="M160.227 184.509C151.05 175.177 141.739 165.782 134.622 154.963C123.17 137.462 117.81 117.049 119.287 96.5593C119.454 94.3516 120.38 91.5254 122.733 91.5019C123.776 91.5894 124.754 92.0126 125.503 92.6997C127.547 94.2447 129.387 96.0135 130.984 97.9685C132.086 99.3151 133.437 100.92 135.231 100.724C135.833 100.595 136.396 100.338 136.876 99.973C137.357 99.6079 137.741 99.1445 138.001 98.6183C140.963 93.8036 139.277 87.5639 136.115 82.851C132.953 78.138 128.498 74.3018 125.369 69.5419C122.241 64.7819 120.639 58.5344 123.701 53.7666C124.452 52.608 125.636 51.5041 127.088 51.5198C127.742 51.5552 128.379 51.7321 128.949 52.0365C135.431 55.0976 137.726 62.4802 140.771 68.665C141.02 69.386 141.563 69.9854 142.281 70.3326C143.349 70.6927 144.459 69.8863 145.109 69.0173C148.647 64.32 145.643 57.9003 143.099 52.6393C139.636 45.4758 137.133 37.3103 139.628 29.7946C140.178 28.1427 141.055 26.4595 142.631 25.5748C146.311 23.508 151.016 27.1954 151.809 31.1412C152.602 35.0869 151.183 39.1266 151.158 43.1428C151.097 43.6287 151.139 44.1212 151.282 44.5916C151.425 45.062 151.667 45.501 151.992 45.8829C153.244 47.0103 155.497 46.2587 156.364 44.8574C157.232 43.456 157.124 41.7258 156.99 40.0974C155.93 27.2815 155.371 13.0956 163.915 3.04328C164.713 1.95097 165.848 1.11475 167.169 0.647644C169.763 -0.0334694 172.333 1.95506 173.643 4.16281C177.072 9.92487 175.454 17.1822 172.6 23.2105C169.747 29.2387 165.742 34.9069 164.399 41.3813C163.799 43.6562 163.939 46.0474 164.799 48.2473C165.792 50.3767 168.137 52.0913 170.573 51.9034C173.81 51.645 175.804 48.5604 177.247 45.8281L180.726 39.291C181.402 38.0071 182.395 36.5353 183.905 36.5039C185.899 36.4491 186.859 38.8056 186.85 40.6767C186.85 46.0943 183.613 51.1126 179.567 54.9801C175.52 58.8476 170.631 61.8382 166.218 65.3064C164.982 66.1607 163.948 67.2455 163.181 68.4928C162.386 70.2254 162.265 72.1651 162.839 73.973C163.321 75.7441 164.172 77.408 165.344 78.8686C166.515 80.3292 167.983 81.5577 169.663 82.483C172.166 83.8452 175.103 84.5107 177.372 86.2017C179.251 87.6708 180.503 89.7259 180.898 91.9904C181.294 94.255 180.806 96.5775 179.525 98.5322C177.172 101.883 172.767 103.433 168.537 104.067C164.307 104.701 159.944 104.639 155.83 105.766C153.944 106.165 152.256 107.149 151.041 108.561C149.506 110.643 149.89 113.509 150.966 115.834C152.621 119.361 155.621 122.181 159.376 123.741C162.789 125.143 166.601 125.409 170.147 126.45C173.693 127.491 177.289 129.683 178.132 133.081C179.366 138.045 174.302 142.366 169.413 144.59C164.524 146.813 158.775 148.668 156.406 153.256C154.787 156.388 155.221 160.114 155.897 163.559C157.353 170.968 159.783 178.178 163.131 185.026" fill="url(#paint7_linear_416_32542)" fill-opacity="0.5"/>
<path opacity="0.3" d="M169.849 12.9385C165.961 43.2989 151.402 71.4202 146.529 101.71C144.11 116.742 142.533 132.399 145.161 147.509C148.115 164.467 158.143 177.337 169.582 190.239C170.416 191.194 169.006 192.588 168.147 191.656C158.277 180.555 148.657 169.195 144.61 154.97C140.631 140.996 141.432 126.301 143.217 112.076C145.428 95.1037 149.379 78.3715 155.014 62.1117C160.554 45.8511 166.77 29.8097 169.139 12.7897C169.198 12.3513 169.907 12.5157 169.849 12.9463V12.9385Z" fill="url(#paint8_linear_416_32542)"/>
<path d="M70.8405 116.913C66.1714 115.392 61.1826 114.941 56.29 115.597C51.3508 116.302 46.7287 118.4 42.2984 120.663C37.3871 123.168 32.6092 125.903 27.9648 128.867C34.1471 134.974 40.7049 140.814 48.1887 145.394C55.6726 149.974 64.1159 153.544 73.0348 154.006C88.3529 154.734 100.926 145.692 100.926 145.692C100.926 145.692 95.9118 124.906 70.8405 116.913Z" fill="url(#paint9_linear_416_32542)"/>
<path style="mix-blend-mode:multiply" opacity="0.3" d="M82.9039 137.824C77.5736 135.722 72.1259 133.893 66.5846 132.344C56.0471 129.471 45.1092 128.03 33.921 128.946C33.8738 128.955 33.8314 128.979 33.801 129.014C33.7705 129.049 33.7539 129.093 33.7539 129.138C33.7539 129.183 33.7705 129.227 33.801 129.262C33.8314 129.297 33.8738 129.321 33.921 129.33C45.5097 128.664 56.9148 130.52 67.7443 133.698C72.8587 135.209 77.8646 137.002 82.762 138.967C87.9348 141.026 92.9074 143.578 98.1469 145.489C98.7309 145.7 99.073 144.886 98.5557 144.604C93.6749 141.919 88.1935 139.875 82.9039 137.824Z" fill="url(#paint10_linear_416_32542)"/>
<path d="M103.904 107.442C100.324 103.183 95.74 99.7613 90.5129 97.4448C85.2316 95.1588 79.358 94.3994 73.5679 93.9062C67.152 93.3738 60.7027 93.1233 54.2617 93.2016C56.3725 102.792 59.034 112.351 63.4392 121.252C67.8444 130.154 73.7681 138.672 82.2114 144.434C96.7286 154.337 114.85 153.194 114.85 153.194C114.85 153.194 123.285 130.224 103.904 107.442Z" fill="url(#paint11_linear_416_32542)"/>
<path opacity="0.3" d="M102.243 134.802C98.3787 129.584 94.2236 124.561 89.7945 119.755C81.3428 110.658 71.5646 102.703 60.0343 96.8553C59.7673 96.7222 59.5587 97.1137 59.8174 97.2546C71.5813 103.573 81.5097 112.2 90.0865 121.775C94.1246 126.292 97.8623 131.028 101.408 135.867C105.138 140.963 108.366 146.396 112.254 151.383C112.347 151.483 112.475 151.548 112.615 151.566C112.755 151.584 112.896 151.554 113.014 151.482C113.132 151.409 113.218 151.299 113.257 151.172C113.295 151.044 113.283 150.908 113.222 150.788C110.144 145.214 106.105 139.961 102.243 134.802Z" fill="url(#paint12_linear_416_32542)"/>
<path d="M199.877 182.804C203.18 180.052 205.752 176.612 207.386 172.76C209.054 168.806 209.463 164.422 209.672 160.093C209.911 155.301 209.911 150.494 209.672 145.672C202.163 147.3 194.721 149.328 187.837 152.632C180.954 155.936 174.413 160.461 170.117 166.771C162.741 177.653 164.185 191.181 164.185 191.181C164.185 191.181 182.523 197.389 199.877 182.804Z" fill="url(#paint13_linear_416_32542)"/>
<path style="mix-blend-mode:multiply" opacity="0.3" d="M178.266 181.7C182.279 178.771 186.115 175.635 189.755 172.305C196.881 165.904 202.7 158.334 206.925 149.969C207.025 149.773 206.708 149.617 206.608 149.813C201.969 158.36 195.722 166.052 188.17 172.516C184.735 175.549 181.14 178.418 177.399 181.112C173.494 183.923 169.297 186.358 165.484 189.286C165.39 189.351 165.325 189.448 165.304 189.556C165.283 189.664 165.307 189.776 165.371 189.868C165.436 189.961 165.535 190.026 165.649 190.052C165.763 190.078 165.883 190.061 165.985 190.006C170.299 187.65 174.32 184.604 178.266 181.7Z" fill="url(#paint14_linear_416_32542)"/>
<path d="M211.972 203.916C216.328 203.222 220.449 201.578 224.003 199.116C227.641 196.588 230.486 193.088 233.122 189.526C236.037 185.586 238.757 181.514 241.282 177.313C234.015 174.964 226.548 172.952 218.847 172.31C211.146 171.668 203.062 172.216 195.837 175.442C183.414 180.977 176.973 193.151 176.973 193.151C176.973 193.151 189.012 207.611 211.972 203.916Z" fill="url(#paint15_linear_416_32542)"/>
<path style="mix-blend-mode:multiply" opacity="0.3" d="M194.295 192.207C199.34 191.732 204.354 190.998 209.313 190.007C218.976 188.141 228.194 184.634 236.512 179.657C236.704 179.54 236.512 179.25 236.328 179.367C227.568 184.287 217.937 187.689 207.895 189.412C203.256 190.265 198.6 190.837 193.937 191.252C189.039 191.682 184.108 191.651 179.219 192.23C179.112 192.249 179.016 192.303 178.947 192.381C178.878 192.46 178.84 192.559 178.84 192.661C178.84 192.763 178.878 192.862 178.947 192.94C179.016 193.019 179.112 193.072 179.219 193.091C184.175 193.264 189.314 192.692 194.295 192.207Z" fill="url(#paint16_linear_416_32542)"/>
<path d="M188.619 29.2805L124.559 161L127.215 162.138L191.275 30.4181L188.619 29.2805Z" fill="#738B12"/>
<path d="M124.092 165.264C123.051 164.818 122.242 164.002 121.842 162.995C121.442 161.989 121.485 160.875 121.961 159.898C122.436 158.921 123.306 158.161 124.379 157.786C125.451 157.411 126.639 157.451 127.68 157.897C145.225 165.254 165.157 165.806 183.134 159.434C201.11 153.062 215.675 140.282 223.655 123.878C231.635 107.474 232.382 88.7761 225.735 71.8571C219.089 54.9381 205.585 41.1696 188.168 33.5511C187.174 33.078 186.413 32.2626 186.044 31.2754C185.676 30.2882 185.728 29.2055 186.19 28.2535C186.652 27.3015 187.488 26.5538 188.524 26.1668C189.559 25.7797 190.714 25.7831 191.747 26.1763C211.197 34.7165 226.267 50.1168 233.68 69.0281C241.093 87.9394 240.25 108.832 231.333 127.163C222.417 145.494 206.148 159.78 186.066 166.915C165.984 174.05 143.711 173.457 124.092 165.264Z" fill="#708F45"/>
<path d="M206.195 141.019C232.857 116 232.857 75.4373 206.195 50.4188C179.533 25.4003 136.305 25.4003 109.643 50.4188C82.981 75.4373 82.981 116 109.643 141.019C136.305 166.037 179.533 166.037 206.195 141.019Z" fill="#EDF1E8"/>
<path d="M220.032 122.325C217.718 127.076 214.795 131.545 211.33 135.634C203.187 138.851 194.237 139.829 185.524 138.452C184.405 138.353 183.337 137.966 182.437 137.333C179.934 135.227 182.07 131.414 182.054 128.251C182.054 125.566 180.318 123.194 178.716 120.978C175.104 115.991 171.583 109.885 173.752 104.209C175.921 98.5327 183.23 95.3933 185.04 89.5452C186.767 83.9475 182.829 78.2089 182.729 72.3842C182.654 67.8826 184.957 63.5298 188.328 60.3356C191.818 57.2249 196.018 54.901 200.609 53.5401C203.012 52.6993 205.553 52.2594 208.118 52.2405C217.239 61.5225 223.236 73.1257 225.355 85.5941C227.475 98.0624 225.623 110.84 220.032 122.325ZM137.159 155.511C140.621 153.875 143.608 150.939 144.242 147.354C144.926 143.486 142.832 139.658 140.237 136.597C137.643 133.536 134.464 130.882 132.336 127.515C131.36 126.115 130.809 124.491 130.743 122.818C130.801 118.262 136.083 115.06 136.717 110.542C137.267 106.565 133.93 102.909 130.084 101.148C126.238 99.3861 121.882 98.9633 117.761 97.8595C113.639 96.7556 109.418 94.6653 107.749 90.97C105.647 86.3197 108.266 80.6907 105.513 76.2596C103.744 73.4255 99.0387 71.5622 94.9422 70.9829C88.084 86.3343 87.8618 103.588 94.3228 119.09C100.784 134.593 113.421 147.127 129.558 154.04C131.485 154.869 133.446 155.605 135.398 156.247C136.016 156.005 136.591 155.778 137.159 155.511ZM118.253 43.5583C118.468 44.2684 118.747 44.9599 119.087 45.6251C122.366 52.1701 129.441 57.1023 130.476 64.2657C130.76 66.2151 130.626 68.3837 131.953 69.9025C132.695 70.6556 133.619 71.2303 134.647 71.5779C138.981 73.1921 143.742 73.5047 148.273 72.4726C152.803 71.4406 156.881 69.1147 159.944 65.8158C165.726 59.3022 166.702 50.158 171.274 42.8224C172.576 40.7399 174.219 38.6339 174.153 36.2226C174.101 35.1853 173.79 34.174 173.243 33.2711C163.822 31.2449 154.051 31.1147 144.572 32.8892C135.094 34.6637 126.124 38.3026 118.253 43.5661V43.5583Z" fill="#708F45"/>
<path d="M164.617 170.613H151.227V200.551H164.617V170.613Z" fill="#3548BB"/>
<path d="M210.779 211.196H105.062C103.403 211.196 101.811 210.578 100.637 209.477C99.4639 208.376 98.8047 206.882 98.8047 205.325C98.8047 203.768 99.4639 202.274 100.637 201.173C101.811 200.072 103.403 199.453 105.062 199.453H210.779C212.438 199.453 214.03 200.072 215.203 201.173C216.377 202.274 217.036 203.768 217.036 205.325C217.036 206.882 216.377 208.376 215.203 209.477C214.03 210.578 212.438 211.196 210.779 211.196Z" fill="#3548BB"/>
<path d="M43.8916 161.994C41.4299 161.926 39.0935 160.96 37.378 159.302C35.6626 157.643 34.7031 155.423 34.7031 153.112C34.7031 150.801 35.6626 148.581 37.378 146.923C39.0935 145.265 41.4299 144.299 43.8916 144.23H154.856C151.168 150.149 151.168 156.07 154.856 161.994H43.8916Z" fill="#FDFDFD"/>
<path d="M43.8891 161.992C42.6066 161.989 41.338 161.742 40.1601 161.267C38.9821 160.791 37.9192 160.096 37.0356 159.223C36.152 158.351 35.4661 157.32 35.0194 156.192C34.5726 155.064 34.3742 153.862 34.4363 152.66C34.6044 150.355 35.7057 148.198 37.5144 146.63C39.3231 145.062 41.7023 144.203 44.1644 144.228H156.339C156.726 144.228 157.097 144.084 157.371 143.827C157.645 143.57 157.799 143.222 157.799 142.858C157.799 142.495 157.645 142.146 157.371 141.89C157.097 141.633 156.726 141.488 156.339 141.488H43.8891C40.6061 141.49 37.4581 142.715 35.1367 144.893C32.8152 147.072 31.51 150.026 31.5078 153.106C31.5078 156.188 32.8123 159.143 35.1342 161.322C37.4562 163.5 40.6054 164.724 43.8891 164.724H156.339C156.726 164.724 157.097 164.58 157.371 164.323C157.645 164.066 157.799 163.718 157.799 163.354C157.799 163.175 157.761 162.997 157.687 162.831C157.614 162.665 157.506 162.515 157.371 162.388C157.235 162.262 157.074 162.162 156.897 162.094C156.72 162.026 156.53 161.991 156.339 161.992H43.8891Z" fill="#44520B"/>
<path d="M38.6348 145.731L47.3285 145.637L64.19 145.543L97.9216 145.457L131.645 145.535L148.506 145.637L154.055 145.692L153.929 145.935L148.506 145.989L131.645 146.091L97.9216 146.169L64.19 146.083L47.3285 145.989L38.3929 145.88C38.4763 145.88 38.5264 145.778 38.6348 145.731ZM47.3285 148.08L64.19 148.181L97.9216 148.26L131.645 148.181L148.506 148.08L153.037 148.033C153.037 147.947 153.087 147.861 153.12 147.774L148.506 147.727L131.645 147.633L97.9216 147.547L64.19 147.633L47.3285 147.727L36.2904 147.845L36.1986 147.962L47.3285 148.08ZM47.3285 150.162L64.19 150.264L97.9216 150.342L131.645 150.264L148.506 150.162H152.436C152.436 150.076 152.436 149.982 152.494 149.896L148.506 149.849L131.645 149.755L97.9216 149.669L64.19 149.755L47.3285 149.857L35.064 149.982C35.064 149.982 35.064 150.045 35.064 150.076L47.3285 150.162ZM153.929 160.285L148.506 160.222L131.645 160.128L97.9216 160.042L64.19 160.128L47.3285 160.222L38.3929 160.316C38.4763 160.371 38.5514 160.434 38.6348 160.481L47.3285 160.575L64.19 160.676L97.9216 160.755L131.645 160.676L148.506 160.575L154.055 160.52L153.929 160.285ZM47.3285 158.492L64.19 158.594L97.9216 158.672L131.645 158.594L148.506 158.492L153.12 158.445C153.12 158.359 153.062 158.273 153.028 158.187L148.506 158.14L131.645 158.038L97.9216 157.96L64.19 158.046L47.3285 158.14L36.1986 158.257L36.2904 158.375L47.3285 158.492ZM47.3285 156.41L64.19 156.504L97.9216 156.59L131.645 156.504L148.506 156.41L152.494 156.363C152.494 156.277 152.494 156.19 152.436 156.096L148.506 156.057L131.645 155.956L97.9216 155.877L64.19 155.956L47.3285 156.057L35.0306 156.183V156.277L47.3285 156.41ZM47.3285 154.319L64.19 154.421L97.9216 154.507L131.645 154.421L148.506 154.327L152.169 154.288C152.169 154.194 152.169 154.1 152.169 154.014L148.523 153.975L131.661 153.873L97.9383 153.795L64.2067 153.873L47.3451 153.975L34.5133 154.108C34.5133 154.108 34.5133 154.163 34.5133 154.186L47.3285 154.319ZM47.3285 152.237L64.19 152.339L97.9216 152.425L131.645 152.339L148.506 152.237H152.152C152.152 152.143 152.152 152.049 152.152 151.963L148.49 151.924L131.628 151.822L97.9049 151.736L64.1734 151.822L47.3118 151.924L34.4883 152.057C34.4883 152.057 34.4883 152.112 34.4883 152.135L47.3285 152.237Z" fill="#E1E3EF"/>
<path d="M142.857 161.227L138.018 158.636L133.188 161.227V149.75H142.857V161.227Z" fill="#667185"/>
<path d="M145.418 185.221C147.927 185.221 150.333 184.285 152.108 182.62C153.882 180.956 154.879 178.697 154.879 176.343C154.879 173.988 153.882 171.73 152.108 170.065C150.333 168.4 147.927 167.465 145.418 167.465H34.4531C38.1408 173.383 38.1408 179.302 34.4531 185.221H145.418Z" fill="#FDFDFD"/>
<path d="M145.417 185.223C146.7 185.221 147.968 184.975 149.146 184.5C150.324 184.025 151.387 183.331 152.271 182.459C153.154 181.587 153.84 180.556 154.287 179.429C154.734 178.301 154.932 177.1 154.87 175.898C154.702 173.593 153.601 171.436 151.792 169.868C149.983 168.301 147.604 167.441 145.142 167.467H32.9679C32.5813 167.465 32.2112 167.32 31.9379 167.063C31.6645 166.807 31.51 166.459 31.5078 166.097C31.5078 165.733 31.6616 165.385 31.9355 165.128C32.2093 164.871 32.5806 164.727 32.9679 164.727H145.417C147.046 164.721 148.661 165.018 150.167 165.6C151.674 166.182 153.043 167.037 154.196 168.116C155.35 169.196 156.265 170.478 156.889 171.89C157.513 173.302 157.833 174.816 157.832 176.345C157.833 177.871 157.514 179.382 156.892 180.792C156.27 182.202 155.358 183.483 154.208 184.562C153.058 185.641 151.693 186.497 150.19 187.08C148.688 187.664 147.077 187.964 145.451 187.963H32.9679C32.5806 187.963 32.2093 187.818 31.9355 187.561C31.6616 187.305 31.5078 186.956 31.5078 186.593C31.51 186.23 31.6645 185.883 31.9379 185.626C32.2112 185.37 32.5813 185.225 32.9679 185.223H145.417Z" fill="#757BFF"/>
<path d="M150.927 169.134L141.983 169.228L125.122 169.322L91.3986 169.408L57.7172 169.369L40.8472 169.267L35.4241 169.212C35.3802 169.133 35.3412 169.052 35.3073 168.969L40.8472 168.914L57.7172 168.813L91.4403 168.734L125.164 168.813L142.025 168.914L150.727 169.008C150.769 169.016 150.844 169.079 150.927 169.134ZM153.113 171.193L153.021 171.075L141.983 170.934L125.122 170.84L91.3986 170.754L57.6754 170.833L40.8055 170.934L36.1917 170.981C36.1917 171.067 36.2501 171.154 36.2835 171.24L40.8055 171.287L57.6754 171.388L91.3986 171.467L125.122 171.388L141.983 171.287L153.113 171.193ZM154.29 173.267L154.248 173.173L141.983 173.048L125.122 172.946L91.3986 172.86L57.6754 172.946L40.8055 173.04L36.8258 173.087L36.8759 173.353L40.8055 173.393L57.6754 173.494L91.3986 173.573L125.122 173.494L141.983 173.393L154.29 173.267ZM35.2656 183.758L40.8055 183.813L57.6754 183.915L91.3986 183.993L125.122 183.915L141.983 183.813L150.685 183.719C150.769 183.672 150.844 183.609 150.927 183.554L141.983 183.461L125.122 183.367L91.3986 183.28L57.6754 183.367L40.8055 183.461L35.3824 183.523L35.2656 183.758ZM153.021 181.613L153.113 181.495L141.983 181.378L125.122 181.284L91.3986 181.198L57.6754 181.276L40.8055 181.378L36.2835 181.425C36.2835 181.511 36.2251 181.597 36.1917 181.683L40.8055 181.73L57.6754 181.832L91.3986 181.91L125.122 181.824L141.983 181.73L153.021 181.613ZM154.248 179.546L154.29 179.452L141.983 179.296L125.122 179.194L91.3986 179.115L57.6754 179.194L40.8055 179.296L36.8759 179.335L36.8258 179.601L40.8055 179.648L57.6754 179.742L91.3986 179.828L125.122 179.742L141.983 179.648L154.248 179.546ZM154.807 177.456C154.807 177.456 154.807 177.401 154.807 177.377L141.983 177.197L125.122 177.096L91.3986 177.017L57.6754 177.096L40.8055 177.197L37.1679 177.237C37.1679 177.323 37.1679 177.417 37.1679 177.511H40.8222L57.6921 177.612L91.4153 177.698L125.139 177.612L142 177.511L154.807 177.456ZM154.807 175.373C154.807 175.373 154.807 175.318 154.807 175.295L141.983 175.131L125.122 175.029L91.3986 174.943L57.6754 175.029L40.8055 175.131H37.1512C37.1512 175.225 37.1512 175.318 37.1512 175.412H40.7888L57.6588 175.514L91.382 175.6L125.105 175.514L141.983 175.475L154.807 175.373Z" fill="#E1E3EF"/>
<path d="M43.375 180.36L48.2141 177.769L53.0531 180.36V168.883H43.375V180.36Z" fill="#757BFF"/>
<path d="M43.8909 208.459C41.3816 208.459 38.9751 207.524 37.2008 205.859C35.4265 204.194 34.4297 201.936 34.4297 199.581C34.4297 197.226 35.4265 194.968 37.2008 193.303C38.9751 191.638 41.3816 190.703 43.8909 190.703H154.855C151.168 196.622 151.168 202.54 154.855 208.459H43.8909Z" fill="#FDFDFD"/>
<path d="M43.8891 208.457C42.6055 208.455 41.3357 208.209 40.1566 207.733C38.9775 207.257 37.9137 206.561 37.0297 205.688C36.1458 204.814 35.4602 203.782 35.0143 202.652C34.5685 201.523 34.3719 200.32 34.4363 199.117C34.6044 196.812 35.7057 194.655 37.5144 193.087C39.3231 191.519 41.7023 190.66 44.1644 190.685H156.339C156.532 190.69 156.724 190.658 156.904 190.592C157.084 190.526 157.248 190.427 157.387 190.301C157.526 190.175 157.637 190.024 157.713 189.858C157.789 189.691 157.83 189.512 157.832 189.331C157.832 188.968 157.678 188.619 157.404 188.362C157.131 188.105 156.759 187.961 156.372 187.961H43.8891C40.6054 187.961 37.4562 189.185 35.1342 191.364C32.8123 193.543 31.5078 196.498 31.5078 199.579C31.5078 202.66 32.8123 205.615 35.1342 207.794C37.4562 209.973 40.6054 211.197 43.8891 211.197H156.339C156.726 211.197 157.097 211.053 157.371 210.796C157.645 210.539 157.799 210.19 157.799 209.827C157.799 209.464 157.645 209.115 157.371 208.858C157.097 208.601 156.726 208.457 156.339 208.457H43.8891Z" fill="#365210"/>
<path d="M38.6348 192.204L47.3285 192.11L64.19 192.008L97.9216 191.93L131.645 192.008L148.506 192.11L154.055 192.165L153.929 192.407L148.506 192.462L131.645 192.564L97.9216 192.642L64.19 192.556L47.3285 192.462L38.3929 192.368C38.4763 192.313 38.5264 192.251 38.6348 192.204ZM47.3285 194.552L64.19 194.654L97.9216 194.732L131.645 194.654L148.506 194.552L153.037 194.505C153.037 194.419 153.087 194.333 153.12 194.247L148.506 194.2L131.645 194.098L97.9216 194.02L64.19 194.106L47.3285 194.2L36.2904 194.317L36.1986 194.435L47.3285 194.552ZM47.3285 196.635L64.19 196.737L97.9216 196.815L131.645 196.737L148.506 196.635L152.436 196.596C152.436 196.51 152.436 196.416 152.494 196.33L148.506 196.283L131.645 196.189L97.9216 196.102L64.19 196.189L47.3285 196.29L35.064 196.416C35.064 196.416 35.064 196.478 35.064 196.51L47.3285 196.635ZM153.929 206.758L148.506 206.703L131.645 206.601L97.9216 206.523L64.19 206.609L47.3285 206.703L38.3929 206.797C38.4763 206.852 38.5514 206.914 38.6348 206.961L47.3285 207.055L64.19 207.157L97.9216 207.235L131.645 207.157L148.506 207.055L154.055 207L153.929 206.758ZM47.3285 204.973L64.19 205.067L97.9216 205.153L131.645 205.074L148.506 204.973L153.12 204.926L153.028 204.667L148.506 204.62L131.645 204.519L97.9216 204.44L64.19 204.519L47.3285 204.62L36.1986 204.738L36.2904 204.855L47.3285 204.973ZM47.3285 202.882L64.19 202.984L97.9216 203.07L131.645 202.984L148.506 202.89L152.494 202.843C152.494 202.757 152.494 202.671 152.436 202.577L148.506 202.538L131.645 202.436L97.9216 202.358L64.19 202.436L47.3285 202.538L35.0306 202.663C35.0306 202.663 35.0306 202.726 35.0306 202.757L47.3285 202.882ZM47.3285 200.8L64.19 200.902L97.9216 200.988L131.645 200.902L148.506 200.8H152.169C152.169 200.706 152.169 200.612 152.169 200.526L148.523 200.487L131.661 200.385L97.9383 200.299L64.2067 200.385L47.3451 200.487L34.5133 200.62C34.5133 200.62 34.5133 200.675 34.5133 200.698L47.3285 200.8ZM47.3285 198.717L64.19 198.819L97.9216 198.905L131.645 198.819L148.506 198.717L152.152 198.678C152.152 198.592 152.152 198.498 152.152 198.404H148.49L131.628 198.302L97.9049 198.216L64.1734 198.302L47.3118 198.404L34.4883 198.537C34.4883 198.537 34.4883 198.592 34.4883 198.616L47.3285 198.717Z" fill="#E1E3EF"/>
<path d="M116.236 207.7L111.397 205.108L106.566 207.7V196.223H116.236V207.7Z" fill="#FFBA49"/>
<path d="M220.443 207.379H232.465C233.82 207.379 234.918 206.348 234.918 205.077V108.845C234.918 107.573 233.82 106.543 232.465 106.543H220.443C219.088 106.543 217.99 107.573 217.99 108.845V205.077C217.99 206.348 219.088 207.379 220.443 207.379Z" fill="url(#paint17_linear_416_32542)"/>
<mask id="mask0_416_32542" style="mask-type:luminance" maskUnits="userSpaceOnUse" x="217" y="106" width="18" height="102">
<path d="M220.443 207.375H232.465C233.82 207.375 234.918 206.344 234.918 205.073V108.841C234.918 107.569 233.82 106.539 232.465 106.539H220.443C219.088 106.539 217.99 107.569 217.99 108.841V205.073C217.99 206.344 219.088 207.375 220.443 207.375Z" fill="white"/>
</mask>
<g mask="url(#mask0_416_32542)">
<path opacity="0.51" d="M229.461 115.857C229.461 115.722 229.518 115.592 229.62 115.497C229.721 115.401 229.859 115.348 230.003 115.348H234.917C235.061 115.348 235.199 115.401 235.301 115.497C235.403 115.592 235.46 115.722 235.46 115.857C235.46 115.991 235.403 116.121 235.301 116.216C235.199 116.312 235.061 116.365 234.917 116.365H230.003C229.932 116.365 229.861 116.352 229.796 116.327C229.73 116.301 229.67 116.264 229.62 116.216C229.569 116.169 229.529 116.113 229.502 116.051C229.475 115.99 229.461 115.923 229.461 115.857ZM230.003 123.826H234.917C235.061 123.826 235.199 123.773 235.301 123.677C235.403 123.582 235.46 123.452 235.46 123.317C235.46 123.182 235.403 123.053 235.301 122.958C235.199 122.862 235.061 122.809 234.917 122.809H230.003C229.859 122.809 229.721 122.862 229.62 122.958C229.518 123.053 229.461 123.182 229.461 123.317C229.461 123.452 229.518 123.582 229.62 123.677C229.721 123.773 229.859 123.826 230.003 123.826ZM230.003 131.287H234.917C235.062 131.285 235.2 131.23 235.301 131.133C235.403 131.036 235.46 130.906 235.46 130.771C235.46 130.636 235.403 130.506 235.301 130.411C235.199 130.315 235.061 130.262 234.917 130.262H230.003C229.859 130.262 229.721 130.315 229.62 130.411C229.518 130.506 229.461 130.636 229.461 130.771C229.461 130.906 229.518 131.036 229.619 131.133C229.721 131.23 229.859 131.285 230.003 131.287ZM230.003 138.74H234.917C235.061 138.74 235.199 138.687 235.301 138.591C235.403 138.496 235.46 138.366 235.46 138.232C235.46 138.097 235.403 137.967 235.301 137.872C235.199 137.776 235.061 137.723 234.917 137.723H230.003C229.859 137.723 229.721 137.776 229.62 137.872C229.518 137.967 229.461 138.097 229.461 138.232C229.461 138.366 229.518 138.496 229.62 138.591C229.721 138.687 229.859 138.74 230.003 138.74ZM230.003 146.201H234.917C235.061 146.201 235.199 146.148 235.301 146.052C235.403 145.957 235.46 145.827 235.46 145.692C235.46 145.557 235.403 145.426 235.301 145.33C235.2 145.233 235.062 145.178 234.917 145.176H230.003C229.859 145.178 229.721 145.233 229.619 145.33C229.518 145.426 229.461 145.557 229.461 145.692C229.461 145.759 229.475 145.825 229.502 145.887C229.529 145.949 229.569 146.005 229.62 146.052C229.67 146.099 229.73 146.137 229.796 146.163C229.861 146.188 229.932 146.201 230.003 146.201ZM230.003 153.654H234.917C235.061 153.654 235.199 153.601 235.301 153.505C235.403 153.41 235.46 153.28 235.46 153.146C235.46 153.011 235.403 152.881 235.301 152.786C235.199 152.69 235.061 152.637 234.917 152.637H230.003C229.859 152.637 229.721 152.69 229.62 152.786C229.518 152.881 229.461 153.011 229.461 153.146C229.461 153.28 229.518 153.41 229.62 153.505C229.721 153.601 229.859 153.654 230.003 153.654ZM230.003 161.115H234.917C235.061 161.115 235.199 161.062 235.301 160.966C235.403 160.871 235.46 160.741 235.46 160.606C235.46 160.471 235.403 160.342 235.301 160.247C235.199 160.151 235.061 160.098 234.917 160.098H230.003C229.859 160.098 229.721 160.151 229.62 160.247C229.518 160.342 229.461 160.471 229.461 160.606C229.461 160.741 229.518 160.871 229.62 160.966C229.721 161.062 229.859 161.115 230.003 161.115ZM230.003 168.576H234.917C235.051 168.561 235.173 168.5 235.262 168.406C235.351 168.311 235.4 168.19 235.4 168.063C235.4 167.937 235.351 167.816 235.262 167.721C235.173 167.627 235.051 167.566 234.917 167.551H230.003C229.87 167.566 229.747 167.627 229.658 167.721C229.569 167.816 229.52 167.937 229.52 168.063C229.52 168.19 229.569 168.311 229.658 168.406C229.747 168.5 229.87 168.561 230.003 168.576ZM230.003 176.029H234.917C235.061 176.029 235.199 175.976 235.301 175.88C235.403 175.785 235.46 175.655 235.46 175.52C235.46 175.386 235.403 175.256 235.301 175.161C235.199 175.065 235.061 175.012 234.917 175.012H230.003C229.859 175.012 229.721 175.065 229.62 175.161C229.518 175.256 229.461 175.386 229.461 175.52C229.461 175.655 229.518 175.785 229.62 175.88C229.721 175.976 229.859 176.029 230.003 176.029ZM230.003 183.49H234.917C235.061 183.49 235.199 183.437 235.301 183.341C235.403 183.246 235.46 183.116 235.46 182.981C235.46 182.846 235.403 182.717 235.301 182.622C235.199 182.526 235.061 182.473 234.917 182.473H230.003C229.859 182.473 229.721 182.526 229.62 182.622C229.518 182.717 229.461 182.846 229.461 182.981C229.461 183.116 229.518 183.246 229.62 183.341C229.721 183.437 229.859 183.49 230.003 183.49ZM230.003 190.951H234.917C235.062 190.949 235.2 190.894 235.301 190.797C235.403 190.7 235.46 190.57 235.46 190.435C235.46 190.3 235.403 190.17 235.301 190.075C235.199 189.979 235.061 189.926 234.917 189.926H230.003C229.859 189.926 229.721 189.979 229.62 190.075C229.518 190.17 229.461 190.3 229.461 190.435C229.461 190.57 229.518 190.7 229.619 190.797C229.721 190.894 229.859 190.949 230.003 190.951ZM230.003 198.404H234.917C235.061 198.404 235.199 198.351 235.301 198.255C235.403 198.16 235.46 198.03 235.46 197.895C235.46 197.76 235.403 197.631 235.301 197.536C235.199 197.44 235.061 197.387 234.917 197.387H230.003C229.859 197.387 229.721 197.44 229.62 197.536C229.518 197.631 229.461 197.76 229.461 197.895C229.461 198.03 229.518 198.16 229.62 198.255C229.721 198.351 229.859 198.404 230.003 198.404Z" fill="white"/>
</g>
<path d="M215.535 189.857L222.793 188.348L215.012 155.413L207.754 156.922L215.535 189.857Z" fill="#5C4582"/>
<path opacity="0.65" d="M215.432 152.49C222.527 148.143 224.524 139.222 219.891 132.564C215.259 125.906 205.751 124.032 198.656 128.379C191.561 132.726 189.564 141.647 194.196 148.305C198.829 154.963 208.336 156.837 215.432 152.49Z" fill="white"/>
<path d="M214.683 124.98C211.43 123.565 207.804 123.087 204.262 123.606C200.72 124.125 197.421 125.618 194.783 127.896C192.145 130.174 190.286 133.135 189.441 136.404C188.596 139.673 188.802 143.104 190.035 146.263C191.267 149.422 193.47 152.168 196.365 154.152C199.26 156.136 202.717 157.271 206.299 157.412C209.881 157.553 213.427 156.694 216.489 154.945C219.551 153.195 221.991 150.633 223.502 147.582C225.526 143.487 225.735 138.805 224.081 134.567C222.427 130.328 219.047 126.879 214.683 124.98ZM220.965 146.478C219.688 149.061 217.622 151.23 215.03 152.712C212.438 154.193 209.436 154.92 206.404 154.8C203.372 154.681 200.446 153.72 197.996 152.04C195.545 150.359 193.681 148.035 192.639 145.36C191.596 142.686 191.423 139.781 192.14 137.014C192.857 134.247 194.432 131.741 196.667 129.815C198.902 127.888 201.695 126.626 204.694 126.189C207.693 125.752 210.763 126.159 213.515 127.36C215.342 128.155 216.985 129.281 218.348 130.673C219.712 132.064 220.77 133.695 221.462 135.47C222.154 137.245 222.466 139.131 222.381 141.02C222.296 142.909 221.815 144.763 220.965 146.478Z" fill="url(#paint18_linear_416_32542)"/>
<path d="M231.639 197.382L221.184 195.719L219.962 202.48L230.417 204.143L231.639 197.382Z" fill="white" stroke="black" stroke-width="1.3516" stroke-miterlimit="10"/>
<path d="M219.951 202.479L230.406 204.142L229.633 208.426C229.582 208.709 229.413 208.96 229.164 209.126C228.915 209.292 228.606 209.359 228.305 209.311L220.079 208.002C219.778 207.954 219.51 207.796 219.333 207.563C219.156 207.329 219.085 207.039 219.136 206.757L219.91 202.473L219.951 202.479Z" fill="white" stroke="black" stroke-width="1.3516" stroke-miterlimit="10"/>
<path d="M239.749 119.262L233.559 127.091L244.021 128.75L240.951 119.395C240.9 119.291 240.822 119.202 240.723 119.135C240.625 119.068 240.51 119.026 240.39 119.012C240.269 118.999 240.147 119.015 240.035 119.059C239.923 119.102 239.824 119.172 239.749 119.262Z" fill="#FFE0B5"/>
<path d="M240.947 119.412L242.157 123.115L237.293 122.332L239.746 119.201C239.827 119.113 239.931 119.047 240.048 119.009C240.164 118.971 240.29 118.963 240.411 118.984C240.532 119.005 240.646 119.056 240.74 119.131C240.834 119.206 240.905 119.303 240.947 119.412Z" fill="#455FE8"/>
<path d="M244.021 128.761L233.566 127.098L221.022 196.544L231.477 198.207L244.021 128.761Z" fill="url(#paint19_linear_416_32542)"/>
<path d="M241.372 128.329L236.23 127.512L223.686 196.958L228.828 197.775L241.372 128.329Z" fill="url(#paint20_linear_416_32542)"/>
<path d="M241.499 205.421L243.768 166.551C243.802 166.093 243.737 165.634 243.575 165.202C243.414 164.769 243.161 164.372 242.831 164.034C242.5 163.696 242.1 163.425 241.655 163.237C241.209 163.049 240.727 162.949 240.239 162.941H205.39C204.901 162.948 204.42 163.047 203.974 163.234C203.529 163.421 203.129 163.692 202.798 164.029C202.468 164.366 202.214 164.763 202.053 165.195C201.892 165.627 201.826 166.086 201.86 166.543L204.105 205.421C204.169 206.96 204.859 208.417 206.034 209.492C207.21 210.567 208.779 211.178 210.42 211.199H235.183C236.824 211.178 238.394 210.567 239.569 209.492C240.744 208.417 241.435 206.96 241.499 205.421Z" fill="#365210"/>
<path d="M164.594 168.623C164.594 168.623 166.137 183.647 167.989 186.779C169.842 189.91 191.592 196.776 193.503 196.901C195.413 197.027 198.509 195.617 198.509 195.617C198.509 195.617 203.315 197.238 204.099 196.839C204.883 196.439 199.802 193.034 197.85 192.674C195.897 192.314 192.927 193.762 192.927 193.762C192.927 193.762 176.116 187.194 174.238 184.367C172.361 181.541 170.901 167.527 170.901 167.527L164.594 168.623Z" fill="#FCD2C8"/>
<path d="M166.477 154.375L163.949 159.339L169.055 160.826L170.49 155.111L166.477 154.375Z" fill="#FFDEDE"/>
<path d="M164.726 150.439C164.767 150.615 164.795 150.793 164.81 150.972C164.842 152.308 165.214 153.618 165.894 154.792C166.256 155.416 166.76 155.958 167.37 156.379C167.98 156.799 168.681 157.089 169.424 157.227C170.105 157.307 170.797 157.256 171.457 157.077C172.117 156.898 172.731 156.595 173.261 156.186C174.323 155.365 175.161 154.318 175.706 153.132C176.615 151.308 177.667 149.022 176.649 147.253C176.165 146.392 173.311 144.81 171.326 143.761C170.728 143.451 170.04 143.326 169.363 143.407C168.685 143.487 168.051 143.767 167.555 144.207L165.302 146.204C164.892 146.569 164.592 147.029 164.431 147.537C164.27 148.045 164.254 148.584 164.384 149.1L164.726 150.439Z" fill="#FFDEDE"/>
<path d="M167.629 147.29C167.311 147.202 166.97 147.221 166.665 147.344C166.36 147.467 166.111 147.686 165.961 147.964C165.822 148.238 165.746 148.537 165.739 148.84C165.732 149.144 165.793 149.445 165.919 149.725C166.166 150.29 166.5 150.818 166.912 151.291C166 152.332 165.52 153.647 165.56 154.994C164.545 154.245 163.649 153.365 162.899 152.379C161.464 150.563 159.62 143.533 165.468 142.006C172.26 135.015 179.936 147.134 181.362 146.656C181.114 147.785 180.45 148.795 179.488 149.511C178.525 150.227 177.325 150.602 176.098 150.571C174.623 150.659 173.159 150.293 171.926 149.53C171.36 149.097 170.748 148.722 170.099 148.41C169.607 148.214 168.897 150.218 168.489 150.015C168.08 149.811 168.13 147.447 167.629 147.29Z" fill="black"/>
<path d="M163.376 189.535C159.137 200.871 160.639 207.729 168.014 210.039C170.951 210.955 189.423 211.55 202.572 210.97C210.915 210.595 215.654 209.671 215.621 204.793C215.571 196.784 190.758 199.673 184.984 198.217C179.211 196.761 177.617 185.934 177.617 185.934L163.376 189.535Z" fill="#8079E2"/>
<path d="M169.364 159.596C163.833 155.854 157.801 159.134 157.801 172.169C157.801 184.977 160.078 201.739 160.078 201.739C169.156 203.023 176.131 200.956 183.648 197.042C183.648 197.042 177.699 187.576 175.413 179.317C173.561 172.631 173.845 162.618 169.364 159.596Z" fill="#C8D4B7"/>
<path d="M166.785 169.667C165.982 169.803 165.264 170.221 164.777 170.836C164.291 171.451 164.072 172.217 164.166 172.978C164.708 177.48 165.893 186.053 167.236 188.331C169.088 191.462 186.525 197.639 188.436 197.726C189.804 197.685 191.151 197.392 192.399 196.864C193.095 196.605 193.865 196.583 194.577 196.802C196.053 197.256 198.498 197.937 199.04 197.663C199.833 197.271 194.744 193.858 192.791 193.498C191.538 193.392 190.277 193.588 189.129 194.069C188.704 194.22 188.251 194.285 187.798 194.259C187.345 194.234 186.902 194.118 186.5 193.921C183.163 192.3 174.995 188.127 173.493 185.88C172.184 183.915 171.107 176.564 170.565 172.25C170.514 171.84 170.374 171.443 170.153 171.085C169.932 170.728 169.635 170.416 169.281 170.17C168.927 169.925 168.522 169.749 168.093 169.656C167.664 169.563 167.219 169.553 166.785 169.628V169.667Z" fill="#FFDEDE"/>
<path d="M165.66 160.099C159.152 161.759 162.173 174.512 162.173 174.512C165.176 175.514 168.889 175.123 172.977 174.011C171.742 170.934 171.517 158.596 165.66 160.099Z" fill="white"/>
<path d="M211.23 200.298H185.866C185.479 200.298 185.108 200.153 184.834 199.897C184.56 199.64 184.406 199.291 184.406 198.928C184.406 198.564 184.56 198.216 184.834 197.959C185.108 197.702 185.479 197.558 185.866 197.558H209.978L213.39 176.514C213.415 176.332 213.477 176.157 213.574 175.999C213.672 175.84 213.802 175.702 213.957 175.591C214.112 175.481 214.289 175.4 214.478 175.355C214.667 175.31 214.864 175.301 215.056 175.328C215.249 175.355 215.434 175.418 215.6 175.513C215.767 175.609 215.911 175.734 216.025 175.883C216.139 176.031 216.22 176.199 216.263 176.378C216.306 176.556 216.311 176.741 216.277 176.921L212.656 199.116C212.608 199.44 212.438 199.738 212.176 199.955C211.915 200.172 211.579 200.293 211.23 200.298Z" fill="#FFBA49"/>
<path d="M114.841 86.9755C115.258 90.107 118.503 102.986 115.934 103.048C112.529 103.126 102.101 101.952 101.692 101.936C99.1887 101.843 99.3055 87.4687 99.3055 86.2787C99.2471 77.7687 113.614 77.6513 114.841 86.9755Z" fill="black"/>
<path d="M97.114 108.977L96.7636 121.566L86.7852 132.659L91.8995 131.97L101.327 122.74L101.694 107.059L97.114 108.977Z" fill="#FFDEDE"/>
<path d="M103.971 96.9102C98.6894 97.787 97.6132 102.931 96.3867 110.008L104.054 110.665L103.862 103.455" fill="#667185"/>
<path d="M86.1424 171.528C83.8981 174.385 79.0924 177.509 79.4095 178.816C79.7265 180.124 89.9553 174.691 89.9553 174.691L89.4046 171.332L86.1424 171.528Z" fill="#241D9E"/>
<path d="M104.078 138.051C103.169 141.081 87.4752 140.713 87.6004 142.02C88.1427 147.657 89.3441 167.073 89.9532 172.616L84.8054 172.764C81.635 161.984 76.8544 145.152 78.8317 137.949C80.784 130.903 94.058 128.273 104.42 130.261C106.806 130.7 105.271 134.137 104.078 138.051Z" fill="#8079E2"/>
<path d="M97.6703 171.528C95.426 174.385 90.6119 177.509 90.929 178.816C91.246 180.124 101.483 174.691 101.483 174.691L100.932 171.332L97.6703 171.528Z" fill="#241D9E"/>
<path d="M114.342 139.949C111.672 142.352 99.3826 142 98.5817 143.965C100.476 150.831 101.919 167.514 101.744 172.572L96.5876 172.72C93.4256 161.94 88.9119 147.026 89.7963 139.635C90.5555 133.372 110.479 128.19 114.334 130.241C116.461 131.321 117.446 137.138 114.342 139.949Z" fill="#8585FF"/>
<path d="M117.563 117.391C116.462 100.371 113.525 95.2044 104.573 96.7859C97.2141 98.0776 100.301 105.609 97.6146 119.396L94.2773 131.303C102.17 131.045 99.4835 130.755 106.901 132.196C111.907 133.848 118.489 140.557 118.047 133.394C118.014 133.394 117.788 121.235 117.563 117.391Z" fill="#667185"/>
<path d="M110.419 89.0506C110.06 86.7019 108.942 86.0051 106.355 87.2343C104.687 88.0172 101.575 88.6043 100.215 87.8841C100.315 91.0626 102 96.0183 104.829 96.0809C104.992 96.7482 104.992 97.4414 104.829 98.1086C104.987 98.6645 107.382 98.6097 108.166 97.9599C108.099 97.177 107.69 96.0261 107.715 95.3215C109.384 95.0475 110.218 93.5522 110.844 91.4071C113.355 89.9666 111.52 87.3439 110.419 89.0506Z" fill="#FFDEDE"/>
<path d="M111.346 108.977L111.004 121.558L100.992 132.659L106.107 131.97C106.107 131.97 114.775 123.405 115.534 122.74C116.294 122.074 115.901 107.082 115.901 107.082L111.346 108.977Z" fill="#FFDEDE"/>
<path d="M109.779 96.8086C115.052 97.6854 117.288 102.727 117.088 110.008L109.445 110.65L109.637 103.44" fill="#667185"/>
<path d="M109.761 131.289H82.4451C82.265 131.307 82.0983 131.387 81.9772 131.514C81.8561 131.64 81.7891 131.804 81.7891 131.974C81.7891 132.144 81.8561 132.308 81.9772 132.435C82.0983 132.561 82.265 132.641 82.4451 132.659H109.761C109.941 132.641 110.108 132.561 110.229 132.435C110.35 132.308 110.417 132.144 110.417 131.974C110.417 131.804 110.35 131.64 110.229 131.514C110.108 131.387 109.941 131.307 109.761 131.289Z" fill="#5864F7"/>
<path d="M105.115 112.852H83.9229C83.3349 112.87 82.7786 113.106 82.3753 113.508C81.9721 113.91 81.7546 114.445 81.7703 114.997V131.289H107.267V114.989C107.283 114.438 107.065 113.903 106.662 113.503C106.258 113.102 105.702 112.868 105.115 112.852Z" fill="#54A6FA"/>
<path d="M276.8 150.704L261.24 146.32L247.766 170.504C247.766 170.504 247.766 189.606 247.832 205.687C249.372 206.202 251.026 206.339 252.638 206.086C254.624 192.62 258.036 176.219 258.036 176.219C258.036 176.219 268.699 157.383 276.8 150.704Z" fill="#8079E2"/>
<path d="M282.675 147.445L268.625 152.096L270.844 175.175C270.844 175.175 281.565 191.616 290.868 203.563C292.854 203.171 294.405 200.65 294.405 200.65C288.14 189.651 283.459 175.927 283.459 175.927C283.459 175.927 280.481 156.488 282.675 147.445Z" fill="#8079E2"/>
<path d="M279.351 113.354C283.798 118.278 292.341 141.937 281.937 159.81C276.614 159.81 257.867 160.163 254.797 154.197C260.971 149.249 268.747 126.937 267.587 124.158C266.069 134.821 263.324 140.395 258.743 143.487L255.231 142.039C257.508 140.113 260.721 137.662 261.905 130.781C263.223 123.007 263.415 111.451 273.377 111.263C277.599 111.193 279.376 113.354 279.376 113.354" fill="#C8D4B7"/>
<g style="mix-blend-mode:multiply" opacity="0.4">
<path d="M279.805 124.971C281.109 124.048 282.341 123.038 283.492 121.949C285.647 128.938 286.324 136.254 285.486 143.486C284.744 142.704 282.349 139.838 281.724 138.977C283.15 135.11 281.882 129.95 279.805 124.971Z" fill="#365210"/>
</g>
<path d="M277.634 108.093C276.108 110.856 277.034 114.614 273.596 114.027C271.861 113.737 273.813 106.66 274.139 106.66C275.329 107.081 276.496 107.559 277.634 108.093Z" fill="#FFDEDE"/>
<path d="M272.972 99.8644C271.303 104.1 271.303 111.819 277.143 110.441C278.897 110.006 280.536 109.237 281.96 108.183C283.384 107.128 284.561 105.81 285.42 104.311C285.42 104.311 283.91 84.4885 272.972 99.8644Z" fill="#FFDEDE"/>
<path d="M276.559 111.699C289.215 113.351 301.705 151.008 270.66 144.917C269.275 143.547 268.992 142.608 267.59 141.112C290.4 144.408 283.651 127.983 278.119 122.652" fill="#4C7317"/>
<path d="M267.631 141.231C267.105 141.014 266.537 140.899 265.963 140.895C265.682 140.895 265.406 140.96 265.159 141.084C264.911 141.209 264.7 141.388 264.544 141.607C264.391 141.922 264.348 142.274 264.422 142.613C264.495 142.952 264.681 143.26 264.953 143.494C265.512 143.949 266.183 144.266 266.905 144.418C268.141 144.785 269.431 144.965 270.727 144.95" fill="#FFDEDE"/>
<path d="M256.751 140.802C256.238 140.589 255.685 140.475 255.124 140.465C254.845 140.463 254.569 140.528 254.322 140.652C254.076 140.776 253.867 140.957 253.714 141.177C253.558 141.491 253.512 141.843 253.584 142.182C253.656 142.522 253.842 142.831 254.115 143.064C254.675 143.517 255.346 143.835 256.067 143.988C257.31 144.325 259.73 144.27 260.906 143.487" fill="#FFDEDE"/>
<path d="M290.835 203.533C290.835 203.533 284.352 210.446 285.245 211.151C286.137 211.856 297.476 204.747 297.509 203.886C297.542 203.025 294.372 200.621 294.372 200.621L290.835 203.533Z" fill="#241D9E"/>
<path d="M252.638 206.087L247.832 205.688C247.832 205.688 235.626 206.564 235.751 207.496C235.876 208.428 251.603 211.277 252.304 210.557C253.005 209.837 252.638 206.087 252.638 206.087Z" fill="#241D9E"/>
<path d="M266.02 139.508H280.111C280.389 139.508 280.665 139.559 280.922 139.659C281.179 139.759 281.413 139.906 281.61 140.09C281.806 140.275 281.963 140.494 282.069 140.735C282.176 140.977 282.23 141.235 282.23 141.496C282.23 141.757 282.176 142.016 282.069 142.257C281.963 142.499 281.806 142.718 281.61 142.902C281.413 143.087 281.179 143.234 280.922 143.334C280.665 143.433 280.389 143.485 280.111 143.485H266.02V143.015C266.72 141.903 266.954 141.152 266.02 139.985V139.508Z" fill="#966EF9"/>
<path d="M252.996 139.508H267.079C267.641 139.508 268.18 139.717 268.578 140.09C268.975 140.463 269.199 140.969 269.199 141.496C269.2 141.758 269.146 142.017 269.04 142.259C268.933 142.5 268.777 142.72 268.58 142.905C268.383 143.09 268.149 143.236 267.892 143.336C267.634 143.435 267.358 143.486 267.079 143.485H252.996V143.015C253.697 141.903 253.931 141.152 252.996 139.985V139.508Z" fill="#B097FF"/>
<path d="M252.996 139.984H266.804C267.016 139.983 267.227 140.022 267.423 140.097C267.619 140.173 267.798 140.284 267.948 140.424C268.098 140.565 268.218 140.732 268.299 140.915C268.381 141.099 268.423 141.296 268.423 141.495C268.423 141.898 268.252 142.284 267.949 142.569C267.645 142.854 267.233 143.014 266.804 143.014H252.996C253.342 142.576 253.529 142.045 253.529 141.499C253.529 140.954 253.342 140.423 252.996 139.984Z" fill="#FDFDFD"/>
<path d="M266.02 135.531H280.111C280.389 135.531 280.665 135.583 280.922 135.683C281.179 135.783 281.413 135.929 281.61 136.114C281.806 136.298 281.963 136.518 282.069 136.759C282.176 137 282.23 137.259 282.23 137.52C282.23 137.781 282.176 138.04 282.069 138.281C281.963 138.522 281.806 138.741 281.61 138.926C281.413 139.111 281.179 139.257 280.922 139.357C280.665 139.457 280.389 139.508 280.111 139.508H266.02V139.039C266.72 137.927 266.954 137.175 266.02 136.001V135.531Z" fill="#667185"/>
<path d="M252.996 135.531H267.079C267.358 135.531 267.633 135.583 267.89 135.683C268.147 135.783 268.381 135.929 268.578 136.114C268.775 136.298 268.931 136.518 269.037 136.759C269.144 137 269.199 137.259 269.199 137.52C269.199 137.781 269.144 138.04 269.037 138.281C268.931 138.522 268.775 138.741 268.578 138.926C268.381 139.111 268.147 139.257 267.89 139.357C267.633 139.457 267.358 139.508 267.079 139.508H252.996V139.039C253.697 137.927 253.931 137.175 252.996 136.001V135.531Z" fill="#FF9FCD"/>
<path d="M252.996 136H266.804C267.233 136 267.645 136.16 267.949 136.445C268.252 136.73 268.423 137.116 268.423 137.519C268.423 137.922 268.252 138.308 267.949 138.593C267.645 138.878 267.233 139.038 266.804 139.038H252.996C253.342 138.598 253.528 138.065 253.528 137.519C253.528 136.972 253.342 136.44 252.996 136Z" fill="#FDFDFD"/>
<path d="M266.02 123.594H280.111C280.389 123.594 280.665 123.645 280.922 123.745C281.179 123.845 281.413 123.992 281.61 124.176C281.806 124.361 281.963 124.58 282.069 124.821C282.176 125.063 282.23 125.321 282.23 125.582C282.23 125.843 282.176 126.102 282.069 126.343C281.963 126.585 281.806 126.804 281.61 126.988C281.413 127.173 281.179 127.32 280.922 127.419C280.665 127.519 280.389 127.571 280.111 127.571H266.02V127.093C266.72 125.982 266.954 125.23 266.02 124.063V123.594Z" fill="#667185"/>
<path d="M252.996 123.594H267.079C267.358 123.594 267.633 123.645 267.89 123.745C268.147 123.845 268.381 123.992 268.578 124.176C268.775 124.361 268.931 124.58 269.037 124.821C269.144 125.063 269.199 125.321 269.199 125.582C269.2 125.844 269.146 126.103 269.04 126.344C268.933 126.586 268.777 126.806 268.58 126.991C268.383 127.176 268.149 127.322 267.892 127.422C267.634 127.521 267.358 127.572 267.079 127.571H252.996V127.093C253.697 125.982 253.931 125.23 252.996 124.063V123.594Z" fill="#FF9FCD"/>
<path d="M252.996 124.07H266.804C267.016 124.069 267.227 124.108 267.423 124.183C267.619 124.259 267.798 124.37 267.948 124.51C268.098 124.65 268.218 124.817 268.299 125.001C268.381 125.185 268.423 125.382 268.423 125.581C268.423 125.984 268.252 126.37 267.949 126.655C267.645 126.94 267.233 127.1 266.804 127.1H252.996C253.342 126.662 253.529 126.131 253.529 125.585C253.529 125.04 253.342 124.509 252.996 124.07Z" fill="#FDFDFD"/>
<path d="M266.02 131.555H280.111C280.389 131.555 280.665 131.606 280.922 131.706C281.179 131.806 281.413 131.952 281.61 132.137C281.806 132.322 281.963 132.541 282.069 132.782C282.176 133.023 282.23 133.282 282.23 133.543C282.23 133.804 282.176 134.063 282.069 134.304C281.963 134.545 281.806 134.765 281.61 134.949C281.413 135.134 281.179 135.28 280.922 135.38C280.665 135.48 280.389 135.532 280.111 135.532H266.02V135.054C266.72 133.95 266.954 133.191 266.02 132.024V131.555Z" fill="#757BFF"/>
<path d="M252.996 131.555H267.079C267.358 131.554 267.634 131.604 267.892 131.704C268.149 131.804 268.383 131.95 268.58 132.135C268.777 132.32 268.933 132.539 269.04 132.781C269.146 133.023 269.2 133.282 269.199 133.543C269.199 133.804 269.144 134.063 269.037 134.304C268.931 134.545 268.775 134.765 268.578 134.949C268.381 135.134 268.147 135.28 267.89 135.38C267.633 135.48 267.358 135.532 267.079 135.532H252.996V135.054C253.697 133.95 253.931 133.191 252.996 132.024V131.555Z" fill="#8FA4FF"/>
<path d="M252.996 132.023H266.804C267.233 132.023 267.645 132.183 267.949 132.468C268.252 132.753 268.423 133.139 268.423 133.542C268.423 133.741 268.381 133.938 268.299 134.122C268.218 134.306 268.098 134.473 267.948 134.613C267.798 134.754 267.619 134.865 267.423 134.94C267.227 135.016 267.016 135.054 266.804 135.053H252.996C253.342 134.615 253.529 134.084 253.529 133.538C253.529 132.993 253.342 132.462 252.996 132.023Z" fill="#FDFDFD"/>
<path d="M266.02 119.617H280.111C280.39 119.617 280.666 119.669 280.924 119.769C281.182 119.87 281.416 120.017 281.613 120.202C281.809 120.388 281.965 120.608 282.071 120.85C282.177 121.092 282.231 121.352 282.23 121.614C282.23 121.875 282.176 122.133 282.069 122.375C281.963 122.616 281.806 122.835 281.61 123.02C281.413 123.204 281.179 123.351 280.922 123.451C280.665 123.551 280.389 123.602 280.111 123.602H266.02V123.132C266.72 122.021 266.954 121.269 266.02 120.095V119.617Z" fill="#757BFF"/>
<path d="M252.996 119.617H267.079C267.641 119.617 268.18 119.827 268.578 120.2C268.975 120.573 269.199 121.078 269.199 121.606C269.199 121.867 269.144 122.125 269.037 122.367C268.931 122.608 268.775 122.827 268.578 123.012C268.381 123.196 268.147 123.343 267.89 123.443C267.633 123.543 267.358 123.594 267.079 123.594H252.996V123.125C253.697 122.013 253.931 121.261 252.996 120.087V119.617Z" fill="#8FA4FF"/>
<path d="M252.996 120.086H266.804C267.233 120.086 267.645 120.246 267.949 120.531C268.252 120.816 268.423 121.202 268.423 121.605C268.423 122.008 268.252 122.394 267.949 122.679C267.645 122.964 267.233 123.124 266.804 123.124H252.996C253.342 122.684 253.528 122.151 253.528 121.605C253.528 121.058 253.342 120.526 252.996 120.086Z" fill="#FDFDFD"/>
<path d="M266.02 127.57H280.111C280.674 127.572 281.213 127.784 281.61 128.158C282.007 128.532 282.23 129.039 282.23 129.567C282.23 129.828 282.176 130.086 282.069 130.328C281.963 130.569 281.806 130.788 281.61 130.973C281.413 131.157 281.179 131.304 280.922 131.404C280.665 131.504 280.389 131.555 280.111 131.555H266.02V131.078C266.72 129.974 266.954 129.214 266.02 128.048V127.57Z" fill="#FFBA49"/>
<path d="M252.996 127.57H267.079C267.358 127.57 267.635 127.622 267.892 127.722C268.15 127.823 268.384 127.97 268.581 128.156C268.778 128.341 268.934 128.561 269.04 128.803C269.146 129.045 269.2 129.305 269.199 129.567C269.199 130.094 268.975 130.6 268.578 130.973C268.18 131.346 267.641 131.555 267.079 131.555H252.996V131.078C253.697 129.974 253.931 129.214 252.996 128.048V127.57Z" fill="#FFDC90"/>
<path d="M252.996 128.047H266.804C267.233 128.047 267.645 128.207 267.949 128.492C268.252 128.777 268.423 129.163 268.423 129.566C268.423 129.765 268.381 129.962 268.299 130.146C268.218 130.33 268.098 130.496 267.948 130.637C267.798 130.777 267.619 130.888 267.423 130.964C267.227 131.039 267.016 131.078 266.804 131.077H252.996C253.342 130.638 253.529 130.107 253.529 129.562C253.529 129.016 253.342 128.485 252.996 128.047Z" fill="#FDFDFD"/>
<path d="M274.757 100.593C275.712 100.846 276.689 101.013 277.677 101.094C278.897 101.256 280.104 101.494 281.29 101.806C281.68 101.867 282.035 102.055 282.291 102.339C282.409 102.522 282.477 102.728 282.491 102.942C282.572 103.639 282.418 104.343 282.049 104.954C282.441 104.742 282.683 104.28 283.134 104.233C283.584 104.186 284.027 104.781 284.018 105.29C283.938 105.822 283.731 106.331 283.412 106.777C283.092 107.223 282.669 107.595 282.174 107.866C282.61 107.956 283.061 107.952 283.495 107.854C283.929 107.757 284.333 107.568 284.677 107.302C285.37 106.765 285.921 106.084 286.288 105.314C287.217 103.411 287.693 101.34 287.681 99.2463C287.725 98.6826 287.639 98.1167 287.431 97.5866C287.319 97.3239 287.131 97.0962 286.887 96.9299C286.644 96.7636 286.355 96.6656 286.054 96.6471C285.795 96.6471 285.512 96.7254 285.286 96.6001C285.18 96.5162 285.094 96.4122 285.034 96.2948C284.973 96.1774 284.94 96.0493 284.936 95.919C284.753 94.9763 284.313 94.094 283.66 93.3575C283.006 92.6209 282.161 92.0552 281.207 91.7149C280.241 91.4007 279.198 91.3562 278.206 91.5868C277.214 91.8175 276.314 92.3135 275.617 93.0145C275.24 93.5096 274.738 93.908 274.154 94.1734C273.571 94.4387 272.927 94.5625 272.279 94.5333C271.262 94.5881 270.085 94.7525 269.776 95.8486C269.226 97.9702 273.047 100.053 274.757 100.593Z" fill="black"/>
<defs>
<linearGradient id="paint0_linear_416_32542" x1="336.894" y1="151.574" x2="225.438" y2="187.004" gradientUnits="userSpaceOnUse">
<stop stop-color="#6E5E8D"/>
<stop offset="1" stop-color="#824AD3"/>
</linearGradient>
<linearGradient id="paint1_linear_416_32542" x1="370.344" y1="89.5142" x2="161.006" y2="208.366" gradientUnits="userSpaceOnUse">
<stop stop-color="#DDD2F0"/>
<stop offset="1" stop-color="#8582C9"/>
</linearGradient>
<linearGradient id="paint2_linear_416_32542" x1="5.75212" y1="68.0088" x2="169.728" y2="221.548" gradientUnits="userSpaceOnUse">
<stop stop-color="#55476F"/>
<stop offset="1" stop-color="#8B3BFF"/>
</linearGradient>
<linearGradient id="paint3_linear_416_32542" x1="162.541" y1="108.484" x2="171.293" y2="277.735" gradientUnits="userSpaceOnUse">
<stop stop-color="#6F87FC"/>
<stop offset="1" stop-color="#824AD3"/>
</linearGradient>
<linearGradient id="paint4_linear_416_32542" x1="98.2978" y1="-35.2257" x2="114.673" y2="127.656" gradientUnits="userSpaceOnUse">
<stop stop-color="#738B12"/>
<stop offset="1" stop-color="#4C7317" stop-opacity="0.52"/>
</linearGradient>
<linearGradient id="paint5_linear_416_32542" x1="275.556" y1="25.6928" x2="196.073" y2="186.607" gradientUnits="userSpaceOnUse">
<stop stop-color="#4C7317" stop-opacity="0.6"/>
<stop offset="1" stop-color="#00674B"/>
</linearGradient>
<linearGradient id="paint6_linear_416_32542" x1="158.927" y1="107.299" x2="260.631" y2="107.299" gradientUnits="userSpaceOnUse">
<stop stop-color="#2B6565"/>
<stop offset="1" stop-color="#2BBA90"/>
</linearGradient>
<linearGradient id="paint7_linear_416_32542" x1="181.501" y1="2.01496" x2="151.077" y2="103.994" gradientUnits="userSpaceOnUse">
<stop stop-color="#624491"/>
<stop offset="1" stop-color="#4C7317"/>
</linearGradient>
<linearGradient id="paint8_linear_416_32542" x1="212.435" y1="128.408" x2="129.151" y2="73.0669" gradientUnits="userSpaceOnUse">
<stop stop-color="#2B6565"/>
<stop offset="1" stop-color="#2BBA90"/>
</linearGradient>
<linearGradient id="paint9_linear_416_32542" x1="30.6059" y1="128.931" x2="113.002" y2="143.467" gradientUnits="userSpaceOnUse">
<stop stop-color="#4C7317"/>
<stop offset="1" stop-color="#00674B"/>
</linearGradient>
<linearGradient id="paint10_linear_416_32542" x1="65.8805" y1="138.453" x2="67.5419" y2="132.618" gradientUnits="userSpaceOnUse">
<stop stop-color="#2B6565"/>
<stop offset="1" stop-color="#2BBA90"/>
</linearGradient>
<linearGradient id="paint11_linear_416_32542" x1="68.0002" y1="95.0149" x2="114.869" y2="164.734" gradientUnits="userSpaceOnUse">
<stop stop-color="#95AD34"/>
<stop offset="1" stop-color="#2BBA90"/>
</linearGradient>
<linearGradient id="paint12_linear_416_32542" x1="69.801" y1="128.849" x2="102.897" y2="118.314" gradientUnits="userSpaceOnUse">
<stop stop-color="#2B6565"/>
<stop offset="1" stop-color="#2BBA90"/>
</linearGradient>
<linearGradient id="paint13_linear_416_32542" x1="217.648" y1="152.6" x2="153.289" y2="198.944" gradientUnits="userSpaceOnUse">
<stop stop-color="#A6A6A6"/>
<stop offset="1" stop-color="#4C7317"/>
</linearGradient>
<linearGradient id="paint14_linear_416_32542" x1="165.318" y1="169.894" x2="206.942" y2="169.894" gradientUnits="userSpaceOnUse">
<stop stop-color="#2B6565"/>
<stop offset="1" stop-color="#2BBA90"/>
</linearGradient>
<linearGradient id="paint15_linear_416_32542" x1="257.159" y1="165.617" x2="184.849" y2="203.714" gradientUnits="userSpaceOnUse">
<stop stop-color="#614789"/>
<stop offset="1" stop-color="#A38FC7"/>
</linearGradient>
<linearGradient id="paint16_linear_416_32542" x1="241.985" y1="172.642" x2="183.952" y2="199.343" gradientUnits="userSpaceOnUse">
<stop stop-color="#B2DB90"/>
<stop offset="1" stop-color="#2BBA90"/>
</linearGradient>
<linearGradient id="paint17_linear_416_32542" x1="226.458" y1="178.537" x2="226.458" y2="117.793" gradientUnits="userSpaceOnUse">
<stop stop-color="#FFB14C"/>
<stop offset="1" stop-color="#FFD64C"/>
</linearGradient>
<linearGradient id="paint18_linear_416_32542" x1="197.383" y1="119.99" x2="209.338" y2="163.377" gradientUnits="userSpaceOnUse">
<stop offset="0.166667" stop-color="#5C4581"/>
<stop offset="0.856667" stop-color="#634495"/>
</linearGradient>
<linearGradient id="paint19_linear_416_32542" x1="238.281" y1="129.427" x2="229.699" y2="178.887" gradientUnits="userSpaceOnUse">
<stop stop-color="#87A82F"/>
<stop offset="1" stop-color="#4C7317"/>
</linearGradient>
<linearGradient id="paint20_linear_416_32542" x1="240.231" y1="164.621" x2="222.456" y2="164.662" gradientUnits="userSpaceOnUse">
<stop stop-color="#B7CD7A"/>
<stop offset="1" stop-color="#4C7317"/>
</linearGradient>
</defs>
</svg>
