<svg width="644" height="197" viewBox="0 0 644 197" fill="none" xmlns="http://www.w3.org/2000/svg">
<path d="M0.512817 88.4684C12.8552 88.4684 16.9693 66 28.8546 66C43.696 66 90.279 105 105.652 105C118.908 105 125.151 83.7526 144.507 83.7526C169.578 83.7526 176.506 19.5 192.048 19.5C209.419 19.5 219.933 123 236.846 123C253.76 123 265.952 54 282.559 54C297.749 54 313.186 87.5 325.529 87.5C346.099 87.5 395.926 0.5 408.725 0.5C426.845 0.5 428.839 54 457.638 54C482.322 54 494.593 87.5 507.921 87.5C523.007 87.5 565.062 31 580.538 31C598.309 31 617.141 64 643.688 64V196.5L0.512817 196.5V88.4684Z" fill="url(#paint0_linear_416_32447)"/>
<defs>
<linearGradient id="paint0_linear_416_32447" x1="322.1" y1="196.5" x2="322.1" y2="-164.5" gradientUnits="userSpaceOnUse">
<stop stop-color="#A2C41A" stop-opacity="0"/>
<stop offset="1" stop-color="#A2C41A" stop-opacity="0.12"/>
</linearGradient>
</defs>
</svg>
