<svg width="639" height="19" viewBox="0 0 639 19" fill="none" xmlns="http://www.w3.org/2000/svg">
<path d="M1.88104 5.27273H3.1424L6.10831 12.517H6.21058L9.17649 5.27273H10.4379V14H9.44922V7.36932H9.36399L6.63672 14H5.68217L2.9549 7.36932H2.86967V14H1.88104V5.27273ZM14.3466 14.1534C13.9318 14.1534 13.5554 14.0753 13.2173 13.919C12.8793 13.7599 12.6108 13.5312 12.4119 13.233C12.2131 12.9318 12.1136 12.5682 12.1136 12.142C12.1136 11.767 12.1875 11.4631 12.3352 11.2301C12.483 10.9943 12.6804 10.8097 12.9276 10.6761C13.1747 10.5426 13.4474 10.4432 13.7457 10.3778C14.0469 10.3097 14.3494 10.2557 14.6534 10.2159C15.0511 10.1648 15.3736 10.1264 15.6207 10.1009C15.8707 10.0724 16.0526 10.0256 16.1662 9.96023C16.2827 9.89489 16.3409 9.78125 16.3409 9.61932V9.58523C16.3409 9.16477 16.2259 8.83807 15.9957 8.60511C15.7685 8.37216 15.4233 8.25568 14.9602 8.25568C14.4801 8.25568 14.1037 8.3608 13.831 8.57102C13.5582 8.78125 13.3665 9.00568 13.2557 9.24432L12.3011 8.90341C12.4716 8.50568 12.6989 8.19602 12.983 7.97443C13.2699 7.75 13.5824 7.59375 13.9205 7.50568C14.2614 7.41477 14.5966 7.36932 14.9261 7.36932C15.1364 7.36932 15.3778 7.39489 15.6506 7.44602C15.9261 7.49432 16.1918 7.59517 16.4474 7.74858C16.706 7.90199 16.9205 8.13352 17.0909 8.44318C17.2614 8.75284 17.3466 9.16761 17.3466 9.6875V14H16.3409V13.1136H16.2898C16.2216 13.2557 16.108 13.4077 15.9489 13.5696C15.7898 13.7315 15.5781 13.8693 15.3139 13.983C15.0497 14.0966 14.7273 14.1534 14.3466 14.1534ZM14.5 13.25C14.8977 13.25 15.233 13.1719 15.5057 13.0156C15.7813 12.8594 15.9886 12.6577 16.1278 12.4105C16.2699 12.1634 16.3409 11.9034 16.3409 11.6307V10.7102C16.2983 10.7614 16.2045 10.8082 16.0597 10.8509C15.9176 10.8906 15.7528 10.9261 15.5653 10.9574C15.3807 10.9858 15.2003 11.0114 15.0241 11.0341C14.8509 11.054 14.7102 11.071 14.6023 11.0852C14.3409 11.1193 14.0966 11.1747 13.8693 11.2514C13.6449 11.3253 13.4631 11.4375 13.3239 11.5881C13.1875 11.7358 13.1193 11.9375 13.1193 12.1932C13.1193 12.5426 13.2486 12.8068 13.5071 12.9858C13.7685 13.1619 14.0994 13.25 14.5 13.25ZM19.5955 16.4545C19.4251 16.4545 19.2731 16.4403 19.1396 16.4119C19.006 16.3864 18.9137 16.3608 18.8626 16.3352L19.1183 15.4489C19.3626 15.5114 19.5785 15.5341 19.766 15.517C19.9535 15.5 20.1197 15.4162 20.2646 15.2656C20.4123 15.1179 20.5472 14.8778 20.6694 14.5455L20.8569 14.0341L18.4364 7.45455H19.5273L21.3342 12.6705H21.4023L23.2092 7.45455H24.3001L21.5217 14.9545C21.3967 15.2926 21.2418 15.5724 21.0572 15.794C20.8725 16.0185 20.658 16.1847 20.4137 16.2926C20.1722 16.4006 19.8995 16.4545 19.5955 16.4545ZM28.9854 14V13.233L31.8661 10.0795C32.2042 9.71023 32.4826 9.3892 32.7013 9.11648C32.9201 8.84091 33.082 8.58239 33.1871 8.34091C33.2951 8.09659 33.3491 7.84091 33.3491 7.57386C33.3491 7.26705 33.2752 7.00142 33.1275 6.77699C32.9826 6.55256 32.7837 6.37926 32.5309 6.2571C32.2781 6.13494 31.994 6.07386 31.6786 6.07386C31.3434 6.07386 31.0508 6.14347 30.8008 6.28267C30.5536 6.41903 30.3619 6.6108 30.2255 6.85795C30.092 7.10511 30.0252 7.39489 30.0252 7.72727H29.0195C29.0195 7.21591 29.1374 6.76705 29.3732 6.38068C29.609 5.99432 29.93 5.69318 30.3363 5.47727C30.7454 5.26136 31.2042 5.15341 31.7127 5.15341C32.2241 5.15341 32.6772 5.26136 33.0721 5.47727C33.467 5.69318 33.7766 5.98437 34.0011 6.35085C34.2255 6.71733 34.3377 7.125 34.3377 7.57386C34.3377 7.89489 34.2795 8.20881 34.163 8.51562C34.0494 8.8196 33.8505 9.15909 33.5664 9.53409C33.2852 9.90625 32.8945 10.3608 32.3945 10.8977L30.4343 12.9943V13.0625H34.4911V14H28.9854ZM35.859 12.2102V11.3409L39.6942 5.27273H40.3249V6.61932H39.8988L37.0011 11.2045V11.2727H42.1658V12.2102H35.859ZM39.967 14V11.946V11.5412V5.27273H40.9727V14H39.967Z" fill="#64748B"/>
<path d="M87.4865 5.27273H88.7479L91.7138 12.517H91.8161L94.782 5.27273H96.0433V14H95.0547V7.36932H94.9695L92.2422 14H91.2876L88.5604 7.36932H88.4751V14H87.4865V5.27273ZM99.9521 14.1534C99.5373 14.1534 99.1609 14.0753 98.8228 13.919C98.4847 13.7599 98.2163 13.5312 98.0174 13.233C97.8185 12.9318 97.7191 12.5682 97.7191 12.142C97.7191 11.767 97.793 11.4631 97.9407 11.2301C98.0884 10.9943 98.2859 10.8097 98.533 10.6761C98.7802 10.5426 99.0529 10.4432 99.3512 10.3778C99.6523 10.3097 99.9549 10.2557 100.259 10.2159C100.657 10.1648 100.979 10.1264 101.226 10.1009C101.476 10.0724 101.658 10.0256 101.772 9.96023C101.888 9.89489 101.946 9.78125 101.946 9.61932V9.58523C101.946 9.16477 101.831 8.83807 101.601 8.60511C101.374 8.37216 101.029 8.25568 100.566 8.25568C100.086 8.25568 99.7092 8.3608 99.4364 8.57102C99.1637 8.78125 98.9719 9.00568 98.8612 9.24432L97.9066 8.90341C98.0771 8.50568 98.3043 8.19602 98.5884 7.97443C98.8754 7.75 99.1879 7.59375 99.5259 7.50568C99.8668 7.41477 100.202 7.36932 100.532 7.36932C100.742 7.36932 100.983 7.39489 101.256 7.44602C101.532 7.49432 101.797 7.59517 102.053 7.74858C102.311 7.90199 102.526 8.13352 102.696 8.44318C102.867 8.75284 102.952 9.16761 102.952 9.6875V14H101.946V13.1136H101.895C101.827 13.2557 101.713 13.4077 101.554 13.5696C101.395 13.7315 101.184 13.8693 100.919 13.983C100.655 14.0966 100.333 14.1534 99.9521 14.1534ZM100.105 13.25C100.503 13.25 100.838 13.1719 101.111 13.0156C101.387 12.8594 101.594 12.6577 101.733 12.4105C101.875 12.1634 101.946 11.9034 101.946 11.6307V10.7102C101.904 10.7614 101.81 10.8082 101.665 10.8509C101.523 10.8906 101.358 10.9261 101.171 10.9574C100.986 10.9858 100.806 11.0114 100.63 11.0341C100.456 11.054 100.316 11.071 100.208 11.0852C99.9464 11.1193 99.7021 11.1747 99.4748 11.2514C99.2504 11.3253 99.0685 11.4375 98.9293 11.5881C98.793 11.7358 98.7248 11.9375 98.7248 12.1932C98.7248 12.5426 98.854 12.8068 99.1126 12.9858C99.3739 13.1619 99.7049 13.25 100.105 13.25ZM105.201 16.4545C105.031 16.4545 104.879 16.4403 104.745 16.4119C104.612 16.3864 104.519 16.3608 104.468 16.3352L104.724 15.4489C104.968 15.5114 105.184 15.5341 105.371 15.517C105.559 15.5 105.725 15.4162 105.87 15.2656C106.018 15.1179 106.153 14.8778 106.275 14.5455L106.462 14.0341L104.042 7.45455H105.133L106.94 12.6705H107.008L108.815 7.45455H109.906L107.127 14.9545C107.002 15.2926 106.847 15.5724 106.663 15.794C106.478 16.0185 106.263 16.1847 106.019 16.2926C105.778 16.4006 105.505 16.4545 105.201 16.4545ZM114.591 14V13.233L117.472 10.0795C117.81 9.71023 118.088 9.3892 118.307 9.11648C118.526 8.84091 118.688 8.58239 118.793 8.34091C118.901 8.09659 118.955 7.84091 118.955 7.57386C118.955 7.26705 118.881 7.00142 118.733 6.77699C118.588 6.55256 118.389 6.37926 118.136 6.2571C117.884 6.13494 117.599 6.07386 117.284 6.07386C116.949 6.07386 116.656 6.14347 116.406 6.28267C116.159 6.41903 115.967 6.6108 115.831 6.85795C115.697 7.10511 115.631 7.39489 115.631 7.72727H114.625C114.625 7.21591 114.743 6.76705 114.979 6.38068C115.214 5.99432 115.536 5.69318 115.942 5.47727C116.351 5.26136 116.81 5.15341 117.318 5.15341C117.83 5.15341 118.283 5.26136 118.678 5.47727C119.072 5.69318 119.382 5.98437 119.607 6.35085C119.831 6.71733 119.943 7.125 119.943 7.57386C119.943 7.89489 119.885 8.20881 119.768 8.51562C119.655 8.8196 119.456 9.15909 119.172 9.53409C118.891 9.90625 118.5 10.3608 118 10.8977L116.04 12.9943V13.0625H120.097V14H114.591ZM124.584 14.1193C124.084 14.1193 123.634 14.0199 123.233 13.821C122.832 13.6222 122.511 13.3494 122.27 13.0028C122.028 12.6562 121.896 12.2614 121.874 11.8182H122.896C122.936 12.2131 123.115 12.5398 123.433 12.7983C123.754 13.054 124.138 13.1818 124.584 13.1818C124.942 13.1818 125.26 13.098 125.538 12.9304C125.82 12.7628 126.04 12.5327 126.199 12.2401C126.361 11.9446 126.442 11.6108 126.442 11.2386C126.442 10.858 126.358 10.5185 126.19 10.2202C126.026 9.91903 125.798 9.68182 125.509 9.50852C125.219 9.33523 124.888 9.24716 124.516 9.24432C124.249 9.24148 123.974 9.28267 123.693 9.3679C123.412 9.45028 123.18 9.55682 122.999 9.6875L122.01 9.56818L122.538 5.27273H127.072V6.21023H123.425L123.118 8.78409H123.169C123.348 8.64205 123.572 8.52415 123.842 8.4304C124.112 8.33665 124.393 8.28977 124.686 8.28977C125.22 8.28977 125.696 8.41761 126.114 8.6733C126.534 8.92614 126.864 9.27273 127.102 9.71307C127.344 10.1534 127.464 10.6562 127.464 11.2216C127.464 11.7784 127.339 12.2756 127.089 12.7131C126.842 13.1477 126.501 13.4915 126.067 13.7443C125.632 13.9943 125.138 14.1193 124.584 14.1193Z" fill="#64748B"/>
<path d="M172.092 5.27273H173.353L176.319 12.517H176.422L179.387 5.27273H180.649V14H179.66V7.36932H179.575L176.848 14H175.893L173.166 7.36932H173.081V14H172.092V5.27273ZM184.558 14.1534C184.143 14.1534 183.766 14.0753 183.428 13.919C183.09 13.7599 182.822 13.5312 182.623 13.233C182.424 12.9318 182.325 12.5682 182.325 12.142C182.325 11.767 182.398 11.4631 182.546 11.2301C182.694 10.9943 182.891 10.8097 183.138 10.6761C183.386 10.5426 183.658 10.4432 183.957 10.3778C184.258 10.3097 184.56 10.2557 184.864 10.2159C185.262 10.1648 185.585 10.1264 185.832 10.1009C186.082 10.0724 186.263 10.0256 186.377 9.96023C186.494 9.89489 186.552 9.78125 186.552 9.61932V9.58523C186.552 9.16477 186.437 8.83807 186.207 8.60511C185.979 8.37216 185.634 8.25568 185.171 8.25568C184.691 8.25568 184.315 8.3608 184.042 8.57102C183.769 8.78125 183.577 9.00568 183.467 9.24432L182.512 8.90341C182.683 8.50568 182.91 8.19602 183.194 7.97443C183.481 7.75 183.793 7.59375 184.131 7.50568C184.472 7.41477 184.808 7.36932 185.137 7.36932C185.347 7.36932 185.589 7.39489 185.862 7.44602C186.137 7.49432 186.403 7.59517 186.658 7.74858C186.917 7.90199 187.131 8.13352 187.302 8.44318C187.472 8.75284 187.558 9.16761 187.558 9.6875V14H186.552V13.1136H186.501C186.433 13.2557 186.319 13.4077 186.16 13.5696C186.001 13.7315 185.789 13.8693 185.525 13.983C185.261 14.0966 184.938 14.1534 184.558 14.1534ZM184.711 13.25C185.109 13.25 185.444 13.1719 185.717 13.0156C185.992 12.8594 186.2 12.6577 186.339 12.4105C186.481 12.1634 186.552 11.9034 186.552 11.6307V10.7102C186.509 10.7614 186.415 10.8082 186.271 10.8509C186.129 10.8906 185.964 10.9261 185.776 10.9574C185.592 10.9858 185.411 11.0114 185.235 11.0341C185.062 11.054 184.921 11.071 184.813 11.0852C184.552 11.1193 184.308 11.1747 184.08 11.2514C183.856 11.3253 183.674 11.4375 183.535 11.5881C183.398 11.7358 183.33 11.9375 183.33 12.1932C183.33 12.5426 183.46 12.8068 183.718 12.9858C183.979 13.1619 184.31 13.25 184.711 13.25ZM189.806 16.4545C189.636 16.4545 189.484 16.4403 189.35 16.4119C189.217 16.3864 189.125 16.3608 189.074 16.3352L189.329 15.4489C189.574 15.5114 189.789 15.5341 189.977 15.517C190.164 15.5 190.331 15.4162 190.475 15.2656C190.623 15.1179 190.758 14.8778 190.88 14.5455L191.068 14.0341L188.647 7.45455H189.738L191.545 12.6705H191.613L193.42 7.45455H194.511L191.733 14.9545C191.608 15.2926 191.453 15.5724 191.268 15.794C191.083 16.0185 190.869 16.1847 190.625 16.2926C190.383 16.4006 190.11 16.4545 189.806 16.4545ZM199.196 14V13.233L202.077 10.0795C202.415 9.71023 202.694 9.3892 202.912 9.11648C203.131 8.84091 203.293 8.58239 203.398 8.34091C203.506 8.09659 203.56 7.84091 203.56 7.57386C203.56 7.26705 203.486 7.00142 203.338 6.77699C203.194 6.55256 202.995 6.37926 202.742 6.2571C202.489 6.13494 202.205 6.07386 201.89 6.07386C201.554 6.07386 201.262 6.14347 201.012 6.28267C200.765 6.41903 200.573 6.6108 200.436 6.85795C200.303 7.10511 200.236 7.39489 200.236 7.72727H199.23C199.23 7.21591 199.348 6.76705 199.584 6.38068C199.82 5.99432 200.141 5.69318 200.547 5.47727C200.956 5.26136 201.415 5.15341 201.924 5.15341C202.435 5.15341 202.888 5.26136 203.283 5.47727C203.678 5.69318 203.988 5.98437 204.212 6.35085C204.436 6.71733 204.549 7.125 204.549 7.57386C204.549 7.89489 204.49 8.20881 204.374 8.51562C204.26 8.8196 204.061 9.15909 203.777 9.53409C203.496 9.90625 203.105 10.3608 202.605 10.8977L200.645 12.9943V13.0625H204.702V14H199.196ZM209.36 14.1193C209.002 14.1136 208.644 14.0455 208.286 13.9148C207.928 13.7841 207.601 13.5639 207.306 13.2543C207.01 12.9418 206.773 12.5199 206.594 11.9886C206.415 11.4545 206.326 10.7841 206.326 9.97727C206.326 9.20455 206.398 8.51989 206.543 7.9233C206.688 7.32386 206.898 6.8196 207.174 6.41051C207.449 5.99858 207.782 5.68608 208.171 5.47301C208.563 5.25994 209.005 5.15341 209.496 5.15341C209.985 5.15341 210.419 5.25142 210.8 5.44744C211.184 5.64062 211.496 5.91051 211.738 6.2571C211.979 6.60369 212.135 7.00284 212.206 7.45455H211.167C211.07 7.0625 210.882 6.73722 210.604 6.47869C210.326 6.22017 209.956 6.09091 209.496 6.09091C208.82 6.09091 208.287 6.38494 207.898 6.97301C207.512 7.56108 207.317 8.38636 207.314 9.44886H207.382C207.542 9.20739 207.73 9.00142 207.949 8.83097C208.171 8.65767 208.415 8.52415 208.682 8.4304C208.949 8.33665 209.232 8.28977 209.53 8.28977C210.03 8.28977 210.488 8.41477 210.902 8.66477C211.317 8.91193 211.65 9.25426 211.9 9.69176C212.15 10.1264 212.275 10.625 212.275 11.1875C212.275 11.7273 212.154 12.2216 211.912 12.6705C211.671 13.1165 211.331 13.4716 210.894 13.7358C210.459 13.9972 209.948 14.125 209.36 14.1193ZM209.36 13.1818C209.718 13.1818 210.039 13.0923 210.323 12.9134C210.61 12.7344 210.836 12.4943 211 12.1932C211.168 11.892 211.252 11.5568 211.252 11.1875C211.252 10.8267 211.171 10.4986 211.009 10.2031C210.85 9.90483 210.63 9.66761 210.348 9.49148C210.07 9.31534 209.752 9.22727 209.394 9.22727C209.124 9.22727 208.873 9.28125 208.64 9.3892C208.407 9.49432 208.202 9.6392 208.026 9.82386C207.853 10.0085 207.716 10.2202 207.617 10.4588C207.517 10.6946 207.468 10.9432 207.468 11.2045C207.468 11.5511 207.549 11.875 207.711 12.1761C207.875 12.4773 208.1 12.7202 208.384 12.9048C208.671 13.0895 208.996 13.1818 209.36 13.1818Z" fill="#64748B"/>
<path d="M257.694 5.27273H258.955L261.921 12.517H262.023L264.989 5.27273H266.25V14H265.262V7.36932H265.176L262.449 14H261.495L258.767 7.36932H258.682V14H257.694V5.27273ZM270.159 14.1534C269.744 14.1534 269.368 14.0753 269.03 13.919C268.692 13.7599 268.423 13.5312 268.224 13.233C268.026 12.9318 267.926 12.5682 267.926 12.142C267.926 11.767 268 11.4631 268.148 11.2301C268.295 10.9943 268.493 10.8097 268.74 10.6761C268.987 10.5426 269.26 10.4432 269.558 10.3778C269.859 10.3097 270.162 10.2557 270.466 10.2159C270.864 10.1648 271.186 10.1264 271.433 10.1009C271.683 10.0724 271.865 10.0256 271.979 9.96023C272.095 9.89489 272.153 9.78125 272.153 9.61932V9.58523C272.153 9.16477 272.038 8.83807 271.808 8.60511C271.581 8.37216 271.236 8.25568 270.773 8.25568C270.293 8.25568 269.916 8.3608 269.643 8.57102C269.371 8.78125 269.179 9.00568 269.068 9.24432L268.114 8.90341C268.284 8.50568 268.511 8.19602 268.795 7.97443C269.082 7.75 269.395 7.59375 269.733 7.50568C270.074 7.41477 270.409 7.36932 270.739 7.36932C270.949 7.36932 271.19 7.39489 271.463 7.44602C271.739 7.49432 272.004 7.59517 272.26 7.74858C272.518 7.90199 272.733 8.13352 272.903 8.44318C273.074 8.75284 273.159 9.16761 273.159 9.6875V14H272.153V13.1136H272.102C272.034 13.2557 271.92 13.4077 271.761 13.5696C271.602 13.7315 271.391 13.8693 271.126 13.983C270.862 14.0966 270.54 14.1534 270.159 14.1534ZM270.312 13.25C270.71 13.25 271.045 13.1719 271.318 13.0156C271.594 12.8594 271.801 12.6577 271.94 12.4105C272.082 12.1634 272.153 11.9034 272.153 11.6307V10.7102C272.111 10.7614 272.017 10.8082 271.872 10.8509C271.73 10.8906 271.565 10.9261 271.378 10.9574C271.193 10.9858 271.013 11.0114 270.837 11.0341C270.663 11.054 270.523 11.071 270.415 11.0852C270.153 11.1193 269.909 11.1747 269.682 11.2514C269.457 11.3253 269.276 11.4375 269.136 11.5881C269 11.7358 268.932 11.9375 268.932 12.1932C268.932 12.5426 269.061 12.8068 269.32 12.9858C269.581 13.1619 269.912 13.25 270.312 13.25ZM275.408 16.4545C275.238 16.4545 275.086 16.4403 274.952 16.4119C274.819 16.3864 274.726 16.3608 274.675 16.3352L274.931 15.4489C275.175 15.5114 275.391 15.5341 275.578 15.517C275.766 15.5 275.932 15.4162 276.077 15.2656C276.225 15.1179 276.36 14.8778 276.482 14.5455L276.669 14.0341L274.249 7.45455H275.34L277.147 12.6705H277.215L279.022 7.45455H280.113L277.334 14.9545C277.209 15.2926 277.054 15.5724 276.87 15.794C276.685 16.0185 276.471 16.1847 276.226 16.2926C275.985 16.4006 275.712 16.4545 275.408 16.4545ZM284.798 14V13.233L287.679 10.0795C288.017 9.71023 288.295 9.3892 288.514 9.11648C288.733 8.84091 288.895 8.58239 289 8.34091C289.108 8.09659 289.162 7.84091 289.162 7.57386C289.162 7.26705 289.088 7.00142 288.94 6.77699C288.795 6.55256 288.596 6.37926 288.343 6.2571C288.091 6.13494 287.806 6.07386 287.491 6.07386C287.156 6.07386 286.863 6.14347 286.613 6.28267C286.366 6.41903 286.174 6.6108 286.038 6.85795C285.904 7.10511 285.838 7.39489 285.838 7.72727H284.832C284.832 7.21591 284.95 6.76705 285.186 6.38068C285.422 5.99432 285.743 5.69318 286.149 5.47727C286.558 5.26136 287.017 5.15341 287.525 5.15341C288.037 5.15341 288.49 5.26136 288.885 5.47727C289.279 5.69318 289.589 5.98437 289.814 6.35085C290.038 6.71733 290.15 7.125 290.15 7.57386C290.15 7.89489 290.092 8.20881 289.975 8.51562C289.862 8.8196 289.663 9.15909 289.379 9.53409C289.098 9.90625 288.707 10.3608 288.207 10.8977L286.247 12.9943V13.0625H290.304V14H284.798ZM292.336 14L296.24 6.27841V6.21023H291.74V5.27273H297.331V6.26136L293.444 14H292.336Z" fill="#64748B"/>
<path d="M342.299 5.27273H343.56L346.526 12.517H346.629L349.594 5.27273H350.856V14H349.867V7.36932H349.782L347.055 14H346.1L343.373 7.36932H343.288V14H342.299V5.27273ZM354.765 14.1534C354.35 14.1534 353.973 14.0753 353.635 13.919C353.297 13.7599 353.029 13.5312 352.83 13.233C352.631 12.9318 352.532 12.5682 352.532 12.142C352.532 11.767 352.605 11.4631 352.753 11.2301C352.901 10.9943 353.098 10.8097 353.346 10.6761C353.593 10.5426 353.865 10.4432 354.164 10.3778C354.465 10.3097 354.767 10.2557 355.071 10.2159C355.469 10.1648 355.792 10.1264 356.039 10.1009C356.289 10.0724 356.471 10.0256 356.584 9.96023C356.701 9.89489 356.759 9.78125 356.759 9.61932V9.58523C356.759 9.16477 356.644 8.83807 356.414 8.60511C356.186 8.37216 355.841 8.25568 355.378 8.25568C354.898 8.25568 354.522 8.3608 354.249 8.57102C353.976 8.78125 353.784 9.00568 353.674 9.24432L352.719 8.90341C352.89 8.50568 353.117 8.19602 353.401 7.97443C353.688 7.75 354 7.59375 354.338 7.50568C354.679 7.41477 355.015 7.36932 355.344 7.36932C355.554 7.36932 355.796 7.39489 356.069 7.44602C356.344 7.49432 356.61 7.59517 356.865 7.74858C357.124 7.90199 357.338 8.13352 357.509 8.44318C357.679 8.75284 357.765 9.16761 357.765 9.6875V14H356.759V13.1136H356.708C356.64 13.2557 356.526 13.4077 356.367 13.5696C356.208 13.7315 355.996 13.8693 355.732 13.983C355.468 14.0966 355.145 14.1534 354.765 14.1534ZM354.918 13.25C355.316 13.25 355.651 13.1719 355.924 13.0156C356.199 12.8594 356.407 12.6577 356.546 12.4105C356.688 12.1634 356.759 11.9034 356.759 11.6307V10.7102C356.716 10.7614 356.623 10.8082 356.478 10.8509C356.336 10.8906 356.171 10.9261 355.983 10.9574C355.799 10.9858 355.618 11.0114 355.442 11.0341C355.269 11.054 355.128 11.071 355.02 11.0852C354.759 11.1193 354.515 11.1747 354.287 11.2514C354.063 11.3253 353.881 11.4375 353.742 11.5881C353.605 11.7358 353.537 11.9375 353.537 12.1932C353.537 12.5426 353.667 12.8068 353.925 12.9858C354.186 13.1619 354.517 13.25 354.918 13.25ZM360.013 16.4545C359.843 16.4545 359.691 16.4403 359.558 16.4119C359.424 16.3864 359.332 16.3608 359.281 16.3352L359.536 15.4489C359.781 15.5114 359.996 15.5341 360.184 15.517C360.371 15.5 360.538 15.4162 360.683 15.2656C360.83 15.1179 360.965 14.8778 361.087 14.5455L361.275 14.0341L358.854 7.45455H359.945L361.752 12.6705H361.82L363.627 7.45455H364.718L361.94 14.9545C361.815 15.2926 361.66 15.5724 361.475 15.794C361.29 16.0185 361.076 16.1847 360.832 16.2926C360.59 16.4006 360.317 16.4545 360.013 16.4545ZM369.403 14V13.233L372.284 10.0795C372.622 9.71023 372.901 9.3892 373.119 9.11648C373.338 8.84091 373.5 8.58239 373.605 8.34091C373.713 8.09659 373.767 7.84091 373.767 7.57386C373.767 7.26705 373.693 7.00142 373.545 6.77699C373.401 6.55256 373.202 6.37926 372.949 6.2571C372.696 6.13494 372.412 6.07386 372.097 6.07386C371.761 6.07386 371.469 6.14347 371.219 6.28267C370.972 6.41903 370.78 6.6108 370.643 6.85795C370.51 7.10511 370.443 7.39489 370.443 7.72727H369.438C369.438 7.21591 369.555 6.76705 369.791 6.38068C370.027 5.99432 370.348 5.69318 370.754 5.47727C371.163 5.26136 371.622 5.15341 372.131 5.15341C372.642 5.15341 373.095 5.26136 373.49 5.47727C373.885 5.69318 374.195 5.98437 374.419 6.35085C374.643 6.71733 374.756 7.125 374.756 7.57386C374.756 7.89489 374.697 8.20881 374.581 8.51562C374.467 8.8196 374.268 9.15909 373.984 9.53409C373.703 9.90625 373.312 10.3608 372.812 10.8977L370.852 12.9943V13.0625H374.909V14H369.403ZM379.464 14.1193C378.879 14.1193 378.362 14.0156 377.913 13.8082C377.467 13.598 377.119 13.3097 376.869 12.9432C376.619 12.5739 376.496 12.1534 376.499 11.6818C376.496 11.3125 376.568 10.9716 376.716 10.6591C376.864 10.3437 377.065 10.081 377.321 9.87074C377.58 9.65767 377.868 9.52273 378.186 9.46591V9.41477C377.768 9.30682 377.436 9.07244 377.189 8.71165C376.942 8.34801 376.82 7.93466 376.822 7.47159C376.82 7.02841 376.932 6.6321 377.159 6.28267C377.386 5.93324 377.699 5.65767 378.097 5.45597C378.497 5.25426 378.953 5.15341 379.464 5.15341C379.97 5.15341 380.422 5.25426 380.82 5.45597C381.217 5.65767 381.53 5.93324 381.757 6.28267C381.987 6.6321 382.104 7.02841 382.107 7.47159C382.104 7.93466 381.977 8.34801 381.727 8.71165C381.48 9.07244 381.152 9.30682 380.743 9.41477V9.46591C381.058 9.52273 381.342 9.65767 381.595 9.87074C381.848 10.081 382.05 10.3437 382.2 10.6591C382.351 10.9716 382.428 11.3125 382.43 11.6818C382.428 12.1534 382.3 12.5739 382.047 12.9432C381.797 13.3097 381.449 13.598 381.003 13.8082C380.56 14.0156 380.047 14.1193 379.464 14.1193ZM379.464 13.1818C379.859 13.1818 380.2 13.1179 380.487 12.9901C380.774 12.8622 380.996 12.6818 381.152 12.4489C381.308 12.2159 381.388 11.9432 381.391 11.6307C381.388 11.3011 381.303 11.0099 381.135 10.7571C380.967 10.5043 380.739 10.3054 380.449 10.1605C380.162 10.0156 379.834 9.94318 379.464 9.94318C379.092 9.94318 378.76 10.0156 378.467 10.1605C378.178 10.3054 377.949 10.5043 377.781 10.7571C377.616 11.0099 377.536 11.3011 377.538 11.6307C377.536 11.9432 377.611 12.2159 377.764 12.4489C377.92 12.6818 378.143 12.8622 378.433 12.9901C378.723 13.1179 379.067 13.1818 379.464 13.1818ZM379.464 9.03977C379.777 9.03977 380.054 8.97727 380.295 8.85227C380.54 8.72727 380.732 8.55256 380.871 8.32812C381.01 8.10369 381.081 7.84091 381.084 7.53977C381.081 7.24432 381.011 6.98722 380.875 6.76847C380.739 6.54687 380.55 6.37642 380.308 6.2571C380.067 6.13494 379.786 6.07386 379.464 6.07386C379.138 6.07386 378.852 6.13494 378.608 6.2571C378.364 6.37642 378.175 6.54687 378.041 6.76847C377.908 6.98722 377.842 7.24432 377.845 7.53977C377.842 7.84091 377.909 8.10369 378.045 8.32812C378.185 8.55256 378.376 8.72727 378.621 8.85227C378.865 8.97727 379.146 9.03977 379.464 9.03977Z" fill="#64748B"/>
<path d="M426.904 5.27273H428.166L431.132 12.517H431.234L434.2 5.27273H435.461V14H434.473V7.36932H434.387L431.66 14H430.706L427.978 7.36932H427.893V14H426.904V5.27273ZM439.37 14.1534C438.955 14.1534 438.579 14.0753 438.241 13.919C437.903 13.7599 437.634 13.5312 437.435 13.233C437.237 12.9318 437.137 12.5682 437.137 12.142C437.137 11.767 437.211 11.4631 437.359 11.2301C437.506 10.9943 437.704 10.8097 437.951 10.6761C438.198 10.5426 438.471 10.4432 438.769 10.3778C439.07 10.3097 439.373 10.2557 439.677 10.2159C440.075 10.1648 440.397 10.1264 440.644 10.1009C440.894 10.0724 441.076 10.0256 441.19 9.96023C441.306 9.89489 441.364 9.78125 441.364 9.61932V9.58523C441.364 9.16477 441.249 8.83807 441.019 8.60511C440.792 8.37216 440.447 8.25568 439.984 8.25568C439.504 8.25568 439.127 8.3608 438.854 8.57102C438.582 8.78125 438.39 9.00568 438.279 9.24432L437.325 8.90341C437.495 8.50568 437.722 8.19602 438.006 7.97443C438.293 7.75 438.606 7.59375 438.944 7.50568C439.285 7.41477 439.62 7.36932 439.95 7.36932C440.16 7.36932 440.401 7.39489 440.674 7.44602C440.95 7.49432 441.215 7.59517 441.471 7.74858C441.729 7.90199 441.944 8.13352 442.114 8.44318C442.285 8.75284 442.37 9.16761 442.37 9.6875V14H441.364V13.1136H441.313C441.245 13.2557 441.131 13.4077 440.972 13.5696C440.813 13.7315 440.602 13.8693 440.337 13.983C440.073 14.0966 439.751 14.1534 439.37 14.1534ZM439.523 13.25C439.921 13.25 440.256 13.1719 440.529 13.0156C440.805 12.8594 441.012 12.6577 441.151 12.4105C441.293 12.1634 441.364 11.9034 441.364 11.6307V10.7102C441.322 10.7614 441.228 10.8082 441.083 10.8509C440.941 10.8906 440.776 10.9261 440.589 10.9574C440.404 10.9858 440.224 11.0114 440.048 11.0341C439.874 11.054 439.734 11.071 439.626 11.0852C439.364 11.1193 439.12 11.1747 438.893 11.2514C438.668 11.3253 438.487 11.4375 438.347 11.5881C438.211 11.7358 438.143 11.9375 438.143 12.1932C438.143 12.5426 438.272 12.8068 438.531 12.9858C438.792 13.1619 439.123 13.25 439.523 13.25ZM444.619 16.4545C444.449 16.4545 444.297 16.4403 444.163 16.4119C444.029 16.3864 443.937 16.3608 443.886 16.3352L444.142 15.4489C444.386 15.5114 444.602 15.5341 444.789 15.517C444.977 15.5 445.143 15.4162 445.288 15.2656C445.436 15.1179 445.571 14.8778 445.693 14.5455L445.88 14.0341L443.46 7.45455H444.551L446.358 12.6705H446.426L448.233 7.45455H449.324L446.545 14.9545C446.42 15.2926 446.265 15.5724 446.081 15.794C445.896 16.0185 445.681 16.1847 445.437 16.2926C445.196 16.4006 444.923 16.4545 444.619 16.4545ZM454.009 14V13.233L456.89 10.0795C457.228 9.71023 457.506 9.3892 457.725 9.11648C457.944 8.84091 458.105 8.58239 458.211 8.34091C458.319 8.09659 458.373 7.84091 458.373 7.57386C458.373 7.26705 458.299 7.00142 458.151 6.77699C458.006 6.55256 457.807 6.37926 457.554 6.2571C457.301 6.13494 457.017 6.07386 456.702 6.07386C456.367 6.07386 456.074 6.14347 455.824 6.28267C455.577 6.41903 455.385 6.6108 455.249 6.85795C455.115 7.10511 455.049 7.39489 455.049 7.72727H454.043C454.043 7.21591 454.161 6.76705 454.397 6.38068C454.632 5.99432 454.953 5.69318 455.36 5.47727C455.769 5.26136 456.228 5.15341 456.736 5.15341C457.248 5.15341 457.701 5.26136 458.096 5.47727C458.49 5.69318 458.8 5.98437 459.025 6.35085C459.249 6.71733 459.361 7.125 459.361 7.57386C459.361 7.89489 459.303 8.20881 459.186 8.51562C459.073 8.8196 458.874 9.15909 458.59 9.53409C458.309 9.90625 457.918 10.3608 457.418 10.8977L455.458 12.9943V13.0625H459.515V14H454.009ZM464.053 5.15341C464.411 5.15625 464.769 5.22443 465.127 5.35795C465.485 5.49148 465.811 5.71307 466.107 6.02273C466.402 6.32955 466.64 6.74858 466.819 7.27983C466.998 7.81108 467.087 8.47727 467.087 9.27841C467.087 10.054 467.013 10.7429 466.865 11.3452C466.721 11.9446 466.51 12.4503 466.235 12.8622C465.962 13.2741 465.63 13.5866 465.238 13.7997C464.848 14.0128 464.408 14.1193 463.917 14.1193C463.428 14.1193 462.992 14.0227 462.608 13.8295C462.228 13.6335 461.915 13.3622 461.671 13.0156C461.429 12.6662 461.275 12.2614 461.206 11.8011H462.246C462.34 12.2017 462.526 12.5327 462.804 12.794C463.086 13.0526 463.456 13.1818 463.917 13.1818C464.59 13.1818 465.121 12.8878 465.51 12.2997C465.902 11.7116 466.098 10.8807 466.098 9.80682H466.03C465.871 10.0455 465.682 10.2514 465.463 10.4247C465.245 10.598 465.002 10.7315 464.735 10.8253C464.468 10.919 464.184 10.9659 463.882 10.9659C463.382 10.9659 462.924 10.8423 462.506 10.5952C462.091 10.3452 461.759 10.0028 461.509 9.56818C461.262 9.13068 461.138 8.63068 461.138 8.06818C461.138 7.53409 461.257 7.04545 461.496 6.60227C461.738 6.15625 462.076 5.80114 462.51 5.53693C462.948 5.27273 463.462 5.14489 464.053 5.15341ZM464.053 6.09091C463.695 6.09091 463.373 6.1804 463.086 6.35938C462.801 6.53551 462.576 6.77415 462.408 7.07528C462.243 7.37358 462.161 7.70455 462.161 8.06818C462.161 8.43182 462.24 8.76278 462.4 9.06108C462.561 9.35653 462.782 9.59233 463.06 9.76847C463.341 9.94176 463.661 10.0284 464.019 10.0284C464.289 10.0284 464.54 9.97585 464.773 9.87074C465.006 9.76278 465.209 9.61648 465.382 9.43182C465.559 9.24432 465.696 9.03267 465.796 8.79688C465.895 8.55824 465.945 8.30966 465.945 8.05114C465.945 7.71023 465.863 7.39062 465.698 7.09233C465.536 6.79403 465.311 6.55256 465.025 6.3679C464.74 6.18324 464.417 6.09091 464.053 6.09091Z" fill="#64748B"/>
<path d="M512.51 5.27273H513.771L516.737 12.517H516.839L519.805 5.27273H521.067V14H520.078V7.36932H519.993L517.266 14H516.311L513.584 7.36932H513.499V14H512.51V5.27273ZM524.975 14.1534C524.561 14.1534 524.184 14.0753 523.846 13.919C523.508 13.7599 523.24 13.5312 523.041 13.233C522.842 12.9318 522.743 12.5682 522.743 12.142C522.743 11.767 522.816 11.4631 522.964 11.2301C523.112 10.9943 523.309 10.8097 523.556 10.6761C523.804 10.5426 524.076 10.4432 524.375 10.3778C524.676 10.3097 524.978 10.2557 525.282 10.2159C525.68 10.1648 526.002 10.1264 526.25 10.1009C526.5 10.0724 526.681 10.0256 526.795 9.96023C526.912 9.89489 526.97 9.78125 526.97 9.61932V9.58523C526.97 9.16477 526.855 8.83807 526.625 8.60511C526.397 8.37216 526.052 8.25568 525.589 8.25568C525.109 8.25568 524.733 8.3608 524.46 8.57102C524.187 8.78125 523.995 9.00568 523.885 9.24432L522.93 8.90341C523.1 8.50568 523.328 8.19602 523.612 7.97443C523.899 7.75 524.211 7.59375 524.549 7.50568C524.89 7.41477 525.225 7.36932 525.555 7.36932C525.765 7.36932 526.007 7.39489 526.279 7.44602C526.555 7.49432 526.821 7.59517 527.076 7.74858C527.335 7.90199 527.549 8.13352 527.72 8.44318C527.89 8.75284 527.975 9.16761 527.975 9.6875V14H526.97V13.1136H526.919C526.85 13.2557 526.737 13.4077 526.578 13.5696C526.419 13.7315 526.207 13.8693 525.943 13.983C525.679 14.0966 525.356 14.1534 524.975 14.1534ZM525.129 13.25C525.527 13.25 525.862 13.1719 526.135 13.0156C526.41 12.8594 526.618 12.6577 526.757 12.4105C526.899 12.1634 526.97 11.9034 526.97 11.6307V10.7102C526.927 10.7614 526.833 10.8082 526.689 10.8509C526.547 10.8906 526.382 10.9261 526.194 10.9574C526.01 10.9858 525.829 11.0114 525.653 11.0341C525.48 11.054 525.339 11.071 525.231 11.0852C524.97 11.1193 524.725 11.1747 524.498 11.2514C524.274 11.3253 524.092 11.4375 523.953 11.5881C523.816 11.7358 523.748 11.9375 523.748 12.1932C523.748 12.5426 523.877 12.8068 524.136 12.9858C524.397 13.1619 524.728 13.25 525.129 13.25ZM530.224 16.4545C530.054 16.4545 529.902 16.4403 529.768 16.4119C529.635 16.3864 529.543 16.3608 529.491 16.3352L529.747 15.4489C529.991 15.5114 530.207 15.5341 530.395 15.517C530.582 15.5 530.749 15.4162 530.893 15.2656C531.041 15.1179 531.176 14.8778 531.298 14.5455L531.486 14.0341L529.065 7.45455H530.156L531.963 12.6705H532.031L533.838 7.45455H534.929L532.151 14.9545C532.026 15.2926 531.871 15.5724 531.686 15.794C531.501 16.0185 531.287 16.1847 531.043 16.2926C530.801 16.4006 530.528 16.4545 530.224 16.4545ZM542.563 14.1193C542.001 14.1193 541.499 14.0227 541.059 13.8295C540.621 13.6364 540.273 13.3679 540.015 13.0241C539.759 12.6776 539.62 12.2756 539.597 11.8182H540.671C540.694 12.0994 540.79 12.3423 540.961 12.5469C541.131 12.7486 541.354 12.9048 541.63 13.0156C541.906 13.1264 542.211 13.1818 542.546 13.1818C542.921 13.1818 543.254 13.1165 543.543 12.9858C543.833 12.8551 544.06 12.6733 544.225 12.4403C544.39 12.2074 544.472 11.9375 544.472 11.6307C544.472 11.3097 544.393 11.027 544.234 10.7827C544.075 10.5355 543.842 10.3423 543.535 10.2031C543.228 10.0639 542.853 9.99432 542.41 9.99432H541.711V9.05682H542.41C542.756 9.05682 543.06 8.99432 543.322 8.86932C543.586 8.74432 543.792 8.56818 543.94 8.34091C544.09 8.11364 544.165 7.84659 544.165 7.53977C544.165 7.24432 544.1 6.98722 543.969 6.76847C543.839 6.54972 543.654 6.37926 543.415 6.2571C543.18 6.13494 542.901 6.07386 542.58 6.07386C542.279 6.07386 541.995 6.12926 541.728 6.24006C541.464 6.34801 541.248 6.50568 541.08 6.71307C540.913 6.91761 540.822 7.16477 540.808 7.45455H539.785C539.802 6.99716 539.94 6.59659 540.198 6.25284C540.457 5.90625 540.795 5.63636 541.212 5.44318C541.633 5.25 542.094 5.15341 542.597 5.15341C543.137 5.15341 543.6 5.26278 543.987 5.48153C544.373 5.69744 544.67 5.98295 544.877 6.33807C545.085 6.69318 545.188 7.0767 545.188 7.48864C545.188 7.98011 545.059 8.39915 544.8 8.74574C544.545 9.09233 544.197 9.33239 543.756 9.46591V9.53409C544.308 9.625 544.738 9.85937 545.048 10.2372C545.357 10.6122 545.512 11.0767 545.512 11.6307C545.512 12.1051 545.383 12.5312 545.124 12.9091C544.869 13.2841 544.519 13.5795 544.076 13.7955C543.633 14.0114 543.129 14.1193 542.563 14.1193ZM550.102 14.1193C549.46 14.1193 548.913 13.9446 548.461 13.5952C548.009 13.2429 547.664 12.733 547.425 12.0653C547.187 11.3949 547.067 10.5852 547.067 9.63636C547.067 8.69318 547.187 7.88778 547.425 7.22017C547.667 6.54972 548.013 6.03835 548.465 5.68608C548.92 5.33097 549.465 5.15341 550.102 5.15341C550.738 5.15341 551.282 5.33097 551.734 5.68608C552.188 6.03835 552.535 6.54972 552.773 7.22017C553.015 7.88778 553.136 8.69318 553.136 9.63636C553.136 10.5852 553.016 11.3949 552.778 12.0653C552.539 12.733 552.194 13.2429 551.742 13.5952C551.29 13.9446 550.744 14.1193 550.102 14.1193ZM550.102 13.1818C550.738 13.1818 551.232 12.875 551.585 12.2614C551.937 11.6477 552.113 10.7727 552.113 9.63636C552.113 8.88068 552.032 8.23722 551.87 7.70597C551.711 7.17472 551.481 6.76989 551.18 6.49148C550.881 6.21307 550.522 6.07386 550.102 6.07386C549.471 6.07386 548.978 6.38494 548.623 7.0071C548.268 7.62642 548.09 8.50284 548.09 9.63636C548.09 10.392 548.17 11.0341 548.329 11.5625C548.488 12.0909 548.717 12.4929 549.015 12.7685C549.316 13.044 549.678 13.1818 550.102 13.1818Z" fill="#64748B"/>
<path d="M598.112 5.27273H599.373L602.339 12.517H602.441L605.407 5.27273H606.668V14H605.68V7.36932H605.594L602.867 14H601.913L599.185 7.36932H599.1V14H598.112V5.27273ZM610.577 14.1534C610.162 14.1534 609.786 14.0753 609.448 13.919C609.11 13.7599 608.841 13.5312 608.642 13.233C608.444 12.9318 608.344 12.5682 608.344 12.142C608.344 11.767 608.418 11.4631 608.566 11.2301C608.713 10.9943 608.911 10.8097 609.158 10.6761C609.405 10.5426 609.678 10.4432 609.976 10.3778C610.277 10.3097 610.58 10.2557 610.884 10.2159C611.282 10.1648 611.604 10.1264 611.851 10.1009C612.101 10.0724 612.283 10.0256 612.397 9.96023C612.513 9.89489 612.571 9.78125 612.571 9.61932V9.58523C612.571 9.16477 612.456 8.83807 612.226 8.60511C611.999 8.37216 611.654 8.25568 611.191 8.25568C610.711 8.25568 610.334 8.3608 610.061 8.57102C609.789 8.78125 609.597 9.00568 609.486 9.24432L608.532 8.90341C608.702 8.50568 608.929 8.19602 609.213 7.97443C609.5 7.75 609.813 7.59375 610.151 7.50568C610.492 7.41477 610.827 7.36932 611.157 7.36932C611.367 7.36932 611.608 7.39489 611.881 7.44602C612.157 7.49432 612.422 7.59517 612.678 7.74858C612.936 7.90199 613.151 8.13352 613.321 8.44318C613.492 8.75284 613.577 9.16761 613.577 9.6875V14H612.571V13.1136H612.52C612.452 13.2557 612.338 13.4077 612.179 13.5696C612.02 13.7315 611.809 13.8693 611.544 13.983C611.28 14.0966 610.958 14.1534 610.577 14.1534ZM610.73 13.25C611.128 13.25 611.463 13.1719 611.736 13.0156C612.012 12.8594 612.219 12.6577 612.358 12.4105C612.5 12.1634 612.571 11.9034 612.571 11.6307V10.7102C612.529 10.7614 612.435 10.8082 612.29 10.8509C612.148 10.8906 611.983 10.9261 611.796 10.9574C611.611 10.9858 611.431 11.0114 611.255 11.0341C611.081 11.054 610.941 11.071 610.833 11.0852C610.571 11.1193 610.327 11.1747 610.1 11.2514C609.875 11.3253 609.694 11.4375 609.554 11.5881C609.418 11.7358 609.35 11.9375 609.35 12.1932C609.35 12.5426 609.479 12.8068 609.738 12.9858C609.999 13.1619 610.33 13.25 610.73 13.25ZM615.826 16.4545C615.656 16.4545 615.504 16.4403 615.37 16.4119C615.237 16.3864 615.144 16.3608 615.093 16.3352L615.349 15.4489C615.593 15.5114 615.809 15.5341 615.996 15.517C616.184 15.5 616.35 15.4162 616.495 15.2656C616.643 15.1179 616.778 14.8778 616.9 14.5455L617.087 14.0341L614.667 7.45455H615.758L617.565 12.6705H617.633L619.44 7.45455H620.531L617.752 14.9545C617.627 15.2926 617.472 15.5724 617.288 15.794C617.103 16.0185 616.888 16.1847 616.644 16.2926C616.403 16.4006 616.13 16.4545 615.826 16.4545ZM628.165 14.1193C627.602 14.1193 627.101 14.0227 626.661 13.8295C626.223 13.6364 625.875 13.3679 625.616 13.0241C625.361 12.6776 625.222 12.2756 625.199 11.8182H626.273C626.295 12.0994 626.392 12.3423 626.562 12.5469C626.733 12.7486 626.956 12.9048 627.232 13.0156C627.507 13.1264 627.813 13.1818 628.148 13.1818C628.523 13.1818 628.855 13.1165 629.145 12.9858C629.435 12.8551 629.662 12.6733 629.827 12.4403C629.991 12.2074 630.074 11.9375 630.074 11.6307C630.074 11.3097 629.994 11.027 629.835 10.7827C629.676 10.5355 629.443 10.3423 629.136 10.2031C628.83 10.0639 628.455 9.99432 628.011 9.99432H627.312V9.05682H628.011C628.358 9.05682 628.662 8.99432 628.923 8.86932C629.188 8.74432 629.393 8.56818 629.541 8.34091C629.692 8.11364 629.767 7.84659 629.767 7.53977C629.767 7.24432 629.702 6.98722 629.571 6.76847C629.44 6.54972 629.256 6.37926 629.017 6.2571C628.781 6.13494 628.503 6.07386 628.182 6.07386C627.881 6.07386 627.597 6.12926 627.33 6.24006C627.065 6.34801 626.849 6.50568 626.682 6.71307C626.514 6.91761 626.423 7.16477 626.409 7.45455H625.386C625.403 6.99716 625.541 6.59659 625.8 6.25284C626.058 5.90625 626.396 5.63636 626.814 5.44318C627.234 5.25 627.696 5.15341 628.199 5.15341C628.739 5.15341 629.202 5.26278 629.588 5.48153C629.974 5.69744 630.271 5.98295 630.479 6.33807C630.686 6.69318 630.79 7.0767 630.79 7.48864C630.79 7.98011 630.661 8.39915 630.402 8.74574C630.146 9.09233 629.798 9.33239 629.358 9.46591V9.53409C629.909 9.625 630.339 9.85937 630.649 10.2372C630.959 10.6122 631.114 11.0767 631.114 11.6307C631.114 12.1051 630.984 12.5312 630.726 12.9091C630.47 13.2841 630.121 13.5795 629.678 13.7955C629.234 14.0114 628.73 14.1193 628.165 14.1193ZM635.925 5.27273V14H634.868V6.38068H634.817L632.686 7.79545V6.72159L634.868 5.27273H635.925Z" fill="#64748B"/>
</svg>
