<svg width="173" height="99" viewBox="0 0 173 99" fill="none" xmlns="http://www.w3.org/2000/svg">
<path d="M127.168 58.8839C128.251 60.2674 129.333 61.5907 130.596 63.0946C130.837 63.4555 131.138 63.5156 131.439 63.5156H135.89C136.431 63.5156 136.672 63.1547 136.311 62.6735C134.326 60.1471 132.1 57.5004 130.175 55.0943C131.559 52.8687 132.942 50.1017 133.905 47.455C134.085 47.0339 133.965 46.7331 133.544 46.5527L130.596 45.2293C130.236 45.0489 129.935 45.1692 129.754 45.5902C129.093 47.2144 128.19 49.0791 126.987 51.1243L118.927 41.1991C124.341 38.1314 128.13 34.7628 128.13 29.4694C128.19 23.8753 124.16 19.8451 118.085 19.8451C111.889 19.8451 107.438 23.9354 107.438 29.5296C107.438 33.0184 109.303 36.4471 112.009 39.8758C107.257 42.8232 103.708 46.4925 103.708 52.207C103.708 59.5456 109.303 64.1773 116.22 64.1773C121.032 64.1773 124.401 61.9517 127.168 58.8839ZM108.521 52.1468C108.521 48.5377 110.927 45.9512 114.957 43.6052C117.724 47.0941 120.852 51.004 124.281 55.2146C122.175 58.0418 119.889 59.6057 116.581 59.6057C111.949 59.6057 108.521 56.6583 108.521 52.1468ZM112.13 29.5897C112.13 26.4618 114.355 24.1159 117.965 24.1159C121.574 24.1159 123.438 26.4017 123.438 29.4694C123.438 32.6575 120.671 34.9433 116.04 37.59C113.694 34.5824 112.13 32.1161 112.13 29.5897Z" fill="#4C7317"/>
<path d="M90.2591 73.4171L99.3937 74.2163L98.8983 79.8791L83.7302 78.552L85.7945 54.9572L100.794 56.2695L100.302 61.8986L91.3355 61.1141L91.0495 64.3837L99.1728 65.0944L98.6862 70.656L90.5629 69.9453L90.2591 73.4171ZM117.502 81.5067L116.788 78.0138L108.935 77.3267L107.626 80.6426L101.087 80.0705L110.937 57.1569L118.285 57.7998L124.007 82.0758L117.502 81.5067ZM110.939 72.2715L115.692 72.6873L114.001 64.4557L110.939 72.2715ZM139.037 83.3908L135.591 75.4132L133.434 75.2245L132.768 82.8423L126.734 82.3144L128.798 58.7196L138.236 59.5453C140.641 59.7556 142.584 60.7069 144.066 62.3989C145.573 64.0705 146.223 66.086 146.017 68.4455C145.893 69.8612 145.419 71.1331 144.596 72.2611C143.775 73.3667 142.716 74.2138 141.419 74.8022L145.509 83.957L139.037 83.3908ZM134.345 64.8091L133.882 70.1011L137.219 70.393C137.959 70.4804 138.586 70.2975 139.101 69.8444C139.617 69.3913 139.909 68.7715 139.977 67.985C140.046 67.1985 139.866 66.5375 139.438 66.0018C139.009 65.4662 138.424 65.1659 137.682 65.101L134.345 64.8091ZM163.723 61.775L169.723 62.3L167.658 85.8948L163.007 85.4878L155.719 72.8946L154.681 84.7594L148.648 84.2316L150.712 60.6367L155.397 61.0467L162.685 73.6399L163.723 61.775Z" fill="#070801"/>
<path d="M17.6165 53.7958L12.8378 46.5378L10.6806 46.7266L11.3471 54.3443L5.31352 54.8722L3.24924 31.2774L12.6872 30.4516C15.0916 30.2413 17.1706 30.8406 18.9242 32.2496C20.6983 33.6341 21.6885 35.5061 21.895 37.8656C22.0188 39.2813 21.7733 40.6161 21.1584 41.8699C20.5416 43.1014 19.6457 44.1194 18.4707 44.9242L24.0883 53.2296L17.6165 53.7958ZM9.76935 36.3111L10.2323 41.6031L13.5693 41.3112C14.3128 41.2688 14.8989 40.9797 15.3276 40.4441C15.7562 39.9084 15.9361 39.2473 15.8673 38.4609C15.7985 37.6744 15.5065 37.0546 14.9914 36.6015C14.4762 36.1484 13.8479 35.9543 13.1063 36.0192L9.76935 36.3111ZM32.7651 46.7644L41.8996 45.9652L42.3951 51.628L27.227 52.955L25.1627 29.3602L40.1622 28.0479L40.6547 33.6769L31.6887 34.4614L31.9747 37.7309L40.0981 37.0202L40.5847 42.5819L32.4613 43.2926L32.7651 46.7644ZM59.2165 32.2568L50.756 32.997L51.0922 36.8396L59.3841 36.1141L59.8943 41.9454L51.6024 42.6709L52.3101 50.7605L46.2766 51.2884L44.2123 27.6935L58.7063 26.4255L59.2165 32.2568ZM70.2719 43.483L79.4064 42.6838L79.9019 48.3465L64.7338 49.6736L62.6695 26.0788L77.6691 24.7665L78.1615 30.3955L69.1955 31.1799L69.4816 34.4495L77.6049 33.7388L78.0915 39.3004L69.9681 40.0112L70.2719 43.483ZM96.0865 46.9306L91.3077 39.6726L89.1505 39.8613L89.817 47.4791L83.7834 48.007L81.7192 24.4121L91.1571 23.5864C93.5615 23.3761 95.6405 23.9754 97.3941 25.3843C99.1682 26.7689 100.158 28.6409 100.365 31.0003C100.489 32.416 100.243 33.7508 99.6283 35.0047C99.0115 36.2361 98.1156 37.2542 96.9406 38.0589L102.558 46.3644L96.0865 46.9306ZM88.2393 29.4459L88.7023 34.7379L92.0392 34.4459C92.7828 34.4035 93.3688 34.1145 93.7975 33.5788C94.2261 33.0432 94.406 32.3821 94.3372 31.5956C94.2684 30.8091 93.9765 30.1893 93.4613 29.7363C92.9462 29.2832 92.3178 29.0891 91.5763 29.154L88.2393 29.4459Z" fill="#070801"/>
</svg>
