<svg width="23" height="237" viewBox="0 0 23 237" fill="none" xmlns="http://www.w3.org/2000/svg">
<path d="M6.27628 5.27273V14H5.21946V6.38068H5.16832L3.03764 7.79545V6.72159L5.21946 5.27273H6.27628ZM11.6328 14.1193C10.9908 14.1193 10.4439 13.9446 9.99219 13.5952C9.54048 13.2429 9.19531 12.733 8.95668 12.0653C8.71804 11.3949 8.59872 10.5852 8.59872 9.63636C8.59872 8.69318 8.71804 7.88778 8.95668 7.22017C9.19815 6.54972 9.54474 6.03835 9.99645 5.68608C10.451 5.33097 10.9964 5.15341 11.6328 5.15341C12.2692 5.15341 12.8132 5.33097 13.2649 5.68608C13.7195 6.03835 14.0661 6.54972 14.3047 7.22017C14.5462 7.88778 14.6669 8.69318 14.6669 9.63636C14.6669 10.5852 14.5476 11.3949 14.3089 12.0653C14.0703 12.733 13.7251 13.2429 13.2734 13.5952C12.8217 13.9446 12.2749 14.1193 11.6328 14.1193ZM11.6328 13.1818C12.2692 13.1818 12.7635 12.875 13.1158 12.2614C13.468 11.6477 13.6442 10.7727 13.6442 9.63636C13.6442 8.88068 13.5632 8.23722 13.4013 7.70597C13.2422 7.17472 13.0121 6.76989 12.7109 6.49148C12.4126 6.21307 12.0533 6.07386 11.6328 6.07386C11.0021 6.07386 10.5092 6.38494 10.1541 7.0071C9.79901 7.62642 9.62145 8.50284 9.62145 9.63636C9.62145 10.392 9.70099 11.0341 9.86009 11.5625C10.0192 12.0909 10.2479 12.4929 10.5462 12.7685C10.8473 13.044 11.2095 13.1818 11.6328 13.1818ZM19.1328 14.1193C18.4908 14.1193 17.9439 13.9446 17.4922 13.5952C17.0405 13.2429 16.6953 12.733 16.4567 12.0653C16.218 11.3949 16.0987 10.5852 16.0987 9.63636C16.0987 8.69318 16.218 7.88778 16.4567 7.22017C16.6982 6.54972 17.0447 6.03835 17.4964 5.68608C17.951 5.33097 18.4964 5.15341 19.1328 5.15341C19.7692 5.15341 20.3132 5.33097 20.7649 5.68608C21.2195 6.03835 21.5661 6.54972 21.8047 7.22017C22.0462 7.88778 22.1669 8.69318 22.1669 9.63636C22.1669 10.5852 22.0476 11.3949 21.8089 12.0653C21.5703 12.733 21.2251 13.2429 20.7734 13.5952C20.3217 13.9446 19.7749 14.1193 19.1328 14.1193ZM19.1328 13.1818C19.7692 13.1818 20.2635 12.875 20.6158 12.2614C20.968 11.6477 21.1442 10.7727 21.1442 9.63636C21.1442 8.88068 21.0632 8.23722 20.9013 7.70597C20.7422 7.17472 20.5121 6.76989 20.2109 6.49148C19.9126 6.21307 19.5533 6.07386 19.1328 6.07386C18.5021 6.07386 18.0092 6.38494 17.6541 7.0071C17.299 7.62642 17.1214 8.50284 17.1214 9.63636C17.1214 10.392 17.201 11.0341 17.3601 11.5625C17.5192 12.0909 17.7479 12.4929 18.0462 12.7685C18.3473 13.044 18.7095 13.1818 19.1328 13.1818Z" fill="#64748B"/>
<path d="M11.6871 68.6193C11.1019 68.6193 10.5849 68.5156 10.136 68.3082C9.68999 68.098 9.34197 67.8097 9.09197 67.4432C8.84197 67.0739 8.71839 66.6534 8.72124 66.1818C8.71839 65.8125 8.79084 65.4716 8.93857 65.1591C9.08629 64.8437 9.288 64.581 9.54368 64.3707C9.8022 64.1577 10.0906 64.0227 10.4087 63.9659V63.9148C9.99112 63.8068 9.65874 63.5724 9.41158 63.2116C9.16442 62.848 9.04226 62.4347 9.0451 61.9716C9.04226 61.5284 9.15447 61.1321 9.38175 60.7827C9.60902 60.4332 9.92152 60.1577 10.3192 59.956C10.7198 59.7543 11.1758 59.6534 11.6871 59.6534C12.1928 59.6534 12.6445 59.7543 13.0423 59.956C13.44 60.1577 13.7525 60.4332 13.9798 60.7827C14.2099 61.1321 14.3263 61.5284 14.3292 61.9716C14.3263 62.4347 14.1999 62.848 13.9499 63.2116C13.7028 63.5724 13.3746 63.8068 12.9656 63.9148V63.9659C13.2809 64.0227 13.565 64.1577 13.8178 64.3707C14.0707 64.581 14.2724 64.8437 14.4229 65.1591C14.5735 65.4716 14.6502 65.8125 14.6531 66.1818C14.6502 66.6534 14.5224 67.0739 14.2695 67.4432C14.0195 67.8097 13.6715 68.098 13.2255 68.3082C12.7823 68.5156 12.2695 68.6193 11.6871 68.6193ZM11.6871 67.6818C12.082 67.6818 12.4229 67.6179 12.7099 67.4901C12.9968 67.3622 13.2184 67.1818 13.3746 66.9489C13.5309 66.7159 13.6104 66.4432 13.6133 66.1307C13.6104 65.8011 13.5252 65.5099 13.3576 65.2571C13.19 65.0043 12.9613 64.8054 12.6715 64.6605C12.3846 64.5156 12.0565 64.4432 11.6871 64.4432C11.315 64.4432 10.9826 64.5156 10.69 64.6605C10.4002 64.8054 10.1715 65.0043 10.0039 65.2571C9.83913 65.5099 9.75817 65.8011 9.76101 66.1307C9.75817 66.4432 9.83345 66.7159 9.98686 66.9489C10.1431 67.1818 10.3661 67.3622 10.6559 67.4901C10.9457 67.6179 11.2894 67.6818 11.6871 67.6818ZM11.6871 63.5398C11.9996 63.5398 12.2766 63.4773 12.5181 63.3523C12.7624 63.2273 12.9542 63.0526 13.0934 62.8281C13.2326 62.6037 13.3036 62.3409 13.3065 62.0398C13.3036 61.7443 13.234 61.4872 13.0977 61.2685C12.9613 61.0469 12.7724 60.8764 12.5309 60.7571C12.2894 60.6349 12.0082 60.5739 11.6871 60.5739C11.3604 60.5739 11.0749 60.6349 10.8306 60.7571C10.5863 60.8764 10.3974 61.0469 10.2638 61.2685C10.1303 61.4872 10.065 61.7443 10.0678 62.0398C10.065 62.3409 10.1317 62.6037 10.2681 62.8281C10.4073 63.0526 10.5991 63.2273 10.8434 63.3523C11.0877 63.4773 11.369 63.5398 11.6871 63.5398ZM19.1328 68.6193C18.4908 68.6193 17.9439 68.4446 17.4922 68.0952C17.0405 67.7429 16.6953 67.233 16.4567 66.5653C16.218 65.8949 16.0987 65.0852 16.0987 64.1364C16.0987 63.1932 16.218 62.3878 16.4567 61.7202C16.6982 61.0497 17.0447 60.5384 17.4964 60.1861C17.951 59.831 18.4964 59.6534 19.1328 59.6534C19.7692 59.6534 20.3132 59.831 20.7649 60.1861C21.2195 60.5384 21.5661 61.0497 21.8047 61.7202C22.0462 62.3878 22.1669 63.1932 22.1669 64.1364C22.1669 65.0852 22.0476 65.8949 21.8089 66.5653C21.5703 67.233 21.2251 67.7429 20.7734 68.0952C20.3217 68.4446 19.7749 68.6193 19.1328 68.6193ZM19.1328 67.6818C19.7692 67.6818 20.2635 67.375 20.6158 66.7614C20.968 66.1477 21.1442 65.2727 21.1442 64.1364C21.1442 63.3807 21.0632 62.7372 20.9013 62.206C20.7422 61.6747 20.5121 61.2699 20.2109 60.9915C19.9126 60.7131 19.5533 60.5739 19.1328 60.5739C18.5021 60.5739 18.0092 60.8849 17.6541 61.5071C17.299 62.1264 17.1214 63.0028 17.1214 64.1364C17.1214 64.892 17.201 65.5341 17.3601 66.0625C17.5192 66.5909 17.7479 66.9929 18.0462 67.2685C18.3473 67.544 18.7095 67.6818 19.1328 67.6818Z" fill="#64748B"/>
<path d="M11.6957 123.119C11.3377 123.114 10.9798 123.045 10.6218 122.915C10.2638 122.784 9.93714 122.564 9.64169 122.254C9.34624 121.942 9.10902 121.52 8.93004 120.989C8.75107 120.455 8.66158 119.784 8.66158 118.977C8.66158 118.205 8.73402 117.52 8.87891 116.923C9.02379 116.324 9.23402 115.82 9.50959 115.411C9.78516 114.999 10.1175 114.686 10.5067 114.473C10.8988 114.26 11.3406 114.153 11.832 114.153C12.3207 114.153 12.7553 114.251 13.136 114.447C13.5195 114.641 13.832 114.911 14.0735 115.257C14.315 115.604 14.4712 116.003 14.5423 116.455H13.5025C13.4059 116.062 13.2184 115.737 12.94 115.479C12.6616 115.22 12.2923 115.091 11.832 115.091C11.1559 115.091 10.6232 115.385 10.234 115.973C9.84766 116.561 9.65305 117.386 9.65021 118.449H9.71839C9.87749 118.207 10.0664 118.001 10.2852 117.831C10.5067 117.658 10.7511 117.524 11.0181 117.43C11.2852 117.337 11.5678 117.29 11.8661 117.29C12.3661 117.29 12.8235 117.415 13.2383 117.665C13.6531 117.912 13.9854 118.254 14.2354 118.692C14.4854 119.126 14.6104 119.625 14.6104 120.188C14.6104 120.727 14.4897 121.222 14.2482 121.67C14.0067 122.116 13.6673 122.472 13.2298 122.736C12.7951 122.997 12.2837 123.125 11.6957 123.119ZM11.6957 122.182C12.0536 122.182 12.3746 122.092 12.6587 121.913C12.9457 121.734 13.1715 121.494 13.3363 121.193C13.5039 120.892 13.5877 120.557 13.5877 120.188C13.5877 119.827 13.5067 119.499 13.3448 119.203C13.1857 118.905 12.9656 118.668 12.6843 118.491C12.4059 118.315 12.0877 118.227 11.7298 118.227C11.4599 118.227 11.2085 118.281 10.9755 118.389C10.7425 118.494 10.538 118.639 10.3619 118.824C10.1886 119.009 10.0522 119.22 9.95277 119.459C9.85334 119.695 9.80362 119.943 9.80362 120.205C9.80362 120.551 9.88459 120.875 10.0465 121.176C10.2113 121.477 10.4357 121.72 10.7198 121.905C11.0067 122.089 11.332 122.182 11.6957 122.182ZM19.1328 123.119C18.4908 123.119 17.9439 122.945 17.4922 122.595C17.0405 122.243 16.6953 121.733 16.4567 121.065C16.218 120.395 16.0987 119.585 16.0987 118.636C16.0987 117.693 16.218 116.888 16.4567 116.22C16.6982 115.55 17.0447 115.038 17.4964 114.686C17.951 114.331 18.4964 114.153 19.1328 114.153C19.7692 114.153 20.3132 114.331 20.7649 114.686C21.2195 115.038 21.5661 115.55 21.8047 116.22C22.0462 116.888 22.1669 117.693 22.1669 118.636C22.1669 119.585 22.0476 120.395 21.8089 121.065C21.5703 121.733 21.2251 122.243 20.7734 122.595C20.3217 122.945 19.7749 123.119 19.1328 123.119ZM19.1328 122.182C19.7692 122.182 20.2635 121.875 20.6158 121.261C20.968 120.648 21.1442 119.773 21.1442 118.636C21.1442 117.881 21.0632 117.237 20.9013 116.706C20.7422 116.175 20.5121 115.77 20.2109 115.491C19.9126 115.213 19.5533 115.074 19.1328 115.074C18.5021 115.074 18.0092 115.385 17.6541 116.007C17.299 116.626 17.1214 117.503 17.1214 118.636C17.1214 119.392 17.201 120.034 17.3601 120.562C17.5192 121.091 17.7479 121.493 18.0462 121.768C18.3473 122.044 18.7095 122.182 19.1328 122.182Z" fill="#64748B"/>
<path d="M8.38246 175.71V174.841L12.2177 168.773H12.8484V170.119H12.4222L9.5245 174.705V174.773H14.6893V175.71H8.38246ZM12.4904 177.5V175.446V175.041V168.773H13.4961V177.5H12.4904ZM19.1328 177.619C18.4908 177.619 17.9439 177.445 17.4922 177.095C17.0405 176.743 16.6953 176.233 16.4567 175.565C16.218 174.895 16.0987 174.085 16.0987 173.136C16.0987 172.193 16.218 171.388 16.4567 170.72C16.6982 170.05 17.0447 169.538 17.4964 169.186C17.951 168.831 18.4964 168.653 19.1328 168.653C19.7692 168.653 20.3132 168.831 20.7649 169.186C21.2195 169.538 21.5661 170.05 21.8047 170.72C22.0462 171.388 22.1669 172.193 22.1669 173.136C22.1669 174.085 22.0476 174.895 21.8089 175.565C21.5703 176.233 21.2251 176.743 20.7734 177.095C20.3217 177.445 19.7749 177.619 19.1328 177.619ZM19.1328 176.682C19.7692 176.682 20.2635 176.375 20.6158 175.761C20.968 175.148 21.1442 174.273 21.1442 173.136C21.1442 172.381 21.0632 171.737 20.9013 171.206C20.7422 170.675 20.5121 170.27 20.2109 169.991C19.9126 169.713 19.5533 169.574 19.1328 169.574C18.5021 169.574 18.0092 169.885 17.6541 170.507C17.299 171.126 17.1214 172.003 17.1214 173.136C17.1214 173.892 17.201 174.534 17.3601 175.062C17.5192 175.591 17.7479 175.993 18.0462 176.268C18.3473 176.544 18.7095 176.682 19.1328 176.682Z" fill="#64748B"/>
<path d="M9.0206 232V231.233L11.9013 228.08C12.2393 227.71 12.5178 227.389 12.7365 227.116C12.9553 226.841 13.1172 226.582 13.2223 226.341C13.3303 226.097 13.3842 225.841 13.3842 225.574C13.3842 225.267 13.3104 225.001 13.1626 224.777C13.0178 224.553 12.8189 224.379 12.5661 224.257C12.3132 224.135 12.0291 224.074 11.7138 224.074C11.3786 224.074 11.0859 224.143 10.8359 224.283C10.5888 224.419 10.397 224.611 10.2607 224.858C10.1271 225.105 10.0604 225.395 10.0604 225.727H9.05469C9.05469 225.216 9.17259 224.767 9.40838 224.381C9.64418 223.994 9.9652 223.693 10.3714 223.477C10.7805 223.261 11.2393 223.153 11.7479 223.153C12.2592 223.153 12.7124 223.261 13.1072 223.477C13.5021 223.693 13.8118 223.984 14.0362 224.351C14.2607 224.717 14.3729 225.125 14.3729 225.574C14.3729 225.895 14.3146 226.209 14.1982 226.516C14.0845 226.82 13.8857 227.159 13.6016 227.534C13.3203 227.906 12.9297 228.361 12.4297 228.898L10.4695 230.994V231.062H14.5263V232H9.0206ZM19.1328 232.119C18.4908 232.119 17.9439 231.945 17.4922 231.595C17.0405 231.243 16.6953 230.733 16.4567 230.065C16.218 229.395 16.0987 228.585 16.0987 227.636C16.0987 226.693 16.218 225.888 16.4567 225.22C16.6982 224.55 17.0447 224.038 17.4964 223.686C17.951 223.331 18.4964 223.153 19.1328 223.153C19.7692 223.153 20.3132 223.331 20.7649 223.686C21.2195 224.038 21.5661 224.55 21.8047 225.22C22.0462 225.888 22.1669 226.693 22.1669 227.636C22.1669 228.585 22.0476 229.395 21.8089 230.065C21.5703 230.733 21.2251 231.243 20.7734 231.595C20.3217 231.945 19.7749 232.119 19.1328 232.119ZM19.1328 231.182C19.7692 231.182 20.2635 230.875 20.6158 230.261C20.968 229.648 21.1442 228.773 21.1442 227.636C21.1442 226.881 21.0632 226.237 20.9013 225.706C20.7422 225.175 20.5121 224.77 20.2109 224.491C19.9126 224.213 19.5533 224.074 19.1328 224.074C18.5021 224.074 18.0092 224.385 17.6541 225.007C17.299 225.626 17.1214 226.503 17.1214 227.636C17.1214 228.392 17.201 229.034 17.3601 229.562C17.5192 230.091 17.7479 230.493 18.0462 230.768C18.3473 231.044 18.7095 231.182 19.1328 231.182Z" fill="#64748B"/>
</svg>
