<svg width="715" height="173" viewBox="0 0 715 173" fill="none" xmlns="http://www.w3.org/2000/svg">
<path d="M345.731 1.82031L666.105 1.82035C669.305 1.82035 672.235 3.61822 673.684 6.47203L712.293 82.5091C713.521 84.9277 713.521 87.7872 712.293 90.2058L673.684 166.243C672.235 169.097 669.305 170.894 666.105 170.894L368.145 170.895L55.6367 170.894C52.6457 170.894 49.8749 169.322 48.3404 166.755L2.89659 90.718C1.29156 88.0325 1.29156 84.6823 2.89659 81.9968L48.3404 5.95973C49.8749 3.39234 52.6457 1.82035 55.6367 1.82035L345.731 1.82031Z" stroke="url(#paint0_linear_416_33241)" stroke-width="3"/>
<defs>
<linearGradient id="paint0_linear_416_33241" x1="66.471" y1="100.578" x2="576.562" y2="-13.8785" gradientUnits="userSpaceOnUse">
<stop stop-color="#F5AB78"/>
<stop offset="0.43" stop-color="#8306BC"/>
<stop offset="1" stop-color="#4C7317"/>
</linearGradient>
</defs>
</svg>
