<svg width="416" height="100" viewBox="0 0 416 100" fill="none" xmlns="http://www.w3.org/2000/svg">
<path d="M201.355 2.89062L387.653 2.89065C388.863 2.89065 389.972 3.56711 390.527 4.64341L412.969 48.2317C413.447 49.1602 413.447 50.2626 412.969 51.1911L390.527 94.7794C389.972 95.8557 388.863 96.5322 387.653 96.5322L214.384 96.5322L32.6614 96.5322C31.5311 96.5322 30.4828 95.9417 29.897 94.975L3.48151 51.3867C2.85747 50.357 2.85748 49.0658 3.48151 48.0361L29.897 4.44781C30.4828 3.48111 31.5311 2.89065 32.6614 2.89065L201.355 2.89062Z" fill="#EDF1E8" stroke="url(#paint0_linear_837_2637)" stroke-width="5"/>
<defs>
<linearGradient id="paint0_linear_837_2637" x1="39.028" y1="57.8636" x2="335.132" y2="-9.50807" gradientUnits="userSpaceOnUse">
<stop stop-color="#F5AB78"/>
<stop offset="0.43" stop-color="#8306BC"/>
<stop offset="1" stop-color="#4C7317"/>
</linearGradient>
</defs>
</svg>
